<?xml version='1.0' encoding='utf-8'?>
<svg xmlns:xlink="http://www.w3.org/1999/xlink" xmlns="http://www.w3.org/2000/svg" id="chart-9477a97c-e45a-47c3-92ba-dc7f6f9fc0c3" class="pygal-chart" viewBox="0 0 800 600"><!--Generated with pygal 2.4.0 (lxml) ©Kozea 2012-2016 on 2019-01-06--><!--http://pygal.org--><!--http://github.com/Kozea/pygal--><defs><style type="text/css">#chart-9477a97c-e45a-47c3-92ba-dc7f6f9fc0c3{-webkit-user-select:none;-webkit-font-smoothing:antialiased;font-family:Consolas,"Liberation Mono",Menlo,Courier,monospace}#chart-9477a97c-e45a-47c3-92ba-dc7f6f9fc0c3 .title{font-family:Consolas,"Liberation Mono",Menlo,Courier,monospace;font-size:16px}#chart-9477a97c-e45a-47c3-92ba-dc7f6f9fc0c3 .legends .legend text{font-family:Consolas,"Liberation Mono",Menlo,Courier,monospace;font-size:14px}#chart-9477a97c-e45a-47c3-92ba-dc7f6f9fc0c3 .axis text{font-family:Consolas,"Liberation Mono",Menlo,Courier,monospace;font-size:10px}#chart-9477a97c-e45a-47c3-92ba-dc7f6f9fc0c3 .axis text.major{font-family:Consolas,"Liberation Mono",Menlo,Courier,monospace;font-size:10px}#chart-9477a97c-e45a-47c3-92ba-dc7f6f9fc0c3 .text-overlay text.value{font-family:Consolas,"Liberation Mono",Menlo,Courier,monospace;font-size:16px}#chart-9477a97c-e45a-47c3-92ba-dc7f6f9fc0c3 .text-overlay text.label{font-family:Consolas,"Liberation Mono",Menlo,Courier,monospace;font-size:10px}#chart-9477a97c-e45a-47c3-92ba-dc7f6f9fc0c3 .tooltip{font-family:Consolas,"Liberation Mono",Menlo,Courier,monospace;font-size:14px}#chart-9477a97c-e45a-47c3-92ba-dc7f6f9fc0c3 text.no_data{font-family:Consolas,"Liberation Mono",Menlo,Courier,monospace;font-size:64px}
#chart-9477a97c-e45a-47c3-92ba-dc7f6f9fc0c3{background-color:black}#chart-9477a97c-e45a-47c3-92ba-dc7f6f9fc0c3 path,#chart-9477a97c-e45a-47c3-92ba-dc7f6f9fc0c3 line,#chart-9477a97c-e45a-47c3-92ba-dc7f6f9fc0c3 rect,#chart-9477a97c-e45a-47c3-92ba-dc7f6f9fc0c3 circle{-webkit-transition:250ms;-moz-transition:250ms;transition:250ms}#chart-9477a97c-e45a-47c3-92ba-dc7f6f9fc0c3 .graph &gt; .background{fill:black}#chart-9477a97c-e45a-47c3-92ba-dc7f6f9fc0c3 .plot &gt; .background{fill:#111}#chart-9477a97c-e45a-47c3-92ba-dc7f6f9fc0c3 .graph{fill:#999}#chart-9477a97c-e45a-47c3-92ba-dc7f6f9fc0c3 text.no_data{fill:#eee}#chart-9477a97c-e45a-47c3-92ba-dc7f6f9fc0c3 .title{fill:#eee}#chart-9477a97c-e45a-47c3-92ba-dc7f6f9fc0c3 .legends .legend text{fill:#999}#chart-9477a97c-e45a-47c3-92ba-dc7f6f9fc0c3 .legends .legend:hover text{fill:#eee}#chart-9477a97c-e45a-47c3-92ba-dc7f6f9fc0c3 .axis .line{stroke:#eee}#chart-9477a97c-e45a-47c3-92ba-dc7f6f9fc0c3 .axis .guide.line{stroke:#555}#chart-9477a97c-e45a-47c3-92ba-dc7f6f9fc0c3 .axis .major.line{stroke:#999}#chart-9477a97c-e45a-47c3-92ba-dc7f6f9fc0c3 .axis text.major{fill:#eee}#chart-9477a97c-e45a-47c3-92ba-dc7f6f9fc0c3 .axis.y .guides:hover .guide.line,#chart-9477a97c-e45a-47c3-92ba-dc7f6f9fc0c3 .line-graph .axis.x .guides:hover .guide.line,#chart-9477a97c-e45a-47c3-92ba-dc7f6f9fc0c3 .stackedline-graph .axis.x .guides:hover .guide.line,#chart-9477a97c-e45a-47c3-92ba-dc7f6f9fc0c3 .xy-graph .axis.x .guides:hover .guide.line{stroke:#eee}#chart-9477a97c-e45a-47c3-92ba-dc7f6f9fc0c3 .axis .guides:hover text{fill:#eee}#chart-9477a97c-e45a-47c3-92ba-dc7f6f9fc0c3 .reactive{fill-opacity:.8;stroke-opacity:.8}#chart-9477a97c-e45a-47c3-92ba-dc7f6f9fc0c3 .ci{stroke:#999}#chart-9477a97c-e45a-47c3-92ba-dc7f6f9fc0c3 .reactive.active,#chart-9477a97c-e45a-47c3-92ba-dc7f6f9fc0c3 .active .reactive{fill-opacity:.4;stroke-opacity:.9;stroke-width:4}#chart-9477a97c-e45a-47c3-92ba-dc7f6f9fc0c3 .ci .reactive.active{stroke-width:1.5}#chart-9477a97c-e45a-47c3-92ba-dc7f6f9fc0c3 .series text{fill:#eee}#chart-9477a97c-e45a-47c3-92ba-dc7f6f9fc0c3 .tooltip rect{fill:#111;stroke:#eee;-webkit-transition:opacity 250ms;-moz-transition:opacity 250ms;transition:opacity 250ms}#chart-9477a97c-e45a-47c3-92ba-dc7f6f9fc0c3 .tooltip .label{fill:#999}#chart-9477a97c-e45a-47c3-92ba-dc7f6f9fc0c3 .tooltip .label{fill:#999}#chart-9477a97c-e45a-47c3-92ba-dc7f6f9fc0c3 .tooltip .legend{font-size:.8em;fill:#555}#chart-9477a97c-e45a-47c3-92ba-dc7f6f9fc0c3 .tooltip .x_label{font-size:.6em;fill:#eee}#chart-9477a97c-e45a-47c3-92ba-dc7f6f9fc0c3 .tooltip .xlink{font-size:.5em;text-decoration:underline}#chart-9477a97c-e45a-47c3-92ba-dc7f6f9fc0c3 .tooltip .value{font-size:1.5em}#chart-9477a97c-e45a-47c3-92ba-dc7f6f9fc0c3 .bound{font-size:.5em}#chart-9477a97c-e45a-47c3-92ba-dc7f6f9fc0c3 .max-value{font-size:.75em;fill:#555}#chart-9477a97c-e45a-47c3-92ba-dc7f6f9fc0c3 .map-element{fill:#111;stroke:#555 !important}#chart-9477a97c-e45a-47c3-92ba-dc7f6f9fc0c3 .map-element .reactive{fill-opacity:inherit;stroke-opacity:inherit}#chart-9477a97c-e45a-47c3-92ba-dc7f6f9fc0c3 .color-0,#chart-9477a97c-e45a-47c3-92ba-dc7f6f9fc0c3 .color-0 a:visited{stroke:#ff5995;fill:#ff5995}#chart-9477a97c-e45a-47c3-92ba-dc7f6f9fc0c3 .color-1,#chart-9477a97c-e45a-47c3-92ba-dc7f6f9fc0c3 .color-1 a:visited{stroke:#b6e354;fill:#b6e354}#chart-9477a97c-e45a-47c3-92ba-dc7f6f9fc0c3 .text-overlay .color-0 text{fill:black}#chart-9477a97c-e45a-47c3-92ba-dc7f6f9fc0c3 .text-overlay .color-1 text{fill:black}
#chart-9477a97c-e45a-47c3-92ba-dc7f6f9fc0c3 text.no_data{text-anchor:middle}#chart-9477a97c-e45a-47c3-92ba-dc7f6f9fc0c3 .guide.line{fill:none}#chart-9477a97c-e45a-47c3-92ba-dc7f6f9fc0c3 .centered{text-anchor:middle}#chart-9477a97c-e45a-47c3-92ba-dc7f6f9fc0c3 .title{text-anchor:middle}#chart-9477a97c-e45a-47c3-92ba-dc7f6f9fc0c3 .legends .legend text{fill-opacity:1}#chart-9477a97c-e45a-47c3-92ba-dc7f6f9fc0c3 .axis.x text{text-anchor:middle}#chart-9477a97c-e45a-47c3-92ba-dc7f6f9fc0c3 .axis.x:not(.web) text[transform]{text-anchor:start}#chart-9477a97c-e45a-47c3-92ba-dc7f6f9fc0c3 .axis.x:not(.web) text[transform].backwards{text-anchor:end}#chart-9477a97c-e45a-47c3-92ba-dc7f6f9fc0c3 .axis.y text{text-anchor:end}#chart-9477a97c-e45a-47c3-92ba-dc7f6f9fc0c3 .axis.y text[transform].backwards{text-anchor:start}#chart-9477a97c-e45a-47c3-92ba-dc7f6f9fc0c3 .axis.y2 text{text-anchor:start}#chart-9477a97c-e45a-47c3-92ba-dc7f6f9fc0c3 .axis.y2 text[transform].backwards{text-anchor:end}#chart-9477a97c-e45a-47c3-92ba-dc7f6f9fc0c3 .axis .guide.line{stroke-dasharray:4,4}#chart-9477a97c-e45a-47c3-92ba-dc7f6f9fc0c3 .axis .major.guide.line{stroke-dasharray:6,6}#chart-9477a97c-e45a-47c3-92ba-dc7f6f9fc0c3 .horizontal .axis.y .guide.line,#chart-9477a97c-e45a-47c3-92ba-dc7f6f9fc0c3 .horizontal .axis.y2 .guide.line,#chart-9477a97c-e45a-47c3-92ba-dc7f6f9fc0c3 .vertical .axis.x .guide.line{opacity:0}#chart-9477a97c-e45a-47c3-92ba-dc7f6f9fc0c3 .horizontal .axis.always_show .guide.line,#chart-9477a97c-e45a-47c3-92ba-dc7f6f9fc0c3 .vertical .axis.always_show .guide.line{opacity:1 !important}#chart-9477a97c-e45a-47c3-92ba-dc7f6f9fc0c3 .axis.y .guides:hover .guide.line,#chart-9477a97c-e45a-47c3-92ba-dc7f6f9fc0c3 .axis.y2 .guides:hover .guide.line,#chart-9477a97c-e45a-47c3-92ba-dc7f6f9fc0c3 .axis.x .guides:hover .guide.line{opacity:1}#chart-9477a97c-e45a-47c3-92ba-dc7f6f9fc0c3 .axis .guides:hover text{opacity:1}#chart-9477a97c-e45a-47c3-92ba-dc7f6f9fc0c3 .nofill{fill:none}#chart-9477a97c-e45a-47c3-92ba-dc7f6f9fc0c3 .subtle-fill{fill-opacity:.2}#chart-9477a97c-e45a-47c3-92ba-dc7f6f9fc0c3 .dot{stroke-width:1px;fill-opacity:1}#chart-9477a97c-e45a-47c3-92ba-dc7f6f9fc0c3 .dot.active{stroke-width:5px}#chart-9477a97c-e45a-47c3-92ba-dc7f6f9fc0c3 .dot.negative{fill:transparent}#chart-9477a97c-e45a-47c3-92ba-dc7f6f9fc0c3 text,#chart-9477a97c-e45a-47c3-92ba-dc7f6f9fc0c3 tspan{stroke:none !important}#chart-9477a97c-e45a-47c3-92ba-dc7f6f9fc0c3 .series text.active{opacity:1}#chart-9477a97c-e45a-47c3-92ba-dc7f6f9fc0c3 .tooltip rect{fill-opacity:.95;stroke-width:.5}#chart-9477a97c-e45a-47c3-92ba-dc7f6f9fc0c3 .tooltip text{fill-opacity:1}#chart-9477a97c-e45a-47c3-92ba-dc7f6f9fc0c3 .showable{visibility:hidden}#chart-9477a97c-e45a-47c3-92ba-dc7f6f9fc0c3 .showable.shown{visibility:visible}#chart-9477a97c-e45a-47c3-92ba-dc7f6f9fc0c3 .gauge-background{fill:rgba(229,229,229,1);stroke:none}#chart-9477a97c-e45a-47c3-92ba-dc7f6f9fc0c3 .bg-lines{stroke:black;stroke-width:2px}</style><script type="text/javascript">window.pygal = window.pygal || {};window.pygal.config = window.pygal.config || {};window.pygal.config['9477a97c-e45a-47c3-92ba-dc7f6f9fc0c3'] = {"allow_interruptions": false, "box_mode": "extremes", "classes": ["pygal-chart"], "css": ["file://style.css", "file://graph.css"], "defs": [], "disable_xml_declaration": false, "dots_size": 2.5, "dynamic_print_values": false, "explicit_size": false, "fill": true, "force_uri_protocol": "https", "formatter": null, "half_pie": false, "height": 600, "include_x_axis": false, "inner_radius": 0, "interpolate": null, "interpolation_parameters": {}, "interpolation_precision": 250, "inverse_y_axis": false, "js": ["//kozea.github.io/pygal.js/2.0.x/pygal-tooltips.min.js"], "legend_at_bottom": true, "legend_at_bottom_columns": null, "legend_box_size": 12, "logarithmic": false, "margin": 20, "margin_bottom": null, "margin_left": null, "margin_right": null, "margin_top": null, "max_scale": 16, "min_scale": 4, "missing_value_fill_truncation": "x", "no_data_text": "No data", "no_prefix": false, "order_min": null, "pretty_print": false, "print_labels": false, "print_values": false, "print_values_position": "center", "print_zeroes": true, "range": null, "rounded_bars": null, "secondary_range": null, "show_dots": false, "show_legend": true, "show_minor_x_labels": true, "show_minor_y_labels": true, "show_only_major_dots": false, "show_x_guides": false, "show_x_labels": true, "show_y_guides": true, "show_y_labels": true, "spacing": 10, "stack_from_top": false, "strict": false, "stroke": true, "stroke_style": null, "style": {"background": "black", "ci_colors": [], "colors": ["#ff5995", "#b6e354", "#feed6c", "#8cedff", "#9e6ffe", "#899ca1", "#f8f8f2", "#bf4646", "#516083", "#f92672", "#82b414", "#fd971f", "#56c2d6", "#808384", "#8c54fe", "#465457"], "font_family": "Consolas, \"Liberation Mono\", Menlo, Courier, monospace", "foreground": "#999", "foreground_strong": "#eee", "foreground_subtle": "#555", "guide_stroke_dasharray": "4,4", "label_font_family": "Consolas, \"Liberation Mono\", Menlo, Courier, monospace", "label_font_size": 10, "legend_font_family": "Consolas, \"Liberation Mono\", Menlo, Courier, monospace", "legend_font_size": 14, "major_guide_stroke_dasharray": "6,6", "major_label_font_family": "Consolas, \"Liberation Mono\", Menlo, Courier, monospace", "major_label_font_size": 10, "no_data_font_family": "Consolas, \"Liberation Mono\", Menlo, Courier, monospace", "no_data_font_size": 64, "opacity": ".8", "opacity_hover": ".4", "plot_background": "#111", "stroke_opacity": ".8", "stroke_opacity_hover": ".9", "title_font_family": "Consolas, \"Liberation Mono\", Menlo, Courier, monospace", "title_font_size": 16, "tooltip_font_family": "Consolas, \"Liberation Mono\", Menlo, Courier, monospace", "tooltip_font_size": 14, "transition": "250ms", "value_background": "rgba(229, 229, 229, 1)", "value_colors": [], "value_font_family": "Consolas, \"Liberation Mono\", Menlo, Courier, monospace", "value_font_size": 16, "value_label_font_family": "Consolas, \"Liberation Mono\", Menlo, Courier, monospace", "value_label_font_size": 10}, "title": "Genome diversity in asexual population over 500 generations (Autogamy). \n Quantity of original genes from the first generation in population ", "tooltip_border_radius": 0, "tooltip_fancy_mode": true, "truncate_label": null, "truncate_legend": null, "width": 800, "x_label_rotation": 0, "x_labels": null, "x_labels_major": null, "x_labels_major_count": null, "x_labels_major_every": null, "x_title": null, "xrange": null, "y_label_rotation": 0, "y_labels": null, "y_labels_major": null, "y_labels_major_count": null, "y_labels_major_every": null, "y_title": null, "zero": 0, "legends": ["Population size", "Diversity"]}</script><script type="text/javascript" xlink:href="https://kozea.github.io/pygal.js/2.0.x/pygal-tooltips.min.js"/></defs><title>Genome diversity in asexual population over 500 generations (Autogamy). 
 Quantity of original genes from the first generation in population </title><g class="graph xy-graph vertical"><rect class="background" height="600" width="800" x="0" y="0"/><g class="plot" transform="translate(42, 72)"><rect class="background" height="443.0" width="738.0" x="0" y="0"/><g class="axis y always_show"><path class="line" d="M0.000000 443.000000 h738.000000"/><g class="guides"><path class="guide line" d="M0.000000 381.235577 h738.000000"/><text class="" x="-5" y="384.7355769230769">10</text><title>10</title></g><g class="guides"><path class="guide line" d="M0.000000 314.679087 h738.000000"/><text class="" x="-5" y="318.17908653846155">20</text><title>20</title></g><g class="guides"><path class="guide line" d="M0.000000 248.122596 h738.000000"/><text class="" x="-5" y="251.62259615384616">30</text><title>30</title></g><g class="guides"><path class="guide line" d="M0.000000 181.566106 h738.000000"/><text class="" x="-5" y="185.06610576923077">40</text><title>40</title></g><g class="guides"><path class="major guide line" d="M0.000000 115.009615 h738.000000"/><text class="major" x="-5" y="118.50961538461536">50</text><title>50</title></g><g class="guides"><path class="guide line" d="M0.000000 48.453125 h738.000000"/><text class="" x="-5" y="51.953125">60</text><title>60</title></g></g><g class="axis x"><g class="guides"><path class="axis line" d="M14.192308 0.000000 v443.000000"/><text class="" x="14.192307692307692" y="458.0">0</text><title>0</title></g><g class="guides"><path class="guide line" d="M156.115385 0.000000 v443.000000"/><text class="" x="156.1153846153846" y="458.0">100</text><title>100</title></g><g class="guides"><path class="guide line" d="M298.038462 0.000000 v443.000000"/><text class="" x="298.03846153846155" y="458.0">200</text><title>200</title></g><g class="guides"><path class="guide line" d="M439.961538 0.000000 v443.000000"/><text class="" x="439.96153846153845" y="458.0">300</text><title>300</title></g><g class="guides"><path class="guide line" d="M581.884615 0.000000 v443.000000"/><text class="" x="581.8846153846154" y="458.0">400</text><title>400</title></g><g class="guides"><path class="guide line" d="M723.807692 0.000000 v443.000000"/><text class="" x="723.8076923076923" y="458.0">500</text><title>500</title></g></g><g class="series serie-0 color-0"><path class="line reactive" d="M14.192308 443.000000 L14.192308 115.009615 15.611538 88.387019 17.030769 75.075721 18.450000 61.764423 19.869231 68.420072 21.288462 81.731370 22.707692 68.420072 24.126923 48.453125 25.546154 28.486178 26.965385 48.453125 28.384615 75.075721 29.803846 68.420072 31.223077 61.764423 32.642308 81.731370 34.061538 75.075721 35.480769 75.075721 36.900000 101.698317 38.319231 115.009615 39.738462 115.009615 41.157692 115.009615 42.576923 101.698317 43.996154 108.353966 45.415385 101.698317 46.834615 101.698317 48.253846 108.353966 49.673077 75.075721 51.092308 81.731370 52.511538 121.665264 53.930769 121.665264 55.350000 115.009615 56.769231 115.009615 58.188462 121.665264 59.607692 128.320913 61.026923 115.009615 62.446154 108.353966 63.865385 88.387019 65.284615 81.731370 66.703846 48.453125 68.123077 41.797476 69.542308 41.797476 70.961538 48.453125 72.380769 68.420072 73.800000 75.075721 75.219231 55.108774 76.638462 28.486178 78.057692 48.453125 79.476923 101.698317 80.896154 108.353966 82.315385 141.632212 83.734615 161.599159 85.153846 181.566106 86.573077 141.632212 87.992308 141.632212 89.411538 128.320913 90.830769 115.009615 92.250000 128.320913 93.669231 134.976562 95.088462 148.287861 96.507692 141.632212 97.926923 141.632212 99.346154 128.320913 100.765385 115.009615 102.184615 134.976562 103.603846 134.976562 105.023077 115.009615 106.442308 128.320913 107.861538 108.353966 109.280769 95.042668 110.700000 68.420072 112.119231 61.764423 113.538462 75.075721 114.957692 61.764423 116.376923 88.387019 117.796154 61.764423 119.215385 61.764423 120.634615 41.797476 122.053846 61.764423 123.473077 75.075721 124.892308 61.764423 126.311538 75.075721 127.730769 75.075721 129.150000 68.420072 130.569231 68.420072 131.988462 81.731370 133.407692 75.075721 134.826923 75.075721 136.246154 95.042668 137.665385 95.042668 139.084615 101.698317 140.503846 95.042668 141.923077 108.353966 143.342308 128.320913 144.761538 154.943510 146.180769 148.287861 147.600000 154.943510 149.019231 161.599159 150.438462 161.599159 151.857692 174.910457 153.276923 188.221755 154.696154 168.254808 156.115385 174.910457 157.534615 161.599159 158.953846 181.566106 160.373077 161.599159 161.792308 154.943510 163.211538 128.320913 164.630769 115.009615 166.050000 101.698317 167.469231 88.387019 168.888462 108.353966 170.307692 108.353966 171.726923 101.698317 173.146154 101.698317 174.565385 128.320913 175.984615 108.353966 177.403846 81.731370 178.823077 88.387019 180.242308 81.731370 181.661538 88.387019 183.080769 75.075721 184.500000 68.420072 185.919231 75.075721 187.338462 68.420072 188.757692 61.764423 190.176923 68.420072 191.596154 68.420072 193.015385 75.075721 194.434615 68.420072 195.853846 95.042668 197.273077 101.698317 198.692308 148.287861 200.111538 128.320913 201.530769 134.976562 202.950000 108.353966 204.369231 121.665264 205.788462 134.976562 207.207692 141.632212 208.626923 134.976562 210.046154 121.665264 211.465385 121.665264 212.884615 95.042668 214.303846 108.353966 215.723077 108.353966 217.142308 101.698317 218.561538 121.665264 219.980769 141.632212 221.400000 141.632212 222.819231 128.320913 224.238462 148.287861 225.657692 154.943510 227.076923 161.599159 228.496154 141.632212 229.915385 134.976562 231.334615 141.632212 232.753846 154.943510 234.173077 148.287861 235.592308 134.976562 237.011538 141.632212 238.430769 141.632212 239.850000 108.353966 241.269231 115.009615 242.688462 115.009615 244.107692 115.009615 245.526923 121.665264 246.946154 128.320913 248.365385 128.320913 249.784615 115.009615 251.203846 121.665264 252.623077 101.698317 254.042308 108.353966 255.461538 101.698317 256.880769 108.353966 258.300000 95.042668 259.719231 75.075721 261.138462 81.731370 262.557692 88.387019 263.976923 95.042668 265.396154 81.731370 266.815385 48.453125 268.234615 41.797476 269.653846 48.453125 271.073077 55.108774 272.492308 101.698317 273.911538 61.764423 275.330769 68.420072 276.750000 101.698317 278.169231 121.665264 279.588462 134.976562 281.007692 141.632212 282.426923 134.976562 283.846154 134.976562 285.265385 121.665264 286.684615 101.698317 288.103846 101.698317 289.523077 108.353966 290.942308 95.042668 292.361538 88.387019 293.780769 68.420072 295.200000 68.420072 296.619231 88.387019 298.038462 95.042668 299.457692 121.665264 300.876923 115.009615 302.296154 121.665264 303.715385 128.320913 305.134615 134.976562 306.553846 141.632212 307.973077 121.665264 309.392308 115.009615 310.811538 108.353966 312.230769 95.042668 313.650000 101.698317 315.069231 115.009615 316.488462 134.976562 317.907692 154.943510 319.326923 148.287861 320.746154 148.287861 322.165385 148.287861 323.584615 148.287861 325.003846 174.910457 326.423077 188.221755 327.842308 188.221755 329.261538 201.533053 330.680769 201.533053 332.100000 201.533053 333.519231 214.844351 334.938462 214.844351 336.357692 214.844351 337.776923 221.500000 339.196154 228.155649 340.615385 214.844351 342.034615 214.844351 343.453846 194.877404 344.873077 188.221755 346.292308 181.566106 347.711538 168.254808 349.130769 154.943510 350.550000 141.632212 351.969231 121.665264 353.388462 121.665264 354.807692 134.976562 356.226923 141.632212 357.646154 141.632212 359.065385 134.976562 360.484615 121.665264 361.903846 128.320913 363.323077 121.665264 364.742308 108.353966 366.161538 101.698317 367.580769 88.387019 369.000000 108.353966 370.419231 134.976562 371.838462 121.665264 373.257692 121.665264 374.676923 121.665264 376.096154 161.599159 377.515385 141.632212 378.934615 174.910457 380.353846 168.254808 381.773077 181.566106 383.192308 194.877404 384.611538 188.221755 386.030769 188.221755 387.450000 174.910457 388.869231 154.943510 390.288462 148.287861 391.707692 161.599159 393.126923 174.910457 394.546154 174.910457 395.965385 154.943510 397.384615 141.632212 398.803846 128.320913 400.223077 128.320913 401.642308 134.976562 403.061538 154.943510 404.480769 128.320913 405.900000 101.698317 407.319231 101.698317 408.738462 88.387019 410.157692 95.042668 411.576923 108.353966 412.996154 121.665264 414.415385 134.976562 415.834615 134.976562 417.253846 128.320913 418.673077 141.632212 420.092308 168.254808 421.511538 168.254808 422.930769 174.910457 424.350000 174.910457 425.769231 181.566106 427.188462 148.287861 428.607692 154.943510 430.026923 134.976562 431.446154 154.943510 432.865385 134.976562 434.284615 128.320913 435.703846 108.353966 437.123077 115.009615 438.542308 115.009615 439.961538 128.320913 441.380769 95.042668 442.800000 101.698317 444.219231 101.698317 445.638462 88.387019 447.057692 108.353966 448.476923 108.353966 449.896154 115.009615 451.315385 108.353966 452.734615 75.075721 454.153846 68.420072 455.573077 48.453125 456.992308 35.141827 458.411538 41.797476 459.830769 41.797476 461.250000 21.830529 462.669231 48.453125 464.088462 55.108774 465.507692 68.420072 466.926923 48.453125 468.346154 8.519231 469.765385 15.174880 471.184615 41.797476 472.603846 41.797476 474.023077 55.108774 475.442308 61.764423 476.861538 101.698317 478.280769 108.353966 479.700000 101.698317 481.119231 75.075721 482.538462 95.042668 483.957692 95.042668 485.376923 81.731370 486.796154 95.042668 488.215385 101.698317 489.634615 121.665264 491.053846 141.632212 492.473077 128.320913 493.892308 128.320913 495.311538 121.665264 496.730769 148.287861 498.150000 134.976562 499.569231 134.976562 500.988462 148.287861 502.407692 115.009615 503.826923 108.353966 505.246154 88.387019 506.665385 75.075721 508.084615 101.698317 509.503846 115.009615 510.923077 134.976562 512.342308 115.009615 513.761538 88.387019 515.180769 101.698317 516.600000 134.976562 518.019231 154.943510 519.438462 154.943510 520.857692 134.976562 522.276923 134.976562 523.696154 148.287861 525.115385 174.910457 526.534615 188.221755 527.953846 174.910457 529.373077 174.910457 530.792308 194.877404 532.211538 188.221755 533.630769 174.910457 535.050000 161.599159 536.469231 168.254808 537.888462 168.254808 539.307692 154.943510 540.726923 168.254808 542.146154 174.910457 543.565385 154.943510 544.984615 141.632212 546.403846 141.632212 547.823077 154.943510 549.242308 148.287861 550.661538 154.943510 552.080769 161.599159 553.500000 148.287861 554.919231 128.320913 556.338462 128.320913 557.757692 101.698317 559.176923 115.009615 560.596154 108.353966 562.015385 108.353966 563.434615 108.353966 564.853846 101.698317 566.273077 88.387019 567.692308 108.353966 569.111538 95.042668 570.530769 88.387019 571.950000 75.075721 573.369231 81.731370 574.788462 95.042668 576.207692 108.353966 577.626923 108.353966 579.046154 121.665264 580.465385 128.320913 581.884615 128.320913 583.303846 141.632212 584.723077 115.009615 586.142308 88.387019 587.561538 101.698317 588.980769 81.731370 590.400000 75.075721 591.819231 61.764423 593.238462 75.075721 594.657692 68.420072 596.076923 95.042668 597.496154 95.042668 598.915385 115.009615 600.334615 108.353966 601.753846 81.731370 603.173077 88.387019 604.592308 81.731370 606.011538 88.387019 607.430769 88.387019 608.850000 108.353966 610.269231 95.042668 611.688462 75.075721 613.107692 81.731370 614.526923 101.698317 615.946154 101.698317 617.365385 101.698317 618.784615 101.698317 620.203846 95.042668 621.623077 101.698317 623.042308 95.042668 624.461538 115.009615 625.880769 101.698317 627.300000 75.075721 628.719231 101.698317 630.138462 108.353966 631.557692 128.320913 632.976923 161.599159 634.396154 161.599159 635.815385 168.254808 637.234615 168.254808 638.653846 168.254808 640.073077 181.566106 641.492308 201.533053 642.911538 201.533053 644.330769 188.221755 645.750000 194.877404 647.169231 174.910457 648.588462 154.943510 650.007692 154.943510 651.426923 174.910457 652.846154 161.599159 654.265385 161.599159 655.684615 168.254808 657.103846 188.221755 658.523077 188.221755 659.942308 188.221755 661.361538 188.221755 662.780769 194.877404 664.200000 201.533053 665.619231 181.566106 667.038462 161.599159 668.457692 134.976562 669.876923 101.698317 671.296154 108.353966 672.715385 101.698317 674.134615 101.698317 675.553846 88.387019 676.973077 88.387019 678.392308 75.075721 679.811538 61.764423 681.230769 88.387019 682.650000 101.698317 684.069231 115.009615 685.488462 115.009615 686.907692 121.665264 688.326923 121.665264 689.746154 148.287861 691.165385 128.320913 692.584615 141.632212 694.003846 134.976562 695.423077 134.976562 696.842308 161.599159 698.261538 161.599159 699.680769 168.254808 701.100000 168.254808 702.519231 168.254808 703.938462 154.943510 705.357692 161.599159 706.776923 181.566106 708.196154 174.910457 709.615385 174.910457 711.034615 174.910457 712.453846 168.254808 713.873077 174.910457 715.292308 168.254808 716.711538 188.221755 718.130769 214.844351 719.550000 208.188702 720.969231 221.500000 722.388462 221.500000 723.807692 234.811298 723.807692 443.000000"/></g><g class="series serie-1 color-1"><path class="line reactive" d="M14.192308 443.000000 L14.192308 115.009615 15.611538 128.320913 17.030769 134.976562 18.450000 154.943510 19.869231 161.599159 21.288462 174.910457 22.707692 174.910457 24.126923 181.566106 25.546154 201.533053 26.965385 221.500000 28.384615 234.811298 29.803846 234.811298 31.223077 234.811298 32.642308 254.778245 34.061538 261.433894 35.480769 274.745192 36.900000 281.400841 38.319231 288.056490 39.738462 294.712139 41.157692 294.712139 42.576923 301.367788 43.996154 301.367788 45.415385 301.367788 46.834615 301.367788 48.253846 308.023438 49.673077 308.023438 51.092308 308.023438 52.511538 321.334736 53.930769 321.334736 55.350000 327.990385 56.769231 327.990385 58.188462 334.646034 59.607692 334.646034 61.026923 334.646034 62.446154 334.646034 63.865385 334.646034 65.284615 334.646034 66.703846 334.646034 68.123077 334.646034 69.542308 334.646034 70.961538 334.646034 72.380769 341.301683 73.800000 347.957332 75.219231 347.957332 76.638462 347.957332 78.057692 347.957332 79.476923 354.612981 80.896154 354.612981 82.315385 354.612981 83.734615 361.268630 85.153846 367.924279 86.573077 367.924279 87.992308 367.924279 89.411538 367.924279 90.830769 367.924279 92.250000 367.924279 93.669231 367.924279 95.088462 367.924279 96.507692 367.924279 97.926923 367.924279 99.346154 367.924279 100.765385 374.579928 102.184615 374.579928 103.603846 374.579928 105.023077 374.579928 106.442308 374.579928 107.861538 374.579928 109.280769 374.579928 110.700000 374.579928 112.119231 374.579928 113.538462 374.579928 114.957692 374.579928 116.376923 374.579928 117.796154 374.579928 119.215385 374.579928 120.634615 374.579928 122.053846 374.579928 123.473077 374.579928 124.892308 374.579928 126.311538 374.579928 127.730769 374.579928 129.150000 374.579928 130.569231 374.579928 131.988462 374.579928 133.407692 374.579928 134.826923 374.579928 136.246154 374.579928 137.665385 374.579928 139.084615 374.579928 140.503846 374.579928 141.923077 374.579928 143.342308 374.579928 144.761538 374.579928 146.180769 374.579928 147.600000 374.579928 149.019231 374.579928 150.438462 374.579928 151.857692 381.235577 153.276923 381.235577 154.696154 381.235577 156.115385 381.235577 157.534615 381.235577 158.953846 387.891226 160.373077 394.546875 161.792308 394.546875 163.211538 394.546875 164.630769 394.546875 166.050000 394.546875 167.469231 394.546875 168.888462 394.546875 170.307692 394.546875 171.726923 394.546875 173.146154 394.546875 174.565385 394.546875 175.984615 394.546875 177.403846 394.546875 178.823077 394.546875 180.242308 394.546875 181.661538 394.546875 183.080769 394.546875 184.500000 394.546875 185.919231 394.546875 187.338462 394.546875 188.757692 394.546875 190.176923 394.546875 191.596154 394.546875 193.015385 394.546875 194.434615 394.546875 195.853846 394.546875 197.273077 394.546875 198.692308 394.546875 200.111538 394.546875 201.530769 394.546875 202.950000 394.546875 204.369231 394.546875 205.788462 394.546875 207.207692 394.546875 208.626923 394.546875 210.046154 394.546875 211.465385 394.546875 212.884615 394.546875 214.303846 394.546875 215.723077 394.546875 217.142308 394.546875 218.561538 394.546875 219.980769 394.546875 221.400000 394.546875 222.819231 394.546875 224.238462 394.546875 225.657692 394.546875 227.076923 394.546875 228.496154 394.546875 229.915385 394.546875 231.334615 394.546875 232.753846 394.546875 234.173077 394.546875 235.592308 394.546875 237.011538 394.546875 238.430769 394.546875 239.850000 394.546875 241.269231 394.546875 242.688462 394.546875 244.107692 394.546875 245.526923 394.546875 246.946154 394.546875 248.365385 394.546875 249.784615 394.546875 251.203846 394.546875 252.623077 394.546875 254.042308 401.202524 255.461538 401.202524 256.880769 401.202524 258.300000 401.202524 259.719231 401.202524 261.138462 401.202524 262.557692 401.202524 263.976923 401.202524 265.396154 401.202524 266.815385 401.202524 268.234615 401.202524 269.653846 401.202524 271.073077 401.202524 272.492308 401.202524 273.911538 401.202524 275.330769 401.202524 276.750000 401.202524 278.169231 401.202524 279.588462 401.202524 281.007692 401.202524 282.426923 401.202524 283.846154 401.202524 285.265385 401.202524 286.684615 401.202524 288.103846 401.202524 289.523077 401.202524 290.942308 401.202524 292.361538 401.202524 293.780769 401.202524 295.200000 401.202524 296.619231 401.202524 298.038462 401.202524 299.457692 401.202524 300.876923 401.202524 302.296154 401.202524 303.715385 407.858173 305.134615 407.858173 306.553846 407.858173 307.973077 407.858173 309.392308 407.858173 310.811538 407.858173 312.230769 407.858173 313.650000 407.858173 315.069231 407.858173 316.488462 414.513822 317.907692 414.513822 319.326923 414.513822 320.746154 414.513822 322.165385 414.513822 323.584615 414.513822 325.003846 414.513822 326.423077 414.513822 327.842308 414.513822 329.261538 414.513822 330.680769 414.513822 332.100000 414.513822 333.519231 414.513822 334.938462 414.513822 336.357692 414.513822 337.776923 414.513822 339.196154 414.513822 340.615385 414.513822 342.034615 414.513822 343.453846 414.513822 344.873077 414.513822 346.292308 414.513822 347.711538 414.513822 349.130769 414.513822 350.550000 414.513822 351.969231 414.513822 353.388462 414.513822 354.807692 421.169471 356.226923 421.169471 357.646154 421.169471 359.065385 421.169471 360.484615 421.169471 361.903846 421.169471 363.323077 421.169471 364.742308 421.169471 366.161538 421.169471 367.580769 421.169471 369.000000 421.169471 370.419231 421.169471 371.838462 421.169471 373.257692 421.169471 374.676923 421.169471 376.096154 421.169471 377.515385 421.169471 378.934615 421.169471 380.353846 421.169471 381.773077 421.169471 383.192308 421.169471 384.611538 421.169471 386.030769 421.169471 387.450000 421.169471 388.869231 421.169471 390.288462 421.169471 391.707692 421.169471 393.126923 421.169471 394.546154 421.169471 395.965385 421.169471 397.384615 421.169471 398.803846 421.169471 400.223077 421.169471 401.642308 421.169471 403.061538 421.169471 404.480769 421.169471 405.900000 421.169471 407.319231 421.169471 408.738462 421.169471 410.157692 421.169471 411.576923 421.169471 412.996154 421.169471 414.415385 421.169471 415.834615 421.169471 417.253846 421.169471 418.673077 421.169471 420.092308 421.169471 421.511538 421.169471 422.930769 421.169471 424.350000 421.169471 425.769231 421.169471 427.188462 421.169471 428.607692 421.169471 430.026923 421.169471 431.446154 421.169471 432.865385 421.169471 434.284615 421.169471 435.703846 421.169471 437.123077 421.169471 438.542308 421.169471 439.961538 421.169471 441.380769 421.169471 442.800000 421.169471 444.219231 421.169471 445.638462 421.169471 447.057692 427.825120 448.476923 427.825120 449.896154 427.825120 451.315385 427.825120 452.734615 427.825120 454.153846 427.825120 455.573077 427.825120 456.992308 427.825120 458.411538 427.825120 459.830769 427.825120 461.250000 427.825120 462.669231 427.825120 464.088462 427.825120 465.507692 427.825120 466.926923 427.825120 468.346154 427.825120 469.765385 427.825120 471.184615 427.825120 472.603846 427.825120 474.023077 427.825120 475.442308 427.825120 476.861538 427.825120 478.280769 427.825120 479.700000 427.825120 481.119231 427.825120 482.538462 427.825120 483.957692 427.825120 485.376923 427.825120 486.796154 427.825120 488.215385 427.825120 489.634615 427.825120 491.053846 427.825120 492.473077 427.825120 493.892308 427.825120 495.311538 427.825120 496.730769 427.825120 498.150000 427.825120 499.569231 427.825120 500.988462 427.825120 502.407692 427.825120 503.826923 427.825120 505.246154 427.825120 506.665385 427.825120 508.084615 427.825120 509.503846 427.825120 510.923077 427.825120 512.342308 427.825120 513.761538 427.825120 515.180769 427.825120 516.600000 427.825120 518.019231 427.825120 519.438462 427.825120 520.857692 427.825120 522.276923 427.825120 523.696154 427.825120 525.115385 427.825120 526.534615 427.825120 527.953846 427.825120 529.373077 427.825120 530.792308 427.825120 532.211538 427.825120 533.630769 427.825120 535.050000 427.825120 536.469231 427.825120 537.888462 427.825120 539.307692 427.825120 540.726923 427.825120 542.146154 427.825120 543.565385 427.825120 544.984615 427.825120 546.403846 427.825120 547.823077 427.825120 549.242308 427.825120 550.661538 427.825120 552.080769 427.825120 553.500000 427.825120 554.919231 427.825120 556.338462 427.825120 557.757692 427.825120 559.176923 427.825120 560.596154 427.825120 562.015385 427.825120 563.434615 427.825120 564.853846 427.825120 566.273077 427.825120 567.692308 427.825120 569.111538 427.825120 570.530769 427.825120 571.950000 427.825120 573.369231 427.825120 574.788462 427.825120 576.207692 427.825120 577.626923 427.825120 579.046154 427.825120 580.465385 427.825120 581.884615 427.825120 583.303846 427.825120 584.723077 427.825120 586.142308 427.825120 587.561538 427.825120 588.980769 427.825120 590.400000 427.825120 591.819231 427.825120 593.238462 427.825120 594.657692 427.825120 596.076923 427.825120 597.496154 427.825120 598.915385 427.825120 600.334615 427.825120 601.753846 427.825120 603.173077 427.825120 604.592308 427.825120 606.011538 427.825120 607.430769 427.825120 608.850000 434.480769 610.269231 434.480769 611.688462 434.480769 613.107692 434.480769 614.526923 434.480769 615.946154 434.480769 617.365385 434.480769 618.784615 434.480769 620.203846 434.480769 621.623077 434.480769 623.042308 434.480769 624.461538 434.480769 625.880769 434.480769 627.300000 434.480769 628.719231 434.480769 630.138462 434.480769 631.557692 434.480769 632.976923 434.480769 634.396154 434.480769 635.815385 434.480769 637.234615 434.480769 638.653846 434.480769 640.073077 434.480769 641.492308 434.480769 642.911538 434.480769 644.330769 434.480769 645.750000 434.480769 647.169231 434.480769 648.588462 434.480769 650.007692 434.480769 651.426923 434.480769 652.846154 434.480769 654.265385 434.480769 655.684615 434.480769 657.103846 434.480769 658.523077 434.480769 659.942308 434.480769 661.361538 434.480769 662.780769 434.480769 664.200000 434.480769 665.619231 434.480769 667.038462 434.480769 668.457692 434.480769 669.876923 434.480769 671.296154 434.480769 672.715385 434.480769 674.134615 434.480769 675.553846 434.480769 676.973077 434.480769 678.392308 434.480769 679.811538 434.480769 681.230769 434.480769 682.650000 434.480769 684.069231 434.480769 685.488462 434.480769 686.907692 434.480769 688.326923 434.480769 689.746154 434.480769 691.165385 434.480769 692.584615 434.480769 694.003846 434.480769 695.423077 434.480769 696.842308 434.480769 698.261538 434.480769 699.680769 434.480769 701.100000 434.480769 702.519231 434.480769 703.938462 434.480769 705.357692 434.480769 706.776923 434.480769 708.196154 434.480769 709.615385 434.480769 711.034615 434.480769 712.453846 434.480769 713.873077 434.480769 715.292308 434.480769 716.711538 434.480769 718.130769 434.480769 719.550000 434.480769 720.969231 434.480769 722.388462 434.480769 723.807692 434.480769 723.807692 443.000000"/></g></g><g class="titles"><text class="title plot_title" x="400.0" y="26">Genome diversity in asexual population over 500 generations (Autogamy). </text><text class="title plot_title" x="400.0" y="52"> Quantity of original genes from the first generation in population </text></g><g class="plot overlay" transform="translate(42, 72)"><g class="series serie-0 color-0"/><g class="series serie-1 color-1"/></g><g class="plot text-overlay" transform="translate(42, 72)"><g class="series serie-0 color-0"/><g class="series serie-1 color-1"/></g><g class="plot tooltip-overlay" transform="translate(42, 72)"><g class="tooltip" style="opacity: 0" transform="translate(0 0)"><rect class="tooltip-box" height="0" rx="0" ry="0" width="0"/><g class="text"/></g></g><g class="legends" transform="translate(52, 545)"><g class="legend reactive activate-serie" id="activate-serie-0"><rect class="color-0 reactive" height="12" width="12" x="0.0" y="1.0"/><text x="17.0" y="11.2">Population size</text></g><g class="legend reactive activate-serie" id="activate-serie-1"><rect class="color-1 reactive" height="12" width="12" x="369.0" y="1.0"/><text x="386.0" y="11.2">Diversity</text></g></g></g></svg>