<?xml version='1.0' encoding='utf-8'?>
<svg xmlns:xlink="http://www.w3.org/1999/xlink" xmlns="http://www.w3.org/2000/svg" id="chart-cc45c0bd-ffca-4793-95f0-3b8b9e082999" class="pygal-chart" viewBox="0 0 800 600"><!--Generated with pygal 2.4.0 (lxml) ©Kozea 2012-2016 on 2019-01-06--><!--http://pygal.org--><!--http://github.com/Kozea/pygal--><defs><style type="text/css">#chart-cc45c0bd-ffca-4793-95f0-3b8b9e082999{-webkit-user-select:none;-webkit-font-smoothing:antialiased;font-family:Consolas,"Liberation Mono",Menlo,Courier,monospace}#chart-cc45c0bd-ffca-4793-95f0-3b8b9e082999 .title{font-family:Consolas,"Liberation Mono",Menlo,Courier,monospace;font-size:16px}#chart-cc45c0bd-ffca-4793-95f0-3b8b9e082999 .legends .legend text{font-family:Consolas,"Liberation Mono",Menlo,Courier,monospace;font-size:14px}#chart-cc45c0bd-ffca-4793-95f0-3b8b9e082999 .axis text{font-family:Consolas,"Liberation Mono",Menlo,Courier,monospace;font-size:10px}#chart-cc45c0bd-ffca-4793-95f0-3b8b9e082999 .axis text.major{font-family:Consolas,"Liberation Mono",Menlo,Courier,monospace;font-size:10px}#chart-cc45c0bd-ffca-4793-95f0-3b8b9e082999 .text-overlay text.value{font-family:Consolas,"Liberation Mono",Menlo,Courier,monospace;font-size:16px}#chart-cc45c0bd-ffca-4793-95f0-3b8b9e082999 .text-overlay text.label{font-family:Consolas,"Liberation Mono",Menlo,Courier,monospace;font-size:10px}#chart-cc45c0bd-ffca-4793-95f0-3b8b9e082999 .tooltip{font-family:Consolas,"Liberation Mono",Menlo,Courier,monospace;font-size:14px}#chart-cc45c0bd-ffca-4793-95f0-3b8b9e082999 text.no_data{font-family:Consolas,"Liberation Mono",Menlo,Courier,monospace;font-size:64px}
#chart-cc45c0bd-ffca-4793-95f0-3b8b9e082999{background-color:black}#chart-cc45c0bd-ffca-4793-95f0-3b8b9e082999 path,#chart-cc45c0bd-ffca-4793-95f0-3b8b9e082999 line,#chart-cc45c0bd-ffca-4793-95f0-3b8b9e082999 rect,#chart-cc45c0bd-ffca-4793-95f0-3b8b9e082999 circle{-webkit-transition:250ms;-moz-transition:250ms;transition:250ms}#chart-cc45c0bd-ffca-4793-95f0-3b8b9e082999 .graph &gt; .background{fill:black}#chart-cc45c0bd-ffca-4793-95f0-3b8b9e082999 .plot &gt; .background{fill:#111}#chart-cc45c0bd-ffca-4793-95f0-3b8b9e082999 .graph{fill:#999}#chart-cc45c0bd-ffca-4793-95f0-3b8b9e082999 text.no_data{fill:#eee}#chart-cc45c0bd-ffca-4793-95f0-3b8b9e082999 .title{fill:#eee}#chart-cc45c0bd-ffca-4793-95f0-3b8b9e082999 .legends .legend text{fill:#999}#chart-cc45c0bd-ffca-4793-95f0-3b8b9e082999 .legends .legend:hover text{fill:#eee}#chart-cc45c0bd-ffca-4793-95f0-3b8b9e082999 .axis .line{stroke:#eee}#chart-cc45c0bd-ffca-4793-95f0-3b8b9e082999 .axis .guide.line{stroke:#555}#chart-cc45c0bd-ffca-4793-95f0-3b8b9e082999 .axis .major.line{stroke:#999}#chart-cc45c0bd-ffca-4793-95f0-3b8b9e082999 .axis text.major{fill:#eee}#chart-cc45c0bd-ffca-4793-95f0-3b8b9e082999 .axis.y .guides:hover .guide.line,#chart-cc45c0bd-ffca-4793-95f0-3b8b9e082999 .line-graph .axis.x .guides:hover .guide.line,#chart-cc45c0bd-ffca-4793-95f0-3b8b9e082999 .stackedline-graph .axis.x .guides:hover .guide.line,#chart-cc45c0bd-ffca-4793-95f0-3b8b9e082999 .xy-graph .axis.x .guides:hover .guide.line{stroke:#eee}#chart-cc45c0bd-ffca-4793-95f0-3b8b9e082999 .axis .guides:hover text{fill:#eee}#chart-cc45c0bd-ffca-4793-95f0-3b8b9e082999 .reactive{fill-opacity:.8;stroke-opacity:.8}#chart-cc45c0bd-ffca-4793-95f0-3b8b9e082999 .ci{stroke:#999}#chart-cc45c0bd-ffca-4793-95f0-3b8b9e082999 .reactive.active,#chart-cc45c0bd-ffca-4793-95f0-3b8b9e082999 .active .reactive{fill-opacity:.4;stroke-opacity:.9;stroke-width:4}#chart-cc45c0bd-ffca-4793-95f0-3b8b9e082999 .ci .reactive.active{stroke-width:1.5}#chart-cc45c0bd-ffca-4793-95f0-3b8b9e082999 .series text{fill:#eee}#chart-cc45c0bd-ffca-4793-95f0-3b8b9e082999 .tooltip rect{fill:#111;stroke:#eee;-webkit-transition:opacity 250ms;-moz-transition:opacity 250ms;transition:opacity 250ms}#chart-cc45c0bd-ffca-4793-95f0-3b8b9e082999 .tooltip .label{fill:#999}#chart-cc45c0bd-ffca-4793-95f0-3b8b9e082999 .tooltip .label{fill:#999}#chart-cc45c0bd-ffca-4793-95f0-3b8b9e082999 .tooltip .legend{font-size:.8em;fill:#555}#chart-cc45c0bd-ffca-4793-95f0-3b8b9e082999 .tooltip .x_label{font-size:.6em;fill:#eee}#chart-cc45c0bd-ffca-4793-95f0-3b8b9e082999 .tooltip .xlink{font-size:.5em;text-decoration:underline}#chart-cc45c0bd-ffca-4793-95f0-3b8b9e082999 .tooltip .value{font-size:1.5em}#chart-cc45c0bd-ffca-4793-95f0-3b8b9e082999 .bound{font-size:.5em}#chart-cc45c0bd-ffca-4793-95f0-3b8b9e082999 .max-value{font-size:.75em;fill:#555}#chart-cc45c0bd-ffca-4793-95f0-3b8b9e082999 .map-element{fill:#111;stroke:#555 !important}#chart-cc45c0bd-ffca-4793-95f0-3b8b9e082999 .map-element .reactive{fill-opacity:inherit;stroke-opacity:inherit}#chart-cc45c0bd-ffca-4793-95f0-3b8b9e082999 .color-0,#chart-cc45c0bd-ffca-4793-95f0-3b8b9e082999 .color-0 a:visited{stroke:#ff5995;fill:#ff5995}#chart-cc45c0bd-ffca-4793-95f0-3b8b9e082999 .color-1,#chart-cc45c0bd-ffca-4793-95f0-3b8b9e082999 .color-1 a:visited{stroke:#b6e354;fill:#b6e354}#chart-cc45c0bd-ffca-4793-95f0-3b8b9e082999 .text-overlay .color-0 text{fill:black}#chart-cc45c0bd-ffca-4793-95f0-3b8b9e082999 .text-overlay .color-1 text{fill:black}
#chart-cc45c0bd-ffca-4793-95f0-3b8b9e082999 text.no_data{text-anchor:middle}#chart-cc45c0bd-ffca-4793-95f0-3b8b9e082999 .guide.line{fill:none}#chart-cc45c0bd-ffca-4793-95f0-3b8b9e082999 .centered{text-anchor:middle}#chart-cc45c0bd-ffca-4793-95f0-3b8b9e082999 .title{text-anchor:middle}#chart-cc45c0bd-ffca-4793-95f0-3b8b9e082999 .legends .legend text{fill-opacity:1}#chart-cc45c0bd-ffca-4793-95f0-3b8b9e082999 .axis.x text{text-anchor:middle}#chart-cc45c0bd-ffca-4793-95f0-3b8b9e082999 .axis.x:not(.web) text[transform]{text-anchor:start}#chart-cc45c0bd-ffca-4793-95f0-3b8b9e082999 .axis.x:not(.web) text[transform].backwards{text-anchor:end}#chart-cc45c0bd-ffca-4793-95f0-3b8b9e082999 .axis.y text{text-anchor:end}#chart-cc45c0bd-ffca-4793-95f0-3b8b9e082999 .axis.y text[transform].backwards{text-anchor:start}#chart-cc45c0bd-ffca-4793-95f0-3b8b9e082999 .axis.y2 text{text-anchor:start}#chart-cc45c0bd-ffca-4793-95f0-3b8b9e082999 .axis.y2 text[transform].backwards{text-anchor:end}#chart-cc45c0bd-ffca-4793-95f0-3b8b9e082999 .axis .guide.line{stroke-dasharray:4,4}#chart-cc45c0bd-ffca-4793-95f0-3b8b9e082999 .axis .major.guide.line{stroke-dasharray:6,6}#chart-cc45c0bd-ffca-4793-95f0-3b8b9e082999 .horizontal .axis.y .guide.line,#chart-cc45c0bd-ffca-4793-95f0-3b8b9e082999 .horizontal .axis.y2 .guide.line,#chart-cc45c0bd-ffca-4793-95f0-3b8b9e082999 .vertical .axis.x .guide.line{opacity:0}#chart-cc45c0bd-ffca-4793-95f0-3b8b9e082999 .horizontal .axis.always_show .guide.line,#chart-cc45c0bd-ffca-4793-95f0-3b8b9e082999 .vertical .axis.always_show .guide.line{opacity:1 !important}#chart-cc45c0bd-ffca-4793-95f0-3b8b9e082999 .axis.y .guides:hover .guide.line,#chart-cc45c0bd-ffca-4793-95f0-3b8b9e082999 .axis.y2 .guides:hover .guide.line,#chart-cc45c0bd-ffca-4793-95f0-3b8b9e082999 .axis.x .guides:hover .guide.line{opacity:1}#chart-cc45c0bd-ffca-4793-95f0-3b8b9e082999 .axis .guides:hover text{opacity:1}#chart-cc45c0bd-ffca-4793-95f0-3b8b9e082999 .nofill{fill:none}#chart-cc45c0bd-ffca-4793-95f0-3b8b9e082999 .subtle-fill{fill-opacity:.2}#chart-cc45c0bd-ffca-4793-95f0-3b8b9e082999 .dot{stroke-width:1px;fill-opacity:1}#chart-cc45c0bd-ffca-4793-95f0-3b8b9e082999 .dot.active{stroke-width:5px}#chart-cc45c0bd-ffca-4793-95f0-3b8b9e082999 .dot.negative{fill:transparent}#chart-cc45c0bd-ffca-4793-95f0-3b8b9e082999 text,#chart-cc45c0bd-ffca-4793-95f0-3b8b9e082999 tspan{stroke:none !important}#chart-cc45c0bd-ffca-4793-95f0-3b8b9e082999 .series text.active{opacity:1}#chart-cc45c0bd-ffca-4793-95f0-3b8b9e082999 .tooltip rect{fill-opacity:.95;stroke-width:.5}#chart-cc45c0bd-ffca-4793-95f0-3b8b9e082999 .tooltip text{fill-opacity:1}#chart-cc45c0bd-ffca-4793-95f0-3b8b9e082999 .showable{visibility:hidden}#chart-cc45c0bd-ffca-4793-95f0-3b8b9e082999 .showable.shown{visibility:visible}#chart-cc45c0bd-ffca-4793-95f0-3b8b9e082999 .gauge-background{fill:rgba(229,229,229,1);stroke:none}#chart-cc45c0bd-ffca-4793-95f0-3b8b9e082999 .bg-lines{stroke:black;stroke-width:2px}</style><script type="text/javascript">window.pygal = window.pygal || {};window.pygal.config = window.pygal.config || {};window.pygal.config['cc45c0bd-ffca-4793-95f0-3b8b9e082999'] = {"allow_interruptions": false, "box_mode": "extremes", "classes": ["pygal-chart"], "css": ["file://style.css", "file://graph.css"], "defs": [], "disable_xml_declaration": false, "dots_size": 2.5, "dynamic_print_values": false, "explicit_size": false, "fill": true, "force_uri_protocol": "https", "formatter": null, "half_pie": false, "height": 600, "include_x_axis": false, "inner_radius": 0, "interpolate": null, "interpolation_parameters": {}, "interpolation_precision": 250, "inverse_y_axis": false, "js": ["//kozea.github.io/pygal.js/2.0.x/pygal-tooltips.min.js"], "legend_at_bottom": true, "legend_at_bottom_columns": null, "legend_box_size": 12, "logarithmic": false, "margin": 20, "margin_bottom": null, "margin_left": null, "margin_right": null, "margin_top": null, "max_scale": 16, "min_scale": 4, "missing_value_fill_truncation": "x", "no_data_text": "No data", "no_prefix": false, "order_min": null, "pretty_print": false, "print_labels": false, "print_values": false, "print_values_position": "center", "print_zeroes": true, "range": null, "rounded_bars": null, "secondary_range": null, "show_dots": false, "show_legend": true, "show_minor_x_labels": true, "show_minor_y_labels": true, "show_only_major_dots": false, "show_x_guides": false, "show_x_labels": true, "show_y_guides": true, "show_y_labels": true, "spacing": 10, "stack_from_top": false, "strict": false, "stroke": true, "stroke_style": null, "style": {"background": "black", "ci_colors": [], "colors": ["#ff5995", "#b6e354", "#feed6c", "#8cedff", "#9e6ffe", "#899ca1", "#f8f8f2", "#bf4646", "#516083", "#f92672", "#82b414", "#fd971f", "#56c2d6", "#808384", "#8c54fe", "#465457"], "font_family": "Consolas, \"Liberation Mono\", Menlo, Courier, monospace", "foreground": "#999", "foreground_strong": "#eee", "foreground_subtle": "#555", "guide_stroke_dasharray": "4,4", "label_font_family": "Consolas, \"Liberation Mono\", Menlo, Courier, monospace", "label_font_size": 10, "legend_font_family": "Consolas, \"Liberation Mono\", Menlo, Courier, monospace", "legend_font_size": 14, "major_guide_stroke_dasharray": "6,6", "major_label_font_family": "Consolas, \"Liberation Mono\", Menlo, Courier, monospace", "major_label_font_size": 10, "no_data_font_family": "Consolas, \"Liberation Mono\", Menlo, Courier, monospace", "no_data_font_size": 64, "opacity": ".8", "opacity_hover": ".4", "plot_background": "#111", "stroke_opacity": ".8", "stroke_opacity_hover": ".9", "title_font_family": "Consolas, \"Liberation Mono\", Menlo, Courier, monospace", "title_font_size": 16, "tooltip_font_family": "Consolas, \"Liberation Mono\", Menlo, Courier, monospace", "tooltip_font_size": 14, "transition": "250ms", "value_background": "rgba(229, 229, 229, 1)", "value_colors": [], "value_font_family": "Consolas, \"Liberation Mono\", Menlo, Courier, monospace", "value_font_size": 16, "value_label_font_family": "Consolas, \"Liberation Mono\", Menlo, Courier, monospace", "value_label_font_size": 10}, "title": "Genome diversity in asexual population over 500 generations (Autogamy). \n Quantity of original genes from the first generation in population ", "tooltip_border_radius": 0, "tooltip_fancy_mode": true, "truncate_label": null, "truncate_legend": null, "width": 800, "x_label_rotation": 0, "x_labels": null, "x_labels_major": null, "x_labels_major_count": null, "x_labels_major_every": null, "x_title": null, "xrange": null, "y_label_rotation": 0, "y_labels": null, "y_labels_major": null, "y_labels_major_count": null, "y_labels_major_every": null, "y_title": null, "zero": 0, "legends": ["Population size", "Diversity"]}</script><script type="text/javascript" xlink:href="https://kozea.github.io/pygal.js/2.0.x/pygal-tooltips.min.js"/></defs><title>Genome diversity in asexual population over 500 generations (Autogamy). 
 Quantity of original genes from the first generation in population </title><g class="graph xy-graph vertical"><rect class="background" height="600" width="800" x="0" y="0"/><g class="plot" transform="translate(42, 72)"><rect class="background" height="443.0" width="738.0" x="0" y="0"/><g class="axis y always_show"><path class="line" d="M0.000000 443.000000 h738.000000"/><g class="guides"><path class="guide line" d="M0.000000 380.390415 h738.000000"/><text class="" x="-5" y="383.89041514041514">10</text><title>10</title></g><g class="guides"><path class="guide line" d="M0.000000 312.777473 h738.000000"/><text class="" x="-5" y="316.2774725274726">20</text><title>20</title></g><g class="guides"><path class="guide line" d="M0.000000 245.164530 h738.000000"/><text class="" x="-5" y="248.66452991452994">30</text><title>30</title></g><g class="guides"><path class="guide line" d="M0.000000 177.551587 h738.000000"/><text class="" x="-5" y="181.05158730158735">40</text><title>40</title></g><g class="guides"><path class="major guide line" d="M0.000000 109.938645 h738.000000"/><text class="major" x="-5" y="113.43864468864473">50</text><title>50</title></g><g class="guides"><path class="guide line" d="M0.000000 42.325702 h738.000000"/><text class="" x="-5" y="45.82570207570211">60</text><title>60</title></g></g><g class="axis x"><g class="guides"><path class="axis line" d="M14.192308 0.000000 v443.000000"/><text class="" x="14.192307692307692" y="458.0">0</text><title>0</title></g><g class="guides"><path class="guide line" d="M156.115385 0.000000 v443.000000"/><text class="" x="156.1153846153846" y="458.0">100</text><title>100</title></g><g class="guides"><path class="guide line" d="M298.038462 0.000000 v443.000000"/><text class="" x="298.03846153846155" y="458.0">200</text><title>200</title></g><g class="guides"><path class="guide line" d="M439.961538 0.000000 v443.000000"/><text class="" x="439.96153846153845" y="458.0">300</text><title>300</title></g><g class="guides"><path class="guide line" d="M581.884615 0.000000 v443.000000"/><text class="" x="581.8846153846154" y="458.0">400</text><title>400</title></g><g class="guides"><path class="guide line" d="M723.807692 0.000000 v443.000000"/><text class="" x="723.8076923076923" y="458.0">500</text><title>500</title></g></g><g class="series serie-0 color-0"><path class="line reactive" d="M14.192308 443.000000 L14.192308 109.938645 15.611538 116.699939 17.030769 116.699939 18.450000 109.938645 19.869231 123.461233 21.288462 109.938645 22.707692 116.699939 24.126923 116.699939 25.546154 109.938645 26.965385 123.461233 28.384615 123.461233 29.803846 116.699939 31.223077 116.699939 32.642308 130.222527 34.061538 136.983822 35.480769 150.506410 36.900000 150.506410 38.319231 143.745116 39.738462 109.938645 41.157692 123.461233 42.576923 130.222527 43.996154 150.506410 45.415385 150.506410 46.834615 150.506410 48.253846 143.745116 49.673077 170.790293 51.092308 164.028999 52.511538 170.790293 53.930769 157.267705 55.350000 143.745116 56.769231 164.028999 58.188462 164.028999 59.607692 164.028999 61.026923 157.267705 62.446154 157.267705 63.865385 130.222527 65.284615 130.222527 66.703846 150.506410 68.123077 136.983822 69.542308 116.699939 70.961538 116.699939 72.380769 96.416056 73.800000 96.416056 75.219231 96.416056 76.638462 103.177350 78.057692 103.177350 79.476923 103.177350 80.896154 103.177350 82.315385 130.222527 83.734615 130.222527 85.153846 116.699939 86.573077 123.461233 87.992308 109.938645 89.411538 109.938645 90.830769 116.699939 92.250000 143.745116 93.669231 116.699939 95.088462 89.654762 96.507692 76.132173 97.926923 82.893468 99.346154 89.654762 100.765385 89.654762 102.184615 89.654762 103.603846 96.416056 105.023077 82.893468 106.442308 82.893468 107.861538 55.848291 109.280769 69.370879 110.700000 62.609585 112.119231 55.848291 113.538462 15.280525 114.957692 28.803114 116.376923 76.132173 117.796154 69.370879 119.215385 89.654762 120.634615 96.416056 122.053846 89.654762 123.473077 109.938645 124.892308 96.416056 126.311538 109.938645 127.730769 109.938645 129.150000 123.461233 130.569231 116.699939 131.988462 143.745116 133.407692 143.745116 134.826923 143.745116 136.246154 136.983822 137.665385 150.506410 139.084615 157.267705 140.503846 150.506410 141.923077 150.506410 143.342308 150.506410 144.761538 157.267705 146.180769 150.506410 147.600000 136.983822 149.019231 150.506410 150.438462 157.267705 151.857692 143.745116 153.276923 150.506410 154.696154 150.506410 156.115385 143.745116 157.534615 116.699939 158.953846 89.654762 160.373077 82.893468 161.792308 82.893468 163.211538 82.893468 164.630769 89.654762 166.050000 109.938645 167.469231 116.699939 168.888462 109.938645 170.307692 109.938645 171.726923 116.699939 173.146154 136.983822 174.565385 136.983822 175.984615 143.745116 177.403846 170.790293 178.823077 184.312882 180.242308 191.074176 181.661538 204.596764 183.080769 204.596764 184.500000 177.551587 185.919231 170.790293 187.338462 177.551587 188.757692 164.028999 190.176923 170.790293 191.596154 177.551587 193.015385 184.312882 194.434615 184.312882 195.853846 184.312882 197.273077 170.790293 198.692308 177.551587 200.111538 177.551587 201.530769 177.551587 202.950000 164.028999 204.369231 164.028999 205.788462 157.267705 207.207692 164.028999 208.626923 164.028999 210.046154 177.551587 211.465385 191.074176 212.884615 177.551587 214.303846 170.790293 215.723077 170.790293 217.142308 177.551587 218.561538 184.312882 219.980769 191.074176 221.400000 184.312882 222.819231 191.074176 224.238462 170.790293 225.657692 177.551587 227.076923 191.074176 228.496154 191.074176 229.915385 184.312882 231.334615 184.312882 232.753846 191.074176 234.173077 191.074176 235.592308 197.835470 237.011538 191.074176 238.430769 177.551587 239.850000 177.551587 241.269231 164.028999 242.688462 157.267705 244.107692 143.745116 245.526923 150.506410 246.946154 164.028999 248.365385 157.267705 249.784615 150.506410 251.203846 164.028999 252.623077 157.267705 254.042308 150.506410 255.461538 170.790293 256.880769 177.551587 258.300000 204.596764 259.719231 197.835470 261.138462 211.358059 262.557692 211.358059 263.976923 211.358059 265.396154 211.358059 266.815385 218.119353 268.234615 218.119353 269.653846 238.403236 271.073077 238.403236 272.492308 238.403236 273.911538 251.925824 275.330769 251.925824 276.750000 251.925824 278.169231 251.925824 279.588462 238.403236 281.007692 251.925824 282.426923 251.925824 283.846154 258.687118 285.265385 245.164530 286.684615 231.641941 288.103846 224.880647 289.523077 224.880647 290.942308 204.596764 292.361538 218.119353 293.780769 238.403236 295.200000 238.403236 296.619231 231.641941 298.038462 211.358059 299.457692 224.880647 300.876923 211.358059 302.296154 197.835470 303.715385 177.551587 305.134615 170.790293 306.553846 191.074176 307.973077 150.506410 309.392308 150.506410 310.811538 157.267705 312.230769 164.028999 313.650000 143.745116 315.069231 116.699939 316.488462 116.699939 317.907692 76.132173 319.326923 103.177350 320.746154 109.938645 322.165385 116.699939 323.584615 123.461233 325.003846 109.938645 326.423077 136.983822 327.842308 150.506410 329.261538 123.461233 330.680769 136.983822 332.100000 103.177350 333.519231 109.938645 334.938462 116.699939 336.357692 130.222527 337.776923 109.938645 339.196154 123.461233 340.615385 116.699939 342.034615 109.938645 343.453846 136.983822 344.873077 130.222527 346.292308 143.745116 347.711538 136.983822 349.130769 150.506410 350.550000 157.267705 351.969231 197.835470 353.388462 197.835470 354.807692 197.835470 356.226923 184.312882 357.646154 191.074176 359.065385 191.074176 360.484615 170.790293 361.903846 157.267705 363.323077 164.028999 364.742308 150.506410 366.161538 170.790293 367.580769 184.312882 369.000000 184.312882 370.419231 150.506410 371.838462 150.506410 373.257692 157.267705 374.676923 136.983822 376.096154 136.983822 377.515385 116.699939 378.934615 96.416056 380.353846 89.654762 381.773077 89.654762 383.192308 76.132173 384.611538 82.893468 386.030769 62.609585 387.450000 55.848291 388.869231 42.325702 390.288462 55.848291 391.707692 49.086996 393.126923 62.609585 394.546154 69.370879 395.965385 89.654762 397.384615 103.177350 398.803846 103.177350 400.223077 109.938645 401.642308 109.938645 403.061538 109.938645 404.480769 96.416056 405.900000 89.654762 407.319231 69.370879 408.738462 82.893468 410.157692 62.609585 411.576923 69.370879 412.996154 55.848291 414.415385 62.609585 415.834615 76.132173 417.253846 55.848291 418.673077 69.370879 420.092308 69.370879 421.511538 69.370879 422.930769 82.893468 424.350000 103.177350 425.769231 123.461233 427.188462 103.177350 428.607692 123.461233 430.026923 103.177350 431.446154 89.654762 432.865385 96.416056 434.284615 89.654762 435.703846 76.132173 437.123077 76.132173 438.542308 69.370879 439.961538 69.370879 441.380769 69.370879 442.800000 62.609585 444.219231 62.609585 445.638462 62.609585 447.057692 55.848291 448.476923 76.132173 449.896154 69.370879 451.315385 49.086996 452.734615 49.086996 454.153846 49.086996 455.573077 55.848291 456.992308 55.848291 458.411538 22.041819 459.830769 8.519231 461.250000 22.041819 462.669231 35.564408 464.088462 55.848291 465.507692 55.848291 466.926923 103.177350 468.346154 96.416056 469.765385 42.325702 471.184615 42.325702 472.603846 28.803114 474.023077 42.325702 475.442308 62.609585 476.861538 55.848291 478.280769 55.848291 479.700000 42.325702 481.119231 49.086996 482.538462 55.848291 483.957692 62.609585 485.376923 55.848291 486.796154 62.609585 488.215385 76.132173 489.634615 76.132173 491.053846 82.893468 492.473077 82.893468 493.892308 96.416056 495.311538 109.938645 496.730769 136.983822 498.150000 143.745116 499.569231 157.267705 500.988462 177.551587 502.407692 157.267705 503.826923 170.790293 505.246154 177.551587 506.665385 197.835470 508.084615 184.312882 509.503846 164.028999 510.923077 157.267705 512.342308 136.983822 513.761538 143.745116 515.180769 177.551587 516.600000 157.267705 518.019231 184.312882 519.438462 170.790293 520.857692 184.312882 522.276923 164.028999 523.696154 164.028999 525.115385 143.745116 526.534615 150.506410 527.953846 143.745116 529.373077 130.222527 530.792308 130.222527 532.211538 130.222527 533.630769 136.983822 535.050000 116.699939 536.469231 103.177350 537.888462 123.461233 539.307692 136.983822 540.726923 136.983822 542.146154 150.506410 543.565385 136.983822 544.984615 130.222527 546.403846 157.267705 547.823077 143.745116 549.242308 136.983822 550.661538 143.745116 552.080769 130.222527 553.500000 143.745116 554.919231 150.506410 556.338462 150.506410 557.757692 150.506410 559.176923 130.222527 560.596154 150.506410 562.015385 109.938645 563.434615 116.699939 564.853846 89.654762 566.273077 89.654762 567.692308 82.893468 569.111538 109.938645 570.530769 103.177350 571.950000 103.177350 573.369231 103.177350 574.788462 130.222527 576.207692 157.267705 577.626923 143.745116 579.046154 136.983822 580.465385 130.222527 581.884615 136.983822 583.303846 130.222527 584.723077 136.983822 586.142308 157.267705 587.561538 157.267705 588.980769 164.028999 590.400000 164.028999 591.819231 164.028999 593.238462 164.028999 594.657692 170.790293 596.076923 177.551587 597.496154 184.312882 598.915385 157.267705 600.334615 177.551587 601.753846 184.312882 603.173077 204.596764 604.592308 197.835470 606.011538 184.312882 607.430769 164.028999 608.850000 177.551587 610.269231 157.267705 611.688462 116.699939 613.107692 109.938645 614.526923 123.461233 615.946154 109.938645 617.365385 96.416056 618.784615 96.416056 620.203846 103.177350 621.623077 103.177350 623.042308 123.461233 624.461538 130.222527 625.880769 150.506410 627.300000 164.028999 628.719231 143.745116 630.138462 136.983822 631.557692 143.745116 632.976923 150.506410 634.396154 143.745116 635.815385 123.461233 637.234615 130.222527 638.653846 130.222527 640.073077 130.222527 641.492308 123.461233 642.911538 150.506410 644.330769 164.028999 645.750000 157.267705 647.169231 143.745116 648.588462 136.983822 650.007692 157.267705 651.426923 157.267705 652.846154 170.790293 654.265385 164.028999 655.684615 170.790293 657.103846 157.267705 658.523077 170.790293 659.942308 157.267705 661.361538 136.983822 662.780769 143.745116 664.200000 109.938645 665.619231 109.938645 667.038462 136.983822 668.457692 150.506410 669.876923 130.222527 671.296154 150.506410 672.715385 164.028999 674.134615 157.267705 675.553846 130.222527 676.973077 123.461233 678.392308 130.222527 679.811538 109.938645 681.230769 103.177350 682.650000 69.370879 684.069231 89.654762 685.488462 69.370879 686.907692 35.564408 688.326923 62.609585 689.746154 69.370879 691.165385 62.609585 692.584615 76.132173 694.003846 55.848291 695.423077 62.609585 696.842308 55.848291 698.261538 69.370879 699.680769 49.086996 701.100000 49.086996 702.519231 49.086996 703.938462 55.848291 705.357692 82.893468 706.776923 116.699939 708.196154 109.938645 709.615385 116.699939 711.034615 109.938645 712.453846 109.938645 713.873077 109.938645 715.292308 130.222527 716.711538 109.938645 718.130769 103.177350 719.550000 96.416056 720.969231 109.938645 722.388462 109.938645 723.807692 109.938645 723.807692 443.000000"/></g><g class="series serie-1 color-1"><path class="line reactive" d="M14.192308 443.000000 L14.192308 109.938645 15.611538 136.983822 17.030769 143.745116 18.450000 170.790293 19.869231 184.312882 21.288462 191.074176 22.707692 211.358059 24.126923 224.880647 25.546154 224.880647 26.965385 231.641941 28.384615 231.641941 29.803846 231.641941 31.223077 238.403236 32.642308 251.925824 34.061538 258.687118 35.480769 272.209707 36.900000 278.971001 38.319231 278.971001 39.738462 278.971001 41.157692 285.732295 42.576923 285.732295 43.996154 285.732295 45.415385 292.493590 46.834615 292.493590 48.253846 292.493590 49.673077 306.016178 51.092308 312.777473 52.511538 312.777473 53.930769 319.538767 55.350000 319.538767 56.769231 326.300061 58.188462 326.300061 59.607692 326.300061 61.026923 326.300061 62.446154 326.300061 63.865385 333.061355 65.284615 333.061355 66.703846 339.822650 68.123077 339.822650 69.542308 339.822650 70.961538 339.822650 72.380769 339.822650 73.800000 339.822650 75.219231 339.822650 76.638462 339.822650 78.057692 339.822650 79.476923 339.822650 80.896154 339.822650 82.315385 339.822650 83.734615 346.583944 85.153846 346.583944 86.573077 346.583944 87.992308 346.583944 89.411538 353.345238 90.830769 353.345238 92.250000 353.345238 93.669231 353.345238 95.088462 353.345238 96.507692 353.345238 97.926923 353.345238 99.346154 353.345238 100.765385 353.345238 102.184615 353.345238 103.603846 353.345238 105.023077 353.345238 106.442308 353.345238 107.861538 360.106532 109.280769 360.106532 110.700000 360.106532 112.119231 360.106532 113.538462 360.106532 114.957692 360.106532 116.376923 360.106532 117.796154 360.106532 119.215385 360.106532 120.634615 360.106532 122.053846 360.106532 123.473077 360.106532 124.892308 360.106532 126.311538 373.629121 127.730769 373.629121 129.150000 373.629121 130.569231 380.390415 131.988462 380.390415 133.407692 380.390415 134.826923 380.390415 136.246154 380.390415 137.665385 380.390415 139.084615 380.390415 140.503846 380.390415 141.923077 380.390415 143.342308 380.390415 144.761538 380.390415 146.180769 380.390415 147.600000 387.151709 149.019231 387.151709 150.438462 393.913004 151.857692 393.913004 153.276923 393.913004 154.696154 393.913004 156.115385 393.913004 157.534615 393.913004 158.953846 393.913004 160.373077 393.913004 161.792308 393.913004 163.211538 393.913004 164.630769 393.913004 166.050000 393.913004 167.469231 393.913004 168.888462 393.913004 170.307692 393.913004 171.726923 393.913004 173.146154 393.913004 174.565385 393.913004 175.984615 393.913004 177.403846 393.913004 178.823077 400.674298 180.242308 400.674298 181.661538 400.674298 183.080769 407.435592 184.500000 407.435592 185.919231 407.435592 187.338462 407.435592 188.757692 407.435592 190.176923 407.435592 191.596154 407.435592 193.015385 407.435592 194.434615 407.435592 195.853846 407.435592 197.273077 407.435592 198.692308 407.435592 200.111538 407.435592 201.530769 407.435592 202.950000 407.435592 204.369231 407.435592 205.788462 407.435592 207.207692 407.435592 208.626923 407.435592 210.046154 407.435592 211.465385 407.435592 212.884615 407.435592 214.303846 407.435592 215.723077 407.435592 217.142308 407.435592 218.561538 407.435592 219.980769 407.435592 221.400000 407.435592 222.819231 407.435592 224.238462 407.435592 225.657692 407.435592 227.076923 407.435592 228.496154 407.435592 229.915385 407.435592 231.334615 407.435592 232.753846 407.435592 234.173077 407.435592 235.592308 407.435592 237.011538 407.435592 238.430769 407.435592 239.850000 407.435592 241.269231 407.435592 242.688462 407.435592 244.107692 414.196886 245.526923 414.196886 246.946154 414.196886 248.365385 414.196886 249.784615 414.196886 251.203846 414.196886 252.623077 414.196886 254.042308 414.196886 255.461538 414.196886 256.880769 414.196886 258.300000 414.196886 259.719231 414.196886 261.138462 414.196886 262.557692 414.196886 263.976923 414.196886 265.396154 420.958181 266.815385 420.958181 268.234615 420.958181 269.653846 420.958181 271.073077 420.958181 272.492308 427.719475 273.911538 427.719475 275.330769 427.719475 276.750000 427.719475 278.169231 427.719475 279.588462 427.719475 281.007692 427.719475 282.426923 427.719475 283.846154 427.719475 285.265385 427.719475 286.684615 427.719475 288.103846 427.719475 289.523077 427.719475 290.942308 427.719475 292.361538 427.719475 293.780769 427.719475 295.200000 427.719475 296.619231 427.719475 298.038462 427.719475 299.457692 427.719475 300.876923 427.719475 302.296154 427.719475 303.715385 427.719475 305.134615 427.719475 306.553846 427.719475 307.973077 427.719475 309.392308 427.719475 310.811538 427.719475 312.230769 427.719475 313.650000 427.719475 315.069231 427.719475 316.488462 427.719475 317.907692 427.719475 319.326923 427.719475 320.746154 427.719475 322.165385 427.719475 323.584615 427.719475 325.003846 427.719475 326.423077 427.719475 327.842308 427.719475 329.261538 427.719475 330.680769 427.719475 332.100000 427.719475 333.519231 427.719475 334.938462 427.719475 336.357692 427.719475 337.776923 427.719475 339.196154 427.719475 340.615385 427.719475 342.034615 427.719475 343.453846 434.480769 344.873077 434.480769 346.292308 434.480769 347.711538 434.480769 349.130769 434.480769 350.550000 434.480769 351.969231 434.480769 353.388462 434.480769 354.807692 434.480769 356.226923 434.480769 357.646154 434.480769 359.065385 434.480769 360.484615 434.480769 361.903846 434.480769 363.323077 434.480769 364.742308 434.480769 366.161538 434.480769 367.580769 434.480769 369.000000 434.480769 370.419231 434.480769 371.838462 434.480769 373.257692 434.480769 374.676923 434.480769 376.096154 434.480769 377.515385 434.480769 378.934615 434.480769 380.353846 434.480769 381.773077 434.480769 383.192308 434.480769 384.611538 434.480769 386.030769 434.480769 387.450000 434.480769 388.869231 434.480769 390.288462 434.480769 391.707692 434.480769 393.126923 434.480769 394.546154 434.480769 395.965385 434.480769 397.384615 434.480769 398.803846 434.480769 400.223077 434.480769 401.642308 434.480769 403.061538 434.480769 404.480769 434.480769 405.900000 434.480769 407.319231 434.480769 408.738462 434.480769 410.157692 434.480769 411.576923 434.480769 412.996154 434.480769 414.415385 434.480769 415.834615 434.480769 417.253846 434.480769 418.673077 434.480769 420.092308 434.480769 421.511538 434.480769 422.930769 434.480769 424.350000 434.480769 425.769231 434.480769 427.188462 434.480769 428.607692 434.480769 430.026923 434.480769 431.446154 434.480769 432.865385 434.480769 434.284615 434.480769 435.703846 434.480769 437.123077 434.480769 438.542308 434.480769 439.961538 434.480769 441.380769 434.480769 442.800000 434.480769 444.219231 434.480769 445.638462 434.480769 447.057692 434.480769 448.476923 434.480769 449.896154 434.480769 451.315385 434.480769 452.734615 434.480769 454.153846 434.480769 455.573077 434.480769 456.992308 434.480769 458.411538 434.480769 459.830769 434.480769 461.250000 434.480769 462.669231 434.480769 464.088462 434.480769 465.507692 434.480769 466.926923 434.480769 468.346154 434.480769 469.765385 434.480769 471.184615 434.480769 472.603846 434.480769 474.023077 434.480769 475.442308 434.480769 476.861538 434.480769 478.280769 434.480769 479.700000 434.480769 481.119231 434.480769 482.538462 434.480769 483.957692 434.480769 485.376923 434.480769 486.796154 434.480769 488.215385 434.480769 489.634615 434.480769 491.053846 434.480769 492.473077 434.480769 493.892308 434.480769 495.311538 434.480769 496.730769 434.480769 498.150000 434.480769 499.569231 434.480769 500.988462 434.480769 502.407692 434.480769 503.826923 434.480769 505.246154 434.480769 506.665385 434.480769 508.084615 434.480769 509.503846 434.480769 510.923077 434.480769 512.342308 434.480769 513.761538 434.480769 515.180769 434.480769 516.600000 434.480769 518.019231 434.480769 519.438462 434.480769 520.857692 434.480769 522.276923 434.480769 523.696154 434.480769 525.115385 434.480769 526.534615 434.480769 527.953846 434.480769 529.373077 434.480769 530.792308 434.480769 532.211538 434.480769 533.630769 434.480769 535.050000 434.480769 536.469231 434.480769 537.888462 434.480769 539.307692 434.480769 540.726923 434.480769 542.146154 434.480769 543.565385 434.480769 544.984615 434.480769 546.403846 434.480769 547.823077 434.480769 549.242308 434.480769 550.661538 434.480769 552.080769 434.480769 553.500000 434.480769 554.919231 434.480769 556.338462 434.480769 557.757692 434.480769 559.176923 434.480769 560.596154 434.480769 562.015385 434.480769 563.434615 434.480769 564.853846 434.480769 566.273077 434.480769 567.692308 434.480769 569.111538 434.480769 570.530769 434.480769 571.950000 434.480769 573.369231 434.480769 574.788462 434.480769 576.207692 434.480769 577.626923 434.480769 579.046154 434.480769 580.465385 434.480769 581.884615 434.480769 583.303846 434.480769 584.723077 434.480769 586.142308 434.480769 587.561538 434.480769 588.980769 434.480769 590.400000 434.480769 591.819231 434.480769 593.238462 434.480769 594.657692 434.480769 596.076923 434.480769 597.496154 434.480769 598.915385 434.480769 600.334615 434.480769 601.753846 434.480769 603.173077 434.480769 604.592308 434.480769 606.011538 434.480769 607.430769 434.480769 608.850000 434.480769 610.269231 434.480769 611.688462 434.480769 613.107692 434.480769 614.526923 434.480769 615.946154 434.480769 617.365385 434.480769 618.784615 434.480769 620.203846 434.480769 621.623077 434.480769 623.042308 434.480769 624.461538 434.480769 625.880769 434.480769 627.300000 434.480769 628.719231 434.480769 630.138462 434.480769 631.557692 434.480769 632.976923 434.480769 634.396154 434.480769 635.815385 434.480769 637.234615 434.480769 638.653846 434.480769 640.073077 434.480769 641.492308 434.480769 642.911538 434.480769 644.330769 434.480769 645.750000 434.480769 647.169231 434.480769 648.588462 434.480769 650.007692 434.480769 651.426923 434.480769 652.846154 434.480769 654.265385 434.480769 655.684615 434.480769 657.103846 434.480769 658.523077 434.480769 659.942308 434.480769 661.361538 434.480769 662.780769 434.480769 664.200000 434.480769 665.619231 434.480769 667.038462 434.480769 668.457692 434.480769 669.876923 434.480769 671.296154 434.480769 672.715385 434.480769 674.134615 434.480769 675.553846 434.480769 676.973077 434.480769 678.392308 434.480769 679.811538 434.480769 681.230769 434.480769 682.650000 434.480769 684.069231 434.480769 685.488462 434.480769 686.907692 434.480769 688.326923 434.480769 689.746154 434.480769 691.165385 434.480769 692.584615 434.480769 694.003846 434.480769 695.423077 434.480769 696.842308 434.480769 698.261538 434.480769 699.680769 434.480769 701.100000 434.480769 702.519231 434.480769 703.938462 434.480769 705.357692 434.480769 706.776923 434.480769 708.196154 434.480769 709.615385 434.480769 711.034615 434.480769 712.453846 434.480769 713.873077 434.480769 715.292308 434.480769 716.711538 434.480769 718.130769 434.480769 719.550000 434.480769 720.969231 434.480769 722.388462 434.480769 723.807692 434.480769 723.807692 443.000000"/></g></g><g class="titles"><text class="title plot_title" x="400.0" y="26">Genome diversity in asexual population over 500 generations (Autogamy). </text><text class="title plot_title" x="400.0" y="52"> Quantity of original genes from the first generation in population </text></g><g class="plot overlay" transform="translate(42, 72)"><g class="series serie-0 color-0"/><g class="series serie-1 color-1"/></g><g class="plot text-overlay" transform="translate(42, 72)"><g class="series serie-0 color-0"/><g class="series serie-1 color-1"/></g><g class="plot tooltip-overlay" transform="translate(42, 72)"><g class="tooltip" style="opacity: 0" transform="translate(0 0)"><rect class="tooltip-box" height="0" rx="0" ry="0" width="0"/><g class="text"/></g></g><g class="legends" transform="translate(52, 545)"><g class="legend reactive activate-serie" id="activate-serie-0"><rect class="color-0 reactive" height="12" width="12" x="0.0" y="1.0"/><text x="17.0" y="11.2">Population size</text></g><g class="legend reactive activate-serie" id="activate-serie-1"><rect class="color-1 reactive" height="12" width="12" x="369.0" y="1.0"/><text x="386.0" y="11.2">Diversity</text></g></g></g></svg>