<?xml version='1.0' encoding='utf-8'?>
<svg xmlns:xlink="http://www.w3.org/1999/xlink" xmlns="http://www.w3.org/2000/svg" id="chart-08d1ff2a-a6e2-4dc7-8f5a-1a4900338f3e" class="pygal-chart" viewBox="0 0 800 600"><!--Generated with pygal 2.4.0 (lxml) ©Kozea 2012-2016 on 2019-01-08--><!--http://pygal.org--><!--http://github.com/Kozea/pygal--><defs><style type="text/css">#chart-08d1ff2a-a6e2-4dc7-8f5a-1a4900338f3e{-webkit-user-select:none;-webkit-font-smoothing:antialiased;font-family:Consolas,"Liberation Mono",Menlo,Courier,monospace}#chart-08d1ff2a-a6e2-4dc7-8f5a-1a4900338f3e .title{font-family:Consolas,"Liberation Mono",Menlo,Courier,monospace;font-size:16px}#chart-08d1ff2a-a6e2-4dc7-8f5a-1a4900338f3e .legends .legend text{font-family:Consolas,"Liberation Mono",Menlo,Courier,monospace;font-size:14px}#chart-08d1ff2a-a6e2-4dc7-8f5a-1a4900338f3e .axis text{font-family:Consolas,"Liberation Mono",Menlo,Courier,monospace;font-size:10px}#chart-08d1ff2a-a6e2-4dc7-8f5a-1a4900338f3e .axis text.major{font-family:Consolas,"Liberation Mono",Menlo,Courier,monospace;font-size:10px}#chart-08d1ff2a-a6e2-4dc7-8f5a-1a4900338f3e .text-overlay text.value{font-family:Consolas,"Liberation Mono",Menlo,Courier,monospace;font-size:16px}#chart-08d1ff2a-a6e2-4dc7-8f5a-1a4900338f3e .text-overlay text.label{font-family:Consolas,"Liberation Mono",Menlo,Courier,monospace;font-size:10px}#chart-08d1ff2a-a6e2-4dc7-8f5a-1a4900338f3e .tooltip{font-family:Consolas,"Liberation Mono",Menlo,Courier,monospace;font-size:14px}#chart-08d1ff2a-a6e2-4dc7-8f5a-1a4900338f3e text.no_data{font-family:Consolas,"Liberation Mono",Menlo,Courier,monospace;font-size:64px}
#chart-08d1ff2a-a6e2-4dc7-8f5a-1a4900338f3e{background-color:black}#chart-08d1ff2a-a6e2-4dc7-8f5a-1a4900338f3e path,#chart-08d1ff2a-a6e2-4dc7-8f5a-1a4900338f3e line,#chart-08d1ff2a-a6e2-4dc7-8f5a-1a4900338f3e rect,#chart-08d1ff2a-a6e2-4dc7-8f5a-1a4900338f3e circle{-webkit-transition:250ms;-moz-transition:250ms;transition:250ms}#chart-08d1ff2a-a6e2-4dc7-8f5a-1a4900338f3e .graph &gt; .background{fill:black}#chart-08d1ff2a-a6e2-4dc7-8f5a-1a4900338f3e .plot &gt; .background{fill:#111}#chart-08d1ff2a-a6e2-4dc7-8f5a-1a4900338f3e .graph{fill:#999}#chart-08d1ff2a-a6e2-4dc7-8f5a-1a4900338f3e text.no_data{fill:#eee}#chart-08d1ff2a-a6e2-4dc7-8f5a-1a4900338f3e .title{fill:#eee}#chart-08d1ff2a-a6e2-4dc7-8f5a-1a4900338f3e .legends .legend text{fill:#999}#chart-08d1ff2a-a6e2-4dc7-8f5a-1a4900338f3e .legends .legend:hover text{fill:#eee}#chart-08d1ff2a-a6e2-4dc7-8f5a-1a4900338f3e .axis .line{stroke:#eee}#chart-08d1ff2a-a6e2-4dc7-8f5a-1a4900338f3e .axis .guide.line{stroke:#555}#chart-08d1ff2a-a6e2-4dc7-8f5a-1a4900338f3e .axis .major.line{stroke:#999}#chart-08d1ff2a-a6e2-4dc7-8f5a-1a4900338f3e .axis text.major{fill:#eee}#chart-08d1ff2a-a6e2-4dc7-8f5a-1a4900338f3e .axis.y .guides:hover .guide.line,#chart-08d1ff2a-a6e2-4dc7-8f5a-1a4900338f3e .line-graph .axis.x .guides:hover .guide.line,#chart-08d1ff2a-a6e2-4dc7-8f5a-1a4900338f3e .stackedline-graph .axis.x .guides:hover .guide.line,#chart-08d1ff2a-a6e2-4dc7-8f5a-1a4900338f3e .xy-graph .axis.x .guides:hover .guide.line{stroke:#eee}#chart-08d1ff2a-a6e2-4dc7-8f5a-1a4900338f3e .axis .guides:hover text{fill:#eee}#chart-08d1ff2a-a6e2-4dc7-8f5a-1a4900338f3e .reactive{fill-opacity:.8;stroke-opacity:.8}#chart-08d1ff2a-a6e2-4dc7-8f5a-1a4900338f3e .ci{stroke:#999}#chart-08d1ff2a-a6e2-4dc7-8f5a-1a4900338f3e .reactive.active,#chart-08d1ff2a-a6e2-4dc7-8f5a-1a4900338f3e .active .reactive{fill-opacity:.4;stroke-opacity:.9;stroke-width:4}#chart-08d1ff2a-a6e2-4dc7-8f5a-1a4900338f3e .ci .reactive.active{stroke-width:1.5}#chart-08d1ff2a-a6e2-4dc7-8f5a-1a4900338f3e .series text{fill:#eee}#chart-08d1ff2a-a6e2-4dc7-8f5a-1a4900338f3e .tooltip rect{fill:#111;stroke:#eee;-webkit-transition:opacity 250ms;-moz-transition:opacity 250ms;transition:opacity 250ms}#chart-08d1ff2a-a6e2-4dc7-8f5a-1a4900338f3e .tooltip .label{fill:#999}#chart-08d1ff2a-a6e2-4dc7-8f5a-1a4900338f3e .tooltip .label{fill:#999}#chart-08d1ff2a-a6e2-4dc7-8f5a-1a4900338f3e .tooltip .legend{font-size:.8em;fill:#555}#chart-08d1ff2a-a6e2-4dc7-8f5a-1a4900338f3e .tooltip .x_label{font-size:.6em;fill:#eee}#chart-08d1ff2a-a6e2-4dc7-8f5a-1a4900338f3e .tooltip .xlink{font-size:.5em;text-decoration:underline}#chart-08d1ff2a-a6e2-4dc7-8f5a-1a4900338f3e .tooltip .value{font-size:1.5em}#chart-08d1ff2a-a6e2-4dc7-8f5a-1a4900338f3e .bound{font-size:.5em}#chart-08d1ff2a-a6e2-4dc7-8f5a-1a4900338f3e .max-value{font-size:.75em;fill:#555}#chart-08d1ff2a-a6e2-4dc7-8f5a-1a4900338f3e .map-element{fill:#111;stroke:#555 !important}#chart-08d1ff2a-a6e2-4dc7-8f5a-1a4900338f3e .map-element .reactive{fill-opacity:inherit;stroke-opacity:inherit}#chart-08d1ff2a-a6e2-4dc7-8f5a-1a4900338f3e .color-0,#chart-08d1ff2a-a6e2-4dc7-8f5a-1a4900338f3e .color-0 a:visited{stroke:#ff5995;fill:#ff5995}#chart-08d1ff2a-a6e2-4dc7-8f5a-1a4900338f3e .color-1,#chart-08d1ff2a-a6e2-4dc7-8f5a-1a4900338f3e .color-1 a:visited{stroke:#b6e354;fill:#b6e354}#chart-08d1ff2a-a6e2-4dc7-8f5a-1a4900338f3e .text-overlay .color-0 text{fill:black}#chart-08d1ff2a-a6e2-4dc7-8f5a-1a4900338f3e .text-overlay .color-1 text{fill:black}
#chart-08d1ff2a-a6e2-4dc7-8f5a-1a4900338f3e text.no_data{text-anchor:middle}#chart-08d1ff2a-a6e2-4dc7-8f5a-1a4900338f3e .guide.line{fill:none}#chart-08d1ff2a-a6e2-4dc7-8f5a-1a4900338f3e .centered{text-anchor:middle}#chart-08d1ff2a-a6e2-4dc7-8f5a-1a4900338f3e .title{text-anchor:middle}#chart-08d1ff2a-a6e2-4dc7-8f5a-1a4900338f3e .legends .legend text{fill-opacity:1}#chart-08d1ff2a-a6e2-4dc7-8f5a-1a4900338f3e .axis.x text{text-anchor:middle}#chart-08d1ff2a-a6e2-4dc7-8f5a-1a4900338f3e .axis.x:not(.web) text[transform]{text-anchor:start}#chart-08d1ff2a-a6e2-4dc7-8f5a-1a4900338f3e .axis.x:not(.web) text[transform].backwards{text-anchor:end}#chart-08d1ff2a-a6e2-4dc7-8f5a-1a4900338f3e .axis.y text{text-anchor:end}#chart-08d1ff2a-a6e2-4dc7-8f5a-1a4900338f3e .axis.y text[transform].backwards{text-anchor:start}#chart-08d1ff2a-a6e2-4dc7-8f5a-1a4900338f3e .axis.y2 text{text-anchor:start}#chart-08d1ff2a-a6e2-4dc7-8f5a-1a4900338f3e .axis.y2 text[transform].backwards{text-anchor:end}#chart-08d1ff2a-a6e2-4dc7-8f5a-1a4900338f3e .axis .guide.line{stroke-dasharray:4,4}#chart-08d1ff2a-a6e2-4dc7-8f5a-1a4900338f3e .axis .major.guide.line{stroke-dasharray:6,6}#chart-08d1ff2a-a6e2-4dc7-8f5a-1a4900338f3e .horizontal .axis.y .guide.line,#chart-08d1ff2a-a6e2-4dc7-8f5a-1a4900338f3e .horizontal .axis.y2 .guide.line,#chart-08d1ff2a-a6e2-4dc7-8f5a-1a4900338f3e .vertical .axis.x .guide.line{opacity:0}#chart-08d1ff2a-a6e2-4dc7-8f5a-1a4900338f3e .horizontal .axis.always_show .guide.line,#chart-08d1ff2a-a6e2-4dc7-8f5a-1a4900338f3e .vertical .axis.always_show .guide.line{opacity:1 !important}#chart-08d1ff2a-a6e2-4dc7-8f5a-1a4900338f3e .axis.y .guides:hover .guide.line,#chart-08d1ff2a-a6e2-4dc7-8f5a-1a4900338f3e .axis.y2 .guides:hover .guide.line,#chart-08d1ff2a-a6e2-4dc7-8f5a-1a4900338f3e .axis.x .guides:hover .guide.line{opacity:1}#chart-08d1ff2a-a6e2-4dc7-8f5a-1a4900338f3e .axis .guides:hover text{opacity:1}#chart-08d1ff2a-a6e2-4dc7-8f5a-1a4900338f3e .nofill{fill:none}#chart-08d1ff2a-a6e2-4dc7-8f5a-1a4900338f3e .subtle-fill{fill-opacity:.2}#chart-08d1ff2a-a6e2-4dc7-8f5a-1a4900338f3e .dot{stroke-width:1px;fill-opacity:1}#chart-08d1ff2a-a6e2-4dc7-8f5a-1a4900338f3e .dot.active{stroke-width:5px}#chart-08d1ff2a-a6e2-4dc7-8f5a-1a4900338f3e .dot.negative{fill:transparent}#chart-08d1ff2a-a6e2-4dc7-8f5a-1a4900338f3e text,#chart-08d1ff2a-a6e2-4dc7-8f5a-1a4900338f3e tspan{stroke:none !important}#chart-08d1ff2a-a6e2-4dc7-8f5a-1a4900338f3e .series text.active{opacity:1}#chart-08d1ff2a-a6e2-4dc7-8f5a-1a4900338f3e .tooltip rect{fill-opacity:.95;stroke-width:.5}#chart-08d1ff2a-a6e2-4dc7-8f5a-1a4900338f3e .tooltip text{fill-opacity:1}#chart-08d1ff2a-a6e2-4dc7-8f5a-1a4900338f3e .showable{visibility:hidden}#chart-08d1ff2a-a6e2-4dc7-8f5a-1a4900338f3e .showable.shown{visibility:visible}#chart-08d1ff2a-a6e2-4dc7-8f5a-1a4900338f3e .gauge-background{fill:rgba(229,229,229,1);stroke:none}#chart-08d1ff2a-a6e2-4dc7-8f5a-1a4900338f3e .bg-lines{stroke:black;stroke-width:2px}</style><script type="text/javascript">window.pygal = window.pygal || {};window.pygal.config = window.pygal.config || {};window.pygal.config['08d1ff2a-a6e2-4dc7-8f5a-1a4900338f3e'] = {"allow_interruptions": false, "box_mode": "extremes", "classes": ["pygal-chart"], "css": ["file://style.css", "file://graph.css"], "defs": [], "disable_xml_declaration": false, "dots_size": 2.5, "dynamic_print_values": false, "explicit_size": false, "fill": true, "force_uri_protocol": "https", "formatter": null, "half_pie": false, "height": 600, "include_x_axis": false, "inner_radius": 0, "interpolate": null, "interpolation_parameters": {}, "interpolation_precision": 250, "inverse_y_axis": false, "js": ["//kozea.github.io/pygal.js/2.0.x/pygal-tooltips.min.js"], "legend_at_bottom": true, "legend_at_bottom_columns": null, "legend_box_size": 12, "logarithmic": false, "margin": 20, "margin_bottom": null, "margin_left": null, "margin_right": null, "margin_top": null, "max_scale": 16, "min_scale": 4, "missing_value_fill_truncation": "x", "no_data_text": "No data", "no_prefix": false, "order_min": null, "pretty_print": false, "print_labels": false, "print_values": false, "print_values_position": "center", "print_zeroes": true, "range": null, "rounded_bars": null, "secondary_range": null, "show_dots": false, "show_legend": true, "show_minor_x_labels": true, "show_minor_y_labels": true, "show_only_major_dots": false, "show_x_guides": false, "show_x_labels": true, "show_y_guides": true, "show_y_labels": true, "spacing": 10, "stack_from_top": false, "strict": false, "stroke": true, "stroke_style": null, "style": {"background": "black", "ci_colors": [], "colors": ["#ff5995", "#b6e354", "#feed6c", "#8cedff", "#9e6ffe", "#899ca1", "#f8f8f2", "#bf4646", "#516083", "#f92672", "#82b414", "#fd971f", "#56c2d6", "#808384", "#8c54fe", "#465457"], "font_family": "Consolas, \"Liberation Mono\", Menlo, Courier, monospace", "foreground": "#999", "foreground_strong": "#eee", "foreground_subtle": "#555", "guide_stroke_dasharray": "4,4", "label_font_family": "Consolas, \"Liberation Mono\", Menlo, Courier, monospace", "label_font_size": 10, "legend_font_family": "Consolas, \"Liberation Mono\", Menlo, Courier, monospace", "legend_font_size": 14, "major_guide_stroke_dasharray": "6,6", "major_label_font_family": "Consolas, \"Liberation Mono\", Menlo, Courier, monospace", "major_label_font_size": 10, "no_data_font_family": "Consolas, \"Liberation Mono\", Menlo, Courier, monospace", "no_data_font_size": 64, "opacity": ".8", "opacity_hover": ".4", "plot_background": "#111", "stroke_opacity": ".8", "stroke_opacity_hover": ".9", "title_font_family": "Consolas, \"Liberation Mono\", Menlo, Courier, monospace", "title_font_size": 16, "tooltip_font_family": "Consolas, \"Liberation Mono\", Menlo, Courier, monospace", "tooltip_font_size": 14, "transition": "250ms", "value_background": "rgba(229, 229, 229, 1)", "value_colors": [], "value_font_family": "Consolas, \"Liberation Mono\", Menlo, Courier, monospace", "value_font_size": 16, "value_label_font_family": "Consolas, \"Liberation Mono\", Menlo, Courier, monospace", "value_label_font_size": 10}, "title": "Genome diversity in population with asexual reproduction over 500 generations. \n Quantity of original genes from the first generation in population ", "tooltip_border_radius": 0, "tooltip_fancy_mode": true, "truncate_label": null, "truncate_legend": null, "width": 800, "x_label_rotation": 0, "x_labels": null, "x_labels_major": null, "x_labels_major_count": null, "x_labels_major_every": null, "x_title": null, "xrange": null, "y_label_rotation": 0, "y_labels": null, "y_labels_major": null, "y_labels_major_count": null, "y_labels_major_every": null, "y_title": null, "zero": 0, "legends": ["Population size", "Diversity"]}</script><script type="text/javascript" xlink:href="https://kozea.github.io/pygal.js/2.0.x/pygal-tooltips.min.js"/></defs><title>Genome diversity in population with asexual reproduction over 500 generations. 
 Quantity of original genes from the first generation in population </title><g class="graph xy-graph vertical"><rect class="background" height="600" width="800" x="0" y="0"/><g class="plot" transform="translate(42, 98)"><rect class="background" height="417.0" width="738.0" x="0" y="0"/><g class="axis y always_show"><path class="line" d="M0.000000 417.000000 h738.000000"/><g class="guides"><path class="guide line" d="M0.000000 351.700549 h738.000000"/><text class="" x="-5" y="355.20054945054943">10</text><title>10</title></g><g class="guides"><path class="guide line" d="M0.000000 280.100275 h738.000000"/><text class="" x="-5" y="283.60027472527474">20</text><title>20</title></g><g class="guides"><path class="guide line" d="M0.000000 208.500000 h738.000000"/><text class="" x="-5" y="211.99999999999997">30</text><title>30</title></g><g class="guides"><path class="guide line" d="M0.000000 136.899725 h738.000000"/><text class="" x="-5" y="140.39972527472526">40</text><title>40</title></g><g class="guides"><path class="major guide line" d="M0.000000 65.299451 h738.000000"/><text class="major" x="-5" y="68.79945054945057">50</text><title>50</title></g></g><g class="axis x"><g class="guides"><path class="axis line" d="M14.192308 0.000000 v417.000000"/><text class="" x="14.192307692307692" y="432.0">0</text><title>0</title></g><g class="guides"><path class="guide line" d="M156.115385 0.000000 v417.000000"/><text class="" x="156.1153846153846" y="432.0">100</text><title>100</title></g><g class="guides"><path class="guide line" d="M298.038462 0.000000 v417.000000"/><text class="" x="298.03846153846155" y="432.0">200</text><title>200</title></g><g class="guides"><path class="guide line" d="M439.961538 0.000000 v417.000000"/><text class="" x="439.96153846153845" y="432.0">300</text><title>300</title></g><g class="guides"><path class="guide line" d="M581.884615 0.000000 v417.000000"/><text class="" x="581.8846153846154" y="432.0">400</text><title>400</title></g><g class="guides"><path class="guide line" d="M723.807692 0.000000 v417.000000"/><text class="" x="723.8076923076923" y="432.0">500</text><title>500</title></g></g><g class="series serie-0 color-0"><path class="line reactive" d="M14.192308 417.000000 L14.192308 65.299451 15.611538 86.779533 17.030769 65.299451 18.450000 65.299451 19.869231 65.299451 21.288462 58.139423 22.707692 58.139423 24.126923 43.819368 25.546154 72.459478 26.965385 86.779533 28.384615 86.779533 29.803846 108.259615 31.223077 136.899725 32.642308 151.219780 34.061538 144.059753 35.480769 136.899725 36.900000 144.059753 38.319231 151.219780 39.738462 165.539835 41.157692 172.699863 42.576923 158.379808 43.996154 165.539835 45.415385 172.699863 46.834615 194.179945 48.253846 172.699863 49.673077 165.539835 51.092308 158.379808 52.511538 165.539835 53.930769 158.379808 55.350000 122.579670 56.769231 108.259615 58.188462 108.259615 59.607692 101.099588 61.026923 93.939560 62.446154 122.579670 63.865385 151.219780 65.284615 144.059753 66.703846 144.059753 68.123077 129.739698 69.542308 115.419643 70.961538 115.419643 72.380769 122.579670 73.800000 108.259615 75.219231 79.619505 76.638462 72.459478 78.057692 65.299451 79.476923 72.459478 80.896154 86.779533 82.315385 93.939560 83.734615 101.099588 85.153846 122.579670 86.573077 93.939560 87.992308 86.779533 89.411538 86.779533 90.830769 65.299451 92.250000 72.459478 93.669231 72.459478 95.088462 72.459478 96.507692 72.459478 97.926923 79.619505 99.346154 93.939560 100.765385 93.939560 102.184615 101.099588 103.603846 93.939560 105.023077 101.099588 106.442308 115.419643 107.861538 79.619505 109.280769 93.939560 110.700000 86.779533 112.119231 72.459478 113.538462 36.659341 114.957692 43.819368 116.376923 50.979396 117.796154 58.139423 119.215385 50.979396 120.634615 43.819368 122.053846 50.979396 123.473077 15.179258 124.892308 29.499313 126.311538 15.179258 127.730769 29.499313 129.150000 29.499313 130.569231 29.499313 131.988462 36.659341 133.407692 15.179258 134.826923 22.339286 136.246154 15.179258 137.665385 15.179258 139.084615 36.659341 140.503846 50.979396 141.923077 36.659341 143.342308 50.979396 144.761538 29.499313 146.180769 29.499313 147.600000 43.819368 149.019231 58.139423 150.438462 72.459478 151.857692 58.139423 153.276923 72.459478 154.696154 86.779533 156.115385 50.979396 157.534615 43.819368 158.953846 58.139423 160.373077 50.979396 161.792308 36.659341 163.211538 29.499313 164.630769 58.139423 166.050000 58.139423 167.469231 50.979396 168.888462 65.299451 170.307692 58.139423 171.726923 50.979396 173.146154 50.979396 174.565385 58.139423 175.984615 65.299451 177.403846 79.619505 178.823077 86.779533 180.242308 86.779533 181.661538 65.299451 183.080769 65.299451 184.500000 50.979396 185.919231 58.139423 187.338462 65.299451 188.757692 43.819368 190.176923 79.619505 191.596154 72.459478 193.015385 58.139423 194.434615 65.299451 195.853846 50.979396 197.273077 65.299451 198.692308 50.979396 200.111538 58.139423 201.530769 50.979396 202.950000 50.979396 204.369231 65.299451 205.788462 86.779533 207.207692 86.779533 208.626923 79.619505 210.046154 129.739698 211.465385 93.939560 212.884615 86.779533 214.303846 72.459478 215.723077 72.459478 217.142308 86.779533 218.561538 79.619505 219.980769 93.939560 221.400000 65.299451 222.819231 79.619505 224.238462 86.779533 225.657692 65.299451 227.076923 79.619505 228.496154 65.299451 229.915385 72.459478 231.334615 58.139423 232.753846 86.779533 234.173077 93.939560 235.592308 93.939560 237.011538 101.099588 238.430769 108.259615 239.850000 93.939560 241.269231 93.939560 242.688462 93.939560 244.107692 101.099588 245.526923 93.939560 246.946154 65.299451 248.365385 72.459478 249.784615 79.619505 251.203846 79.619505 252.623077 72.459478 254.042308 101.099588 255.461538 115.419643 256.880769 122.579670 258.300000 101.099588 259.719231 101.099588 261.138462 86.779533 262.557692 86.779533 263.976923 58.139423 265.396154 58.139423 266.815385 65.299451 268.234615 65.299451 269.653846 101.099588 271.073077 108.259615 272.492308 72.459478 273.911538 86.779533 275.330769 86.779533 276.750000 101.099588 278.169231 122.579670 279.588462 122.579670 281.007692 129.739698 282.426923 129.739698 283.846154 122.579670 285.265385 115.419643 286.684615 108.259615 288.103846 101.099588 289.523077 101.099588 290.942308 108.259615 292.361538 79.619505 293.780769 79.619505 295.200000 79.619505 296.619231 93.939560 298.038462 86.779533 299.457692 86.779533 300.876923 79.619505 302.296154 65.299451 303.715385 58.139423 305.134615 50.979396 306.553846 58.139423 307.973077 50.979396 309.392308 58.139423 310.811538 72.459478 312.230769 65.299451 313.650000 72.459478 315.069231 79.619505 316.488462 43.819368 317.907692 58.139423 319.326923 58.139423 320.746154 93.939560 322.165385 93.939560 323.584615 93.939560 325.003846 50.979396 326.423077 43.819368 327.842308 22.339286 329.261538 29.499313 330.680769 50.979396 332.100000 65.299451 333.519231 86.779533 334.938462 101.099588 336.357692 86.779533 337.776923 72.459478 339.196154 65.299451 340.615385 65.299451 342.034615 72.459478 343.453846 65.299451 344.873077 79.619505 346.292308 93.939560 347.711538 79.619505 349.130769 86.779533 350.550000 101.099588 351.969231 144.059753 353.388462 165.539835 354.807692 165.539835 356.226923 151.219780 357.646154 158.379808 359.065385 165.539835 360.484615 172.699863 361.903846 172.699863 363.323077 158.379808 364.742308 179.859890 366.161538 179.859890 367.580769 172.699863 369.000000 151.219780 370.419231 165.539835 371.838462 179.859890 373.257692 165.539835 374.676923 179.859890 376.096154 179.859890 377.515385 179.859890 378.934615 165.539835 380.353846 165.539835 381.773077 151.219780 383.192308 144.059753 384.611538 136.899725 386.030769 129.739698 387.450000 129.739698 388.869231 122.579670 390.288462 115.419643 391.707692 122.579670 393.126923 115.419643 394.546154 108.259615 395.965385 101.099588 397.384615 108.259615 398.803846 108.259615 400.223077 93.939560 401.642308 93.939560 403.061538 101.099588 404.480769 101.099588 405.900000 101.099588 407.319231 122.579670 408.738462 144.059753 410.157692 144.059753 411.576923 144.059753 412.996154 158.379808 414.415385 151.219780 415.834615 151.219780 417.253846 136.899725 418.673077 136.899725 420.092308 122.579670 421.511538 115.419643 422.930769 93.939560 424.350000 86.779533 425.769231 79.619505 427.188462 86.779533 428.607692 65.299451 430.026923 86.779533 431.446154 93.939560 432.865385 108.259615 434.284615 101.099588 435.703846 101.099588 437.123077 129.739698 438.542308 144.059753 439.961538 136.899725 441.380769 136.899725 442.800000 151.219780 444.219231 158.379808 445.638462 151.219780 447.057692 129.739698 448.476923 101.099588 449.896154 93.939560 451.315385 86.779533 452.734615 86.779533 454.153846 79.619505 455.573077 93.939560 456.992308 86.779533 458.411538 101.099588 459.830769 108.259615 461.250000 93.939560 462.669231 101.099588 464.088462 101.099588 465.507692 58.139423 466.926923 79.619505 468.346154 58.139423 469.765385 93.939560 471.184615 101.099588 472.603846 93.939560 474.023077 86.779533 475.442308 79.619505 476.861538 86.779533 478.280769 101.099588 479.700000 101.099588 481.119231 86.779533 482.538462 93.939560 483.957692 122.579670 485.376923 115.419643 486.796154 144.059753 488.215385 136.899725 489.634615 115.419643 491.053846 122.579670 492.473077 115.419643 493.892308 93.939560 495.311538 115.419643 496.730769 122.579670 498.150000 93.939560 499.569231 101.099588 500.988462 129.739698 502.407692 115.419643 503.826923 93.939560 505.246154 115.419643 506.665385 129.739698 508.084615 122.579670 509.503846 101.099588 510.923077 101.099588 512.342308 101.099588 513.761538 101.099588 515.180769 79.619505 516.600000 93.939560 518.019231 72.459478 519.438462 72.459478 520.857692 65.299451 522.276923 72.459478 523.696154 65.299451 525.115385 43.819368 526.534615 58.139423 527.953846 72.459478 529.373077 65.299451 530.792308 58.139423 532.211538 72.459478 533.630769 43.819368 535.050000 36.659341 536.469231 22.339286 537.888462 43.819368 539.307692 29.499313 540.726923 43.819368 542.146154 43.819368 543.565385 36.659341 544.984615 15.179258 546.403846 22.339286 547.823077 43.819368 549.242308 43.819368 550.661538 43.819368 552.080769 43.819368 553.500000 50.979396 554.919231 50.979396 556.338462 65.299451 557.757692 43.819368 559.176923 43.819368 560.596154 8.019231 562.015385 29.499313 563.434615 43.819368 564.853846 50.979396 566.273077 43.819368 567.692308 65.299451 569.111538 65.299451 570.530769 72.459478 571.950000 50.979396 573.369231 65.299451 574.788462 65.299451 576.207692 58.139423 577.626923 72.459478 579.046154 101.099588 580.465385 79.619505 581.884615 86.779533 583.303846 115.419643 584.723077 108.259615 586.142308 129.739698 587.561538 129.739698 588.980769 136.899725 590.400000 144.059753 591.819231 136.899725 593.238462 136.899725 594.657692 129.739698 596.076923 122.579670 597.496154 129.739698 598.915385 136.899725 600.334615 144.059753 601.753846 151.219780 603.173077 151.219780 604.592308 151.219780 606.011538 151.219780 607.430769 151.219780 608.850000 151.219780 610.269231 151.219780 611.688462 165.539835 613.107692 151.219780 614.526923 151.219780 615.946154 158.379808 617.365385 144.059753 618.784615 158.379808 620.203846 158.379808 621.623077 172.699863 623.042308 172.699863 624.461538 158.379808 625.880769 165.539835 627.300000 172.699863 628.719231 158.379808 630.138462 151.219780 631.557692 151.219780 632.976923 151.219780 634.396154 165.539835 635.815385 172.699863 637.234615 187.019918 638.653846 165.539835 640.073077 172.699863 641.492308 179.859890 642.911538 165.539835 644.330769 165.539835 645.750000 165.539835 647.169231 165.539835 648.588462 179.859890 650.007692 187.019918 651.426923 187.019918 652.846154 187.019918 654.265385 194.179945 655.684615 194.179945 657.103846 208.500000 658.523077 201.339973 659.942308 187.019918 661.361538 179.859890 662.780769 165.539835 664.200000 158.379808 665.619231 172.699863 667.038462 158.379808 668.457692 158.379808 669.876923 151.219780 671.296154 151.219780 672.715385 158.379808 674.134615 165.539835 675.553846 172.699863 676.973077 165.539835 678.392308 165.539835 679.811538 151.219780 681.230769 165.539835 682.650000 136.899725 684.069231 129.739698 685.488462 129.739698 686.907692 144.059753 688.326923 151.219780 689.746154 136.899725 691.165385 129.739698 692.584615 158.379808 694.003846 122.579670 695.423077 136.899725 696.842308 129.739698 698.261538 108.259615 699.680769 115.419643 701.100000 115.419643 702.519231 79.619505 703.938462 93.939560 705.357692 79.619505 706.776923 72.459478 708.196154 79.619505 709.615385 93.939560 711.034615 93.939560 712.453846 136.899725 713.873077 144.059753 715.292308 136.899725 716.711538 144.059753 718.130769 144.059753 719.550000 158.379808 720.969231 136.899725 722.388462 158.379808 723.807692 179.859890 723.807692 417.000000"/></g><g class="series serie-1 color-1"><path class="line reactive" d="M14.192308 417.000000 L14.192308 65.299451 15.611538 93.939560 17.030769 93.939560 18.450000 115.419643 19.869231 129.739698 21.288462 144.059753 22.707692 165.539835 24.126923 172.699863 25.546154 187.019918 26.965385 194.179945 28.384615 194.179945 29.803846 208.500000 31.223077 215.660027 32.642308 222.820055 34.061538 222.820055 35.480769 229.980082 36.900000 244.300137 38.319231 244.300137 39.738462 244.300137 41.157692 251.460165 42.576923 251.460165 43.996154 258.620192 45.415385 265.780220 46.834615 265.780220 48.253846 272.940247 49.673077 272.940247 51.092308 272.940247 52.511538 272.940247 53.930769 272.940247 55.350000 272.940247 56.769231 280.100275 58.188462 280.100275 59.607692 280.100275 61.026923 280.100275 62.446154 287.260302 63.865385 287.260302 65.284615 287.260302 66.703846 294.420330 68.123077 294.420330 69.542308 294.420330 70.961538 294.420330 72.380769 294.420330 73.800000 294.420330 75.219231 294.420330 76.638462 294.420330 78.057692 294.420330 79.476923 294.420330 80.896154 294.420330 82.315385 301.580357 83.734615 301.580357 85.153846 301.580357 86.573077 301.580357 87.992308 308.740385 89.411538 315.900412 90.830769 315.900412 92.250000 315.900412 93.669231 315.900412 95.088462 315.900412 96.507692 315.900412 97.926923 315.900412 99.346154 315.900412 100.765385 315.900412 102.184615 330.220467 103.603846 330.220467 105.023077 330.220467 106.442308 330.220467 107.861538 330.220467 109.280769 330.220467 110.700000 330.220467 112.119231 330.220467 113.538462 330.220467 114.957692 330.220467 116.376923 330.220467 117.796154 330.220467 119.215385 330.220467 120.634615 337.380495 122.053846 337.380495 123.473077 337.380495 124.892308 337.380495 126.311538 337.380495 127.730769 337.380495 129.150000 337.380495 130.569231 337.380495 131.988462 344.540522 133.407692 344.540522 134.826923 344.540522 136.246154 344.540522 137.665385 344.540522 139.084615 344.540522 140.503846 344.540522 141.923077 344.540522 143.342308 344.540522 144.761538 344.540522 146.180769 344.540522 147.600000 344.540522 149.019231 344.540522 150.438462 351.700549 151.857692 351.700549 153.276923 351.700549 154.696154 351.700549 156.115385 351.700549 157.534615 351.700549 158.953846 351.700549 160.373077 351.700549 161.792308 351.700549 163.211538 351.700549 164.630769 351.700549 166.050000 351.700549 167.469231 351.700549 168.888462 351.700549 170.307692 351.700549 171.726923 351.700549 173.146154 351.700549 174.565385 351.700549 175.984615 351.700549 177.403846 351.700549 178.823077 351.700549 180.242308 351.700549 181.661538 351.700549 183.080769 351.700549 184.500000 351.700549 185.919231 351.700549 187.338462 351.700549 188.757692 351.700549 190.176923 351.700549 191.596154 351.700549 193.015385 351.700549 194.434615 351.700549 195.853846 351.700549 197.273077 351.700549 198.692308 351.700549 200.111538 351.700549 201.530769 351.700549 202.950000 351.700549 204.369231 351.700549 205.788462 358.860577 207.207692 358.860577 208.626923 358.860577 210.046154 358.860577 211.465385 358.860577 212.884615 358.860577 214.303846 358.860577 215.723077 358.860577 217.142308 366.020604 218.561538 366.020604 219.980769 366.020604 221.400000 366.020604 222.819231 366.020604 224.238462 366.020604 225.657692 366.020604 227.076923 366.020604 228.496154 366.020604 229.915385 373.180632 231.334615 373.180632 232.753846 380.340659 234.173077 380.340659 235.592308 380.340659 237.011538 380.340659 238.430769 380.340659 239.850000 380.340659 241.269231 380.340659 242.688462 380.340659 244.107692 380.340659 245.526923 380.340659 246.946154 387.500687 248.365385 387.500687 249.784615 387.500687 251.203846 387.500687 252.623077 387.500687 254.042308 387.500687 255.461538 387.500687 256.880769 387.500687 258.300000 387.500687 259.719231 387.500687 261.138462 387.500687 262.557692 387.500687 263.976923 387.500687 265.396154 387.500687 266.815385 387.500687 268.234615 387.500687 269.653846 387.500687 271.073077 387.500687 272.492308 387.500687 273.911538 387.500687 275.330769 387.500687 276.750000 387.500687 278.169231 387.500687 279.588462 387.500687 281.007692 387.500687 282.426923 387.500687 283.846154 387.500687 285.265385 387.500687 286.684615 387.500687 288.103846 387.500687 289.523077 387.500687 290.942308 387.500687 292.361538 387.500687 293.780769 387.500687 295.200000 387.500687 296.619231 387.500687 298.038462 387.500687 299.457692 387.500687 300.876923 387.500687 302.296154 387.500687 303.715385 387.500687 305.134615 387.500687 306.553846 387.500687 307.973077 387.500687 309.392308 387.500687 310.811538 387.500687 312.230769 387.500687 313.650000 387.500687 315.069231 387.500687 316.488462 387.500687 317.907692 387.500687 319.326923 387.500687 320.746154 387.500687 322.165385 387.500687 323.584615 387.500687 325.003846 387.500687 326.423077 387.500687 327.842308 387.500687 329.261538 387.500687 330.680769 387.500687 332.100000 387.500687 333.519231 387.500687 334.938462 387.500687 336.357692 387.500687 337.776923 387.500687 339.196154 387.500687 340.615385 387.500687 342.034615 387.500687 343.453846 387.500687 344.873077 387.500687 346.292308 387.500687 347.711538 387.500687 349.130769 387.500687 350.550000 387.500687 351.969231 387.500687 353.388462 387.500687 354.807692 394.660714 356.226923 394.660714 357.646154 394.660714 359.065385 394.660714 360.484615 394.660714 361.903846 394.660714 363.323077 394.660714 364.742308 394.660714 366.161538 394.660714 367.580769 394.660714 369.000000 394.660714 370.419231 394.660714 371.838462 394.660714 373.257692 394.660714 374.676923 394.660714 376.096154 394.660714 377.515385 394.660714 378.934615 394.660714 380.353846 394.660714 381.773077 394.660714 383.192308 394.660714 384.611538 394.660714 386.030769 394.660714 387.450000 394.660714 388.869231 394.660714 390.288462 394.660714 391.707692 394.660714 393.126923 394.660714 394.546154 394.660714 395.965385 394.660714 397.384615 394.660714 398.803846 394.660714 400.223077 394.660714 401.642308 394.660714 403.061538 394.660714 404.480769 394.660714 405.900000 394.660714 407.319231 394.660714 408.738462 394.660714 410.157692 394.660714 411.576923 394.660714 412.996154 394.660714 414.415385 394.660714 415.834615 394.660714 417.253846 394.660714 418.673077 394.660714 420.092308 394.660714 421.511538 394.660714 422.930769 394.660714 424.350000 394.660714 425.769231 394.660714 427.188462 394.660714 428.607692 394.660714 430.026923 394.660714 431.446154 394.660714 432.865385 394.660714 434.284615 394.660714 435.703846 394.660714 437.123077 394.660714 438.542308 394.660714 439.961538 394.660714 441.380769 394.660714 442.800000 394.660714 444.219231 394.660714 445.638462 394.660714 447.057692 394.660714 448.476923 394.660714 449.896154 401.820742 451.315385 401.820742 452.734615 401.820742 454.153846 401.820742 455.573077 401.820742 456.992308 401.820742 458.411538 401.820742 459.830769 401.820742 461.250000 401.820742 462.669231 401.820742 464.088462 401.820742 465.507692 401.820742 466.926923 401.820742 468.346154 401.820742 469.765385 401.820742 471.184615 401.820742 472.603846 401.820742 474.023077 401.820742 475.442308 401.820742 476.861538 401.820742 478.280769 401.820742 479.700000 401.820742 481.119231 401.820742 482.538462 401.820742 483.957692 401.820742 485.376923 401.820742 486.796154 401.820742 488.215385 401.820742 489.634615 401.820742 491.053846 401.820742 492.473077 401.820742 493.892308 401.820742 495.311538 401.820742 496.730769 401.820742 498.150000 401.820742 499.569231 401.820742 500.988462 401.820742 502.407692 401.820742 503.826923 401.820742 505.246154 401.820742 506.665385 401.820742 508.084615 401.820742 509.503846 401.820742 510.923077 401.820742 512.342308 401.820742 513.761538 401.820742 515.180769 401.820742 516.600000 401.820742 518.019231 401.820742 519.438462 401.820742 520.857692 401.820742 522.276923 408.980769 523.696154 408.980769 525.115385 408.980769 526.534615 408.980769 527.953846 408.980769 529.373077 408.980769 530.792308 408.980769 532.211538 408.980769 533.630769 408.980769 535.050000 408.980769 536.469231 408.980769 537.888462 408.980769 539.307692 408.980769 540.726923 408.980769 542.146154 408.980769 543.565385 408.980769 544.984615 408.980769 546.403846 408.980769 547.823077 408.980769 549.242308 408.980769 550.661538 408.980769 552.080769 408.980769 553.500000 408.980769 554.919231 408.980769 556.338462 408.980769 557.757692 408.980769 559.176923 408.980769 560.596154 408.980769 562.015385 408.980769 563.434615 408.980769 564.853846 408.980769 566.273077 408.980769 567.692308 408.980769 569.111538 408.980769 570.530769 408.980769 571.950000 408.980769 573.369231 408.980769 574.788462 408.980769 576.207692 408.980769 577.626923 408.980769 579.046154 408.980769 580.465385 408.980769 581.884615 408.980769 583.303846 408.980769 584.723077 408.980769 586.142308 408.980769 587.561538 408.980769 588.980769 408.980769 590.400000 408.980769 591.819231 408.980769 593.238462 408.980769 594.657692 408.980769 596.076923 408.980769 597.496154 408.980769 598.915385 408.980769 600.334615 408.980769 601.753846 408.980769 603.173077 408.980769 604.592308 408.980769 606.011538 408.980769 607.430769 408.980769 608.850000 408.980769 610.269231 408.980769 611.688462 408.980769 613.107692 408.980769 614.526923 408.980769 615.946154 408.980769 617.365385 408.980769 618.784615 408.980769 620.203846 408.980769 621.623077 408.980769 623.042308 408.980769 624.461538 408.980769 625.880769 408.980769 627.300000 408.980769 628.719231 408.980769 630.138462 408.980769 631.557692 408.980769 632.976923 408.980769 634.396154 408.980769 635.815385 408.980769 637.234615 408.980769 638.653846 408.980769 640.073077 408.980769 641.492308 408.980769 642.911538 408.980769 644.330769 408.980769 645.750000 408.980769 647.169231 408.980769 648.588462 408.980769 650.007692 408.980769 651.426923 408.980769 652.846154 408.980769 654.265385 408.980769 655.684615 408.980769 657.103846 408.980769 658.523077 408.980769 659.942308 408.980769 661.361538 408.980769 662.780769 408.980769 664.200000 408.980769 665.619231 408.980769 667.038462 408.980769 668.457692 408.980769 669.876923 408.980769 671.296154 408.980769 672.715385 408.980769 674.134615 408.980769 675.553846 408.980769 676.973077 408.980769 678.392308 408.980769 679.811538 408.980769 681.230769 408.980769 682.650000 408.980769 684.069231 408.980769 685.488462 408.980769 686.907692 408.980769 688.326923 408.980769 689.746154 408.980769 691.165385 408.980769 692.584615 408.980769 694.003846 408.980769 695.423077 408.980769 696.842308 408.980769 698.261538 408.980769 699.680769 408.980769 701.100000 408.980769 702.519231 408.980769 703.938462 408.980769 705.357692 408.980769 706.776923 408.980769 708.196154 408.980769 709.615385 408.980769 711.034615 408.980769 712.453846 408.980769 713.873077 408.980769 715.292308 408.980769 716.711538 408.980769 718.130769 408.980769 719.550000 408.980769 720.969231 408.980769 722.388462 408.980769 723.807692 408.980769 723.807692 417.000000"/></g></g><g class="titles"><text class="title plot_title" x="400.0" y="26">Genome diversity in population with asexual reproduction over 500</text><text class="title plot_title" x="400.0" y="52">generations.</text><text class="title plot_title" x="400.0" y="78"> Quantity of original genes from the first generation in population </text></g><g class="plot overlay" transform="translate(42, 98)"><g class="series serie-0 color-0"/><g class="series serie-1 color-1"/></g><g class="plot text-overlay" transform="translate(42, 98)"><g class="series serie-0 color-0"/><g class="series serie-1 color-1"/></g><g class="plot tooltip-overlay" transform="translate(42, 98)"><g class="tooltip" style="opacity: 0" transform="translate(0 0)"><rect class="tooltip-box" height="0" rx="0" ry="0" width="0"/><g class="text"/></g></g><g class="legends" transform="translate(52, 545)"><g class="legend reactive activate-serie" id="activate-serie-0"><rect class="color-0 reactive" height="12" width="12" x="0.0" y="1.0"/><text x="17.0" y="11.2">Population size</text></g><g class="legend reactive activate-serie" id="activate-serie-1"><rect class="color-1 reactive" height="12" width="12" x="369.0" y="1.0"/><text x="386.0" y="11.2">Diversity</text></g></g></g></svg>