<?xml version='1.0' encoding='utf-8'?>
<svg xmlns:xlink="http://www.w3.org/1999/xlink" xmlns="http://www.w3.org/2000/svg" id="chart-e65189ae-32a2-4cef-a40c-bacf47bef332" class="pygal-chart" viewBox="0 0 800 600"><!--Generated with pygal 2.4.0 (lxml) ©Kozea 2012-2016 on 2019-01-08--><!--http://pygal.org--><!--http://github.com/Kozea/pygal--><defs><style type="text/css">#chart-e65189ae-32a2-4cef-a40c-bacf47bef332{-webkit-user-select:none;-webkit-font-smoothing:antialiased;font-family:Consolas,"Liberation Mono",Menlo,Courier,monospace}#chart-e65189ae-32a2-4cef-a40c-bacf47bef332 .title{font-family:Consolas,"Liberation Mono",Menlo,Courier,monospace;font-size:16px}#chart-e65189ae-32a2-4cef-a40c-bacf47bef332 .legends .legend text{font-family:Consolas,"Liberation Mono",Menlo,Courier,monospace;font-size:14px}#chart-e65189ae-32a2-4cef-a40c-bacf47bef332 .axis text{font-family:Consolas,"Liberation Mono",Menlo,Courier,monospace;font-size:10px}#chart-e65189ae-32a2-4cef-a40c-bacf47bef332 .axis text.major{font-family:Consolas,"Liberation Mono",Menlo,Courier,monospace;font-size:10px}#chart-e65189ae-32a2-4cef-a40c-bacf47bef332 .text-overlay text.value{font-family:Consolas,"Liberation Mono",Menlo,Courier,monospace;font-size:16px}#chart-e65189ae-32a2-4cef-a40c-bacf47bef332 .text-overlay text.label{font-family:Consolas,"Liberation Mono",Menlo,Courier,monospace;font-size:10px}#chart-e65189ae-32a2-4cef-a40c-bacf47bef332 .tooltip{font-family:Consolas,"Liberation Mono",Menlo,Courier,monospace;font-size:14px}#chart-e65189ae-32a2-4cef-a40c-bacf47bef332 text.no_data{font-family:Consolas,"Liberation Mono",Menlo,Courier,monospace;font-size:64px}
#chart-e65189ae-32a2-4cef-a40c-bacf47bef332{background-color:black}#chart-e65189ae-32a2-4cef-a40c-bacf47bef332 path,#chart-e65189ae-32a2-4cef-a40c-bacf47bef332 line,#chart-e65189ae-32a2-4cef-a40c-bacf47bef332 rect,#chart-e65189ae-32a2-4cef-a40c-bacf47bef332 circle{-webkit-transition:250ms;-moz-transition:250ms;transition:250ms}#chart-e65189ae-32a2-4cef-a40c-bacf47bef332 .graph &gt; .background{fill:black}#chart-e65189ae-32a2-4cef-a40c-bacf47bef332 .plot &gt; .background{fill:#111}#chart-e65189ae-32a2-4cef-a40c-bacf47bef332 .graph{fill:#999}#chart-e65189ae-32a2-4cef-a40c-bacf47bef332 text.no_data{fill:#eee}#chart-e65189ae-32a2-4cef-a40c-bacf47bef332 .title{fill:#eee}#chart-e65189ae-32a2-4cef-a40c-bacf47bef332 .legends .legend text{fill:#999}#chart-e65189ae-32a2-4cef-a40c-bacf47bef332 .legends .legend:hover text{fill:#eee}#chart-e65189ae-32a2-4cef-a40c-bacf47bef332 .axis .line{stroke:#eee}#chart-e65189ae-32a2-4cef-a40c-bacf47bef332 .axis .guide.line{stroke:#555}#chart-e65189ae-32a2-4cef-a40c-bacf47bef332 .axis .major.line{stroke:#999}#chart-e65189ae-32a2-4cef-a40c-bacf47bef332 .axis text.major{fill:#eee}#chart-e65189ae-32a2-4cef-a40c-bacf47bef332 .axis.y .guides:hover .guide.line,#chart-e65189ae-32a2-4cef-a40c-bacf47bef332 .line-graph .axis.x .guides:hover .guide.line,#chart-e65189ae-32a2-4cef-a40c-bacf47bef332 .stackedline-graph .axis.x .guides:hover .guide.line,#chart-e65189ae-32a2-4cef-a40c-bacf47bef332 .xy-graph .axis.x .guides:hover .guide.line{stroke:#eee}#chart-e65189ae-32a2-4cef-a40c-bacf47bef332 .axis .guides:hover text{fill:#eee}#chart-e65189ae-32a2-4cef-a40c-bacf47bef332 .reactive{fill-opacity:.8;stroke-opacity:.8}#chart-e65189ae-32a2-4cef-a40c-bacf47bef332 .ci{stroke:#999}#chart-e65189ae-32a2-4cef-a40c-bacf47bef332 .reactive.active,#chart-e65189ae-32a2-4cef-a40c-bacf47bef332 .active .reactive{fill-opacity:.4;stroke-opacity:.9;stroke-width:4}#chart-e65189ae-32a2-4cef-a40c-bacf47bef332 .ci .reactive.active{stroke-width:1.5}#chart-e65189ae-32a2-4cef-a40c-bacf47bef332 .series text{fill:#eee}#chart-e65189ae-32a2-4cef-a40c-bacf47bef332 .tooltip rect{fill:#111;stroke:#eee;-webkit-transition:opacity 250ms;-moz-transition:opacity 250ms;transition:opacity 250ms}#chart-e65189ae-32a2-4cef-a40c-bacf47bef332 .tooltip .label{fill:#999}#chart-e65189ae-32a2-4cef-a40c-bacf47bef332 .tooltip .label{fill:#999}#chart-e65189ae-32a2-4cef-a40c-bacf47bef332 .tooltip .legend{font-size:.8em;fill:#555}#chart-e65189ae-32a2-4cef-a40c-bacf47bef332 .tooltip .x_label{font-size:.6em;fill:#eee}#chart-e65189ae-32a2-4cef-a40c-bacf47bef332 .tooltip .xlink{font-size:.5em;text-decoration:underline}#chart-e65189ae-32a2-4cef-a40c-bacf47bef332 .tooltip .value{font-size:1.5em}#chart-e65189ae-32a2-4cef-a40c-bacf47bef332 .bound{font-size:.5em}#chart-e65189ae-32a2-4cef-a40c-bacf47bef332 .max-value{font-size:.75em;fill:#555}#chart-e65189ae-32a2-4cef-a40c-bacf47bef332 .map-element{fill:#111;stroke:#555 !important}#chart-e65189ae-32a2-4cef-a40c-bacf47bef332 .map-element .reactive{fill-opacity:inherit;stroke-opacity:inherit}#chart-e65189ae-32a2-4cef-a40c-bacf47bef332 .color-0,#chart-e65189ae-32a2-4cef-a40c-bacf47bef332 .color-0 a:visited{stroke:#ff5995;fill:#ff5995}#chart-e65189ae-32a2-4cef-a40c-bacf47bef332 .text-overlay .color-0 text{fill:black}
#chart-e65189ae-32a2-4cef-a40c-bacf47bef332 text.no_data{text-anchor:middle}#chart-e65189ae-32a2-4cef-a40c-bacf47bef332 .guide.line{fill:none}#chart-e65189ae-32a2-4cef-a40c-bacf47bef332 .centered{text-anchor:middle}#chart-e65189ae-32a2-4cef-a40c-bacf47bef332 .title{text-anchor:middle}#chart-e65189ae-32a2-4cef-a40c-bacf47bef332 .legends .legend text{fill-opacity:1}#chart-e65189ae-32a2-4cef-a40c-bacf47bef332 .axis.x text{text-anchor:middle}#chart-e65189ae-32a2-4cef-a40c-bacf47bef332 .axis.x:not(.web) text[transform]{text-anchor:start}#chart-e65189ae-32a2-4cef-a40c-bacf47bef332 .axis.x:not(.web) text[transform].backwards{text-anchor:end}#chart-e65189ae-32a2-4cef-a40c-bacf47bef332 .axis.y text{text-anchor:end}#chart-e65189ae-32a2-4cef-a40c-bacf47bef332 .axis.y text[transform].backwards{text-anchor:start}#chart-e65189ae-32a2-4cef-a40c-bacf47bef332 .axis.y2 text{text-anchor:start}#chart-e65189ae-32a2-4cef-a40c-bacf47bef332 .axis.y2 text[transform].backwards{text-anchor:end}#chart-e65189ae-32a2-4cef-a40c-bacf47bef332 .axis .guide.line{stroke-dasharray:4,4}#chart-e65189ae-32a2-4cef-a40c-bacf47bef332 .axis .major.guide.line{stroke-dasharray:6,6}#chart-e65189ae-32a2-4cef-a40c-bacf47bef332 .horizontal .axis.y .guide.line,#chart-e65189ae-32a2-4cef-a40c-bacf47bef332 .horizontal .axis.y2 .guide.line,#chart-e65189ae-32a2-4cef-a40c-bacf47bef332 .vertical .axis.x .guide.line{opacity:0}#chart-e65189ae-32a2-4cef-a40c-bacf47bef332 .horizontal .axis.always_show .guide.line,#chart-e65189ae-32a2-4cef-a40c-bacf47bef332 .vertical .axis.always_show .guide.line{opacity:1 !important}#chart-e65189ae-32a2-4cef-a40c-bacf47bef332 .axis.y .guides:hover .guide.line,#chart-e65189ae-32a2-4cef-a40c-bacf47bef332 .axis.y2 .guides:hover .guide.line,#chart-e65189ae-32a2-4cef-a40c-bacf47bef332 .axis.x .guides:hover .guide.line{opacity:1}#chart-e65189ae-32a2-4cef-a40c-bacf47bef332 .axis .guides:hover text{opacity:1}#chart-e65189ae-32a2-4cef-a40c-bacf47bef332 .nofill{fill:none}#chart-e65189ae-32a2-4cef-a40c-bacf47bef332 .subtle-fill{fill-opacity:.2}#chart-e65189ae-32a2-4cef-a40c-bacf47bef332 .dot{stroke-width:1px;fill-opacity:1}#chart-e65189ae-32a2-4cef-a40c-bacf47bef332 .dot.active{stroke-width:5px}#chart-e65189ae-32a2-4cef-a40c-bacf47bef332 .dot.negative{fill:transparent}#chart-e65189ae-32a2-4cef-a40c-bacf47bef332 text,#chart-e65189ae-32a2-4cef-a40c-bacf47bef332 tspan{stroke:none !important}#chart-e65189ae-32a2-4cef-a40c-bacf47bef332 .series text.active{opacity:1}#chart-e65189ae-32a2-4cef-a40c-bacf47bef332 .tooltip rect{fill-opacity:.95;stroke-width:.5}#chart-e65189ae-32a2-4cef-a40c-bacf47bef332 .tooltip text{fill-opacity:1}#chart-e65189ae-32a2-4cef-a40c-bacf47bef332 .showable{visibility:hidden}#chart-e65189ae-32a2-4cef-a40c-bacf47bef332 .showable.shown{visibility:visible}#chart-e65189ae-32a2-4cef-a40c-bacf47bef332 .gauge-background{fill:rgba(229,229,229,1);stroke:none}#chart-e65189ae-32a2-4cef-a40c-bacf47bef332 .bg-lines{stroke:black;stroke-width:2px}</style><script type="text/javascript">window.pygal = window.pygal || {};window.pygal.config = window.pygal.config || {};window.pygal.config['e65189ae-32a2-4cef-a40c-bacf47bef332'] = {"allow_interruptions": false, "box_mode": "extremes", "classes": ["pygal-chart"], "css": ["file://style.css", "file://graph.css"], "defs": [], "disable_xml_declaration": false, "dots_size": 2.5, "dynamic_print_values": false, "explicit_size": false, "fill": true, "force_uri_protocol": "https", "formatter": null, "half_pie": false, "height": 600, "include_x_axis": true, "inner_radius": 0, "interpolate": null, "interpolation_parameters": {}, "interpolation_precision": 250, "inverse_y_axis": false, "js": ["//kozea.github.io/pygal.js/2.0.x/pygal-tooltips.min.js"], "legend_at_bottom": true, "legend_at_bottom_columns": null, "legend_box_size": 12, "logarithmic": false, "margin": 20, "margin_bottom": null, "margin_left": null, "margin_right": null, "margin_top": null, "max_scale": 16, "min_scale": 4, "missing_value_fill_truncation": "x", "no_data_text": "No data", "no_prefix": false, "order_min": null, "pretty_print": false, "print_labels": false, "print_values": false, "print_values_position": "center", "print_zeroes": true, "range": null, "rounded_bars": null, "secondary_range": null, "show_dots": false, "show_legend": true, "show_minor_x_labels": true, "show_minor_y_labels": true, "show_only_major_dots": false, "show_x_guides": false, "show_x_labels": true, "show_y_guides": true, "show_y_labels": true, "spacing": 10, "stack_from_top": false, "strict": false, "stroke": true, "stroke_style": null, "style": {"background": "black", "ci_colors": [], "colors": ["#ff5995", "#b6e354", "#feed6c", "#8cedff", "#9e6ffe", "#899ca1", "#f8f8f2", "#bf4646", "#516083", "#f92672", "#82b414", "#fd971f", "#56c2d6", "#808384", "#8c54fe", "#465457"], "font_family": "Consolas, \"Liberation Mono\", Menlo, Courier, monospace", "foreground": "#999", "foreground_strong": "#eee", "foreground_subtle": "#555", "guide_stroke_dasharray": "4,4", "label_font_family": "Consolas, \"Liberation Mono\", Menlo, Courier, monospace", "label_font_size": 10, "legend_font_family": "Consolas, \"Liberation Mono\", Menlo, Courier, monospace", "legend_font_size": 14, "major_guide_stroke_dasharray": "6,6", "major_label_font_family": "Consolas, \"Liberation Mono\", Menlo, Courier, monospace", "major_label_font_size": 10, "no_data_font_family": "Consolas, \"Liberation Mono\", Menlo, Courier, monospace", "no_data_font_size": 64, "opacity": ".8", "opacity_hover": ".4", "plot_background": "#111", "stroke_opacity": ".8", "stroke_opacity_hover": ".9", "title_font_family": "Consolas, \"Liberation Mono\", Menlo, Courier, monospace", "title_font_size": 16, "tooltip_font_family": "Consolas, \"Liberation Mono\", Menlo, Courier, monospace", "tooltip_font_size": 14, "transition": "250ms", "value_background": "rgba(229, 229, 229, 1)", "value_colors": [], "value_font_family": "Consolas, \"Liberation Mono\", Menlo, Courier, monospace", "value_font_size": 16, "value_label_font_family": "Consolas, \"Liberation Mono\", Menlo, Courier, monospace", "value_label_font_size": 10}, "title": "Population size over  250 generations.", "tooltip_border_radius": 0, "tooltip_fancy_mode": true, "truncate_label": null, "truncate_legend": null, "width": 800, "x_label_rotation": 0, "x_labels": null, "x_labels_major": null, "x_labels_major_count": null, "x_labels_major_every": null, "x_title": null, "xrange": null, "y_label_rotation": 0, "y_labels": null, "y_labels_major": null, "y_labels_major_count": null, "y_labels_major_every": null, "y_title": null, "zero": 0, "legends": ["Population size"]}</script><script type="text/javascript" xlink:href="https://kozea.github.io/pygal.js/2.0.x/pygal-tooltips.min.js"/></defs><title>Population size over  250 generations.</title><g class="graph xy-graph vertical"><rect class="background" height="600" width="800" x="0" y="0"/><g class="plot" transform="translate(42, 46)"><rect class="background" height="490.0" width="738.0" x="0" y="0"/><g class="axis y always_show"><g class="guides"><path class="axis major line" d="M0.000000 480.576923 h738.000000"/><text class="major" x="-5" y="484.0769230769231">0</text><title>0</title></g><g class="guides"><path class="guide line" d="M0.000000 399.343501 h738.000000"/><text class="" x="-5" y="402.8435013262599">10</text><title>10</title></g><g class="guides"><path class="guide line" d="M0.000000 318.110080 h738.000000"/><text class="" x="-5" y="321.61007957559684">20</text><title>20</title></g><g class="guides"><path class="guide line" d="M0.000000 236.876658 h738.000000"/><text class="" x="-5" y="240.37665782493366">30</text><title>30</title></g><g class="guides"><path class="guide line" d="M0.000000 155.643236 h738.000000"/><text class="" x="-5" y="159.14323607427053">40</text><title>40</title></g><g class="guides"><path class="major guide line" d="M0.000000 74.409814 h738.000000"/><text class="major" x="-5" y="77.9098143236074">50</text><title>50</title></g></g><g class="axis x"><g class="guides"><path class="axis line" d="M14.192308 0.000000 v490.000000"/><text class="" x="14.192307692307695" y="505.0">0</text><title>0</title></g><g class="guides"><path class="guide line" d="M71.189527 0.000000 v490.000000"/><text class="" x="71.18952734012976" y="505.0">20</text><title>20</title></g><g class="guides"><path class="guide line" d="M128.186747 0.000000 v490.000000"/><text class="" x="128.18674698795184" y="505.0">40</text><title>40</title></g><g class="guides"><path class="guide line" d="M185.183967 0.000000 v490.000000"/><text class="" x="185.1839666357739" y="505.0">60</text><title>60</title></g><g class="guides"><path class="guide line" d="M242.181186 0.000000 v490.000000"/><text class="" x="242.18118628359596" y="505.0">80</text><title>80</title></g><g class="guides"><path class="guide line" d="M299.178406 0.000000 v490.000000"/><text class="" x="299.178405931418" y="505.0">100</text><title>100</title></g><g class="guides"><path class="guide line" d="M356.175626 0.000000 v490.000000"/><text class="" x="356.1756255792401" y="505.0">120</text><title>120</title></g><g class="guides"><path class="guide line" d="M413.172845 0.000000 v490.000000"/><text class="" x="413.1728452270621" y="505.0">140</text><title>140</title></g><g class="guides"><path class="guide line" d="M470.170065 0.000000 v490.000000"/><text class="" x="470.17006487488413" y="505.0">160</text><title>160</title></g><g class="guides"><path class="guide line" d="M527.167285 0.000000 v490.000000"/><text class="" x="527.1672845227063" y="505.0">180</text><title>180</title></g><g class="guides"><path class="guide line" d="M584.164504 0.000000 v490.000000"/><text class="" x="584.1645041705283" y="505.0">200</text><title>200</title></g><g class="guides"><path class="guide line" d="M641.161724 0.000000 v490.000000"/><text class="" x="641.1617238183503" y="505.0">220</text><title>220</title></g><g class="guides"><path class="guide line" d="M698.158943 0.000000 v490.000000"/><text class="" x="698.1589434661724" y="505.0">240</text><title>240</title></g></g><g class="series serie-0 color-0"><path class="line reactive" d="M14.192308 480.576923 L14.192308 74.409814 17.042169 82.533156 19.892030 90.656499 22.741891 74.409814 25.591752 58.163130 28.441613 17.546419 31.291474 58.163130 34.141335 66.286472 36.991196 82.533156 39.841057 82.533156 42.690918 66.286472 45.540778 82.533156 48.390639 98.779841 51.240500 98.779841 54.090361 106.903183 56.940222 90.656499 59.790083 115.026525 62.639944 123.149867 65.489805 115.026525 68.339666 98.779841 71.189527 66.286472 74.039388 66.286472 76.889249 74.409814 79.739110 50.039788 82.588971 41.916446 85.438832 33.793103 88.288693 33.793103 91.138554 41.916446 93.988415 41.916446 96.838276 50.039788 99.688137 41.916446 102.537998 33.793103 105.387859 25.669761 108.237720 33.793103 111.087581 50.039788 113.937442 58.163130 116.787303 106.903183 119.637164 115.026525 122.487025 115.026525 125.336886 98.779841 128.186747 82.533156 131.036608 115.026525 133.886469 115.026525 136.736330 131.273210 139.586191 131.273210 142.436052 123.149867 145.285913 123.149867 148.135774 131.273210 150.985635 147.519894 153.835496 115.026525 156.685357 115.026525 159.535218 98.779841 162.385079 90.656499 165.234940 106.903183 168.084801 98.779841 170.934662 123.149867 173.784523 139.396552 176.634384 131.273210 179.484245 123.149867 182.334106 131.273210 185.183967 123.149867 188.033828 123.149867 190.883689 123.149867 193.733550 115.026525 196.583411 147.519894 199.433272 147.519894 202.283133 155.643236 205.132994 155.643236 207.982854 171.889920 210.832715 171.889920 213.682576 155.643236 216.532437 131.273210 219.382298 115.026525 222.232159 98.779841 225.082020 106.903183 227.931881 106.903183 230.781742 123.149867 233.631603 131.273210 236.481464 131.273210 239.331325 115.026525 242.181186 131.273210 245.031047 131.273210 247.880908 98.779841 250.730769 90.656499 253.580630 74.409814 256.430491 74.409814 259.280352 58.163130 262.130213 98.779841 264.980074 90.656499 267.829935 115.026525 270.679796 115.026525 273.529657 98.779841 276.379518 82.533156 279.229379 50.039788 282.079240 33.793103 284.929101 17.546419 287.778962 41.916446 290.628823 66.286472 293.478684 82.533156 296.328545 58.163130 299.178406 58.163130 302.028267 50.039788 304.878128 66.286472 307.727989 82.533156 310.577850 82.533156 313.427711 90.656499 316.277572 66.286472 319.127433 66.286472 321.977294 41.916446 324.827155 82.533156 327.677016 82.533156 330.526877 82.533156 333.376738 106.903183 336.226599 98.779841 339.076460 90.656499 341.926321 58.163130 344.776182 82.533156 347.626043 58.163130 350.475904 41.916446 353.325765 33.793103 356.175626 66.286472 359.025487 50.039788 361.875348 25.669761 364.725209 9.423077 367.575070 50.039788 370.424930 58.163130 373.274791 74.409814 376.124652 82.533156 378.974513 74.409814 381.824374 66.286472 384.674235 74.409814 387.524096 82.533156 390.373957 90.656499 393.223818 74.409814 396.073679 66.286472 398.923540 90.656499 401.773401 98.779841 404.623262 106.903183 407.473123 98.779841 410.322984 90.656499 413.172845 66.286472 416.022706 74.409814 418.872567 66.286472 421.722428 90.656499 424.572289 90.656499 427.422150 131.273210 430.272011 147.519894 433.121872 139.396552 435.971733 139.396552 438.821594 155.643236 441.671455 155.643236 444.521316 171.889920 447.371177 155.643236 450.221038 155.643236 453.070899 147.519894 455.920760 139.396552 458.770621 147.519894 461.620482 139.396552 464.470343 131.273210 467.320204 123.149867 470.170065 139.396552 473.019926 139.396552 475.869787 139.396552 478.719648 139.396552 481.569509 131.273210 484.419370 139.396552 487.269231 147.519894 490.119092 123.149867 492.968953 131.273210 495.818814 139.396552 498.668675 155.643236 501.518536 147.519894 504.368397 131.273210 507.218258 155.643236 510.068119 139.396552 512.917980 131.273210 515.767841 115.026525 518.617702 115.026525 521.467563 115.026525 524.317424 139.396552 527.167285 155.643236 530.017146 163.766578 532.867006 155.643236 535.716867 171.889920 538.566728 171.889920 541.416589 196.259947 544.266450 204.383289 547.116311 212.506631 549.966172 236.876658 552.816033 228.753316 555.665894 212.506631 558.515755 204.383289 561.365616 196.259947 564.215477 196.259947 567.065338 188.136605 569.915199 180.013263 572.765060 204.383289 575.614921 180.013263 578.464782 171.889920 581.314643 188.136605 584.164504 212.506631 587.014365 196.259947 589.864226 204.383289 592.714087 171.889920 595.563948 188.136605 598.413809 188.136605 601.263670 196.259947 604.113531 212.506631 606.963392 236.876658 609.813253 236.876658 612.663114 228.753316 615.512975 245.000000 618.362836 253.123342 621.212697 245.000000 624.062558 245.000000 626.912419 253.123342 629.762280 253.123342 632.612141 253.123342 635.462002 253.123342 638.311863 228.753316 641.161724 212.506631 644.011585 212.506631 646.861446 228.753316 649.711307 228.753316 652.561168 236.876658 655.411029 220.629973 658.260890 236.876658 661.110751 228.753316 663.960612 228.753316 666.810473 212.506631 669.660334 204.383289 672.510195 204.383289 675.360056 212.506631 678.209917 204.383289 681.059778 212.506631 683.909639 212.506631 686.759500 196.259947 689.609361 204.383289 692.459222 212.506631 695.309082 180.013263 698.158943 180.013263 701.008804 163.766578 703.858665 155.643236 706.708526 147.519894 709.558387 155.643236 712.408248 180.013263 715.258109 188.136605 718.107970 196.259947 720.957831 196.259947 723.807692 196.259947 723.807692 480.576923"/></g></g><g class="titles"><text class="title plot_title" x="400.0" y="26">Population size over  250 generations.</text></g><g class="plot overlay" transform="translate(42, 46)"><g class="series serie-0 color-0"/></g><g class="plot text-overlay" transform="translate(42, 46)"><g class="series serie-0 color-0"/></g><g class="plot tooltip-overlay" transform="translate(42, 46)"><g class="tooltip" style="opacity: 0" transform="translate(0 0)"><rect class="tooltip-box" height="0" rx="0" ry="0" width="0"/><g class="text"/></g></g><g class="legends" transform="translate(52, 566)"><g class="legend reactive activate-serie" id="activate-serie-0"><rect class="color-0 reactive" height="12" width="12" x="0.0" y="1.0"/><text x="17.0" y="11.2">Population size</text></g></g></g></svg>