<?xml version='1.0' encoding='utf-8'?>
<svg xmlns:xlink="http://www.w3.org/1999/xlink" xmlns="http://www.w3.org/2000/svg" id="chart-50246774-5f02-4033-bdca-f6b103deff8c" class="pygal-chart" viewBox="0 0 800 600"><!--Generated with pygal 2.4.0 (lxml) ©Kozea 2012-2016 on 2019-01-07--><!--http://pygal.org--><!--http://github.com/Kozea/pygal--><defs><style type="text/css">#chart-50246774-5f02-4033-bdca-f6b103deff8c{-webkit-user-select:none;-webkit-font-smoothing:antialiased;font-family:Consolas,"Liberation Mono",Menlo,Courier,monospace}#chart-50246774-5f02-4033-bdca-f6b103deff8c .title{font-family:Consolas,"Liberation Mono",Menlo,Courier,monospace;font-size:16px}#chart-50246774-5f02-4033-bdca-f6b103deff8c .legends .legend text{font-family:Consolas,"Liberation Mono",Menlo,Courier,monospace;font-size:14px}#chart-50246774-5f02-4033-bdca-f6b103deff8c .axis text{font-family:Consolas,"Liberation Mono",Menlo,Courier,monospace;font-size:10px}#chart-50246774-5f02-4033-bdca-f6b103deff8c .axis text.major{font-family:Consolas,"Liberation Mono",Menlo,Courier,monospace;font-size:10px}#chart-50246774-5f02-4033-bdca-f6b103deff8c .text-overlay text.value{font-family:Consolas,"Liberation Mono",Menlo,Courier,monospace;font-size:16px}#chart-50246774-5f02-4033-bdca-f6b103deff8c .text-overlay text.label{font-family:Consolas,"Liberation Mono",Menlo,Courier,monospace;font-size:10px}#chart-50246774-5f02-4033-bdca-f6b103deff8c .tooltip{font-family:Consolas,"Liberation Mono",Menlo,Courier,monospace;font-size:14px}#chart-50246774-5f02-4033-bdca-f6b103deff8c text.no_data{font-family:Consolas,"Liberation Mono",Menlo,Courier,monospace;font-size:64px}
#chart-50246774-5f02-4033-bdca-f6b103deff8c{background-color:black}#chart-50246774-5f02-4033-bdca-f6b103deff8c path,#chart-50246774-5f02-4033-bdca-f6b103deff8c line,#chart-50246774-5f02-4033-bdca-f6b103deff8c rect,#chart-50246774-5f02-4033-bdca-f6b103deff8c circle{-webkit-transition:250ms;-moz-transition:250ms;transition:250ms}#chart-50246774-5f02-4033-bdca-f6b103deff8c .graph &gt; .background{fill:black}#chart-50246774-5f02-4033-bdca-f6b103deff8c .plot &gt; .background{fill:#111}#chart-50246774-5f02-4033-bdca-f6b103deff8c .graph{fill:#999}#chart-50246774-5f02-4033-bdca-f6b103deff8c text.no_data{fill:#eee}#chart-50246774-5f02-4033-bdca-f6b103deff8c .title{fill:#eee}#chart-50246774-5f02-4033-bdca-f6b103deff8c .legends .legend text{fill:#999}#chart-50246774-5f02-4033-bdca-f6b103deff8c .legends .legend:hover text{fill:#eee}#chart-50246774-5f02-4033-bdca-f6b103deff8c .axis .line{stroke:#eee}#chart-50246774-5f02-4033-bdca-f6b103deff8c .axis .guide.line{stroke:#555}#chart-50246774-5f02-4033-bdca-f6b103deff8c .axis .major.line{stroke:#999}#chart-50246774-5f02-4033-bdca-f6b103deff8c .axis text.major{fill:#eee}#chart-50246774-5f02-4033-bdca-f6b103deff8c .axis.y .guides:hover .guide.line,#chart-50246774-5f02-4033-bdca-f6b103deff8c .line-graph .axis.x .guides:hover .guide.line,#chart-50246774-5f02-4033-bdca-f6b103deff8c .stackedline-graph .axis.x .guides:hover .guide.line,#chart-50246774-5f02-4033-bdca-f6b103deff8c .xy-graph .axis.x .guides:hover .guide.line{stroke:#eee}#chart-50246774-5f02-4033-bdca-f6b103deff8c .axis .guides:hover text{fill:#eee}#chart-50246774-5f02-4033-bdca-f6b103deff8c .reactive{fill-opacity:.8;stroke-opacity:.8}#chart-50246774-5f02-4033-bdca-f6b103deff8c .ci{stroke:#999}#chart-50246774-5f02-4033-bdca-f6b103deff8c .reactive.active,#chart-50246774-5f02-4033-bdca-f6b103deff8c .active .reactive{fill-opacity:.4;stroke-opacity:.9;stroke-width:4}#chart-50246774-5f02-4033-bdca-f6b103deff8c .ci .reactive.active{stroke-width:1.5}#chart-50246774-5f02-4033-bdca-f6b103deff8c .series text{fill:#eee}#chart-50246774-5f02-4033-bdca-f6b103deff8c .tooltip rect{fill:#111;stroke:#eee;-webkit-transition:opacity 250ms;-moz-transition:opacity 250ms;transition:opacity 250ms}#chart-50246774-5f02-4033-bdca-f6b103deff8c .tooltip .label{fill:#999}#chart-50246774-5f02-4033-bdca-f6b103deff8c .tooltip .label{fill:#999}#chart-50246774-5f02-4033-bdca-f6b103deff8c .tooltip .legend{font-size:.8em;fill:#555}#chart-50246774-5f02-4033-bdca-f6b103deff8c .tooltip .x_label{font-size:.6em;fill:#eee}#chart-50246774-5f02-4033-bdca-f6b103deff8c .tooltip .xlink{font-size:.5em;text-decoration:underline}#chart-50246774-5f02-4033-bdca-f6b103deff8c .tooltip .value{font-size:1.5em}#chart-50246774-5f02-4033-bdca-f6b103deff8c .bound{font-size:.5em}#chart-50246774-5f02-4033-bdca-f6b103deff8c .max-value{font-size:.75em;fill:#555}#chart-50246774-5f02-4033-bdca-f6b103deff8c .map-element{fill:#111;stroke:#555 !important}#chart-50246774-5f02-4033-bdca-f6b103deff8c .map-element .reactive{fill-opacity:inherit;stroke-opacity:inherit}#chart-50246774-5f02-4033-bdca-f6b103deff8c .color-0,#chart-50246774-5f02-4033-bdca-f6b103deff8c .color-0 a:visited{stroke:#ff5995;fill:#ff5995}#chart-50246774-5f02-4033-bdca-f6b103deff8c .text-overlay .color-0 text{fill:black}
#chart-50246774-5f02-4033-bdca-f6b103deff8c text.no_data{text-anchor:middle}#chart-50246774-5f02-4033-bdca-f6b103deff8c .guide.line{fill:none}#chart-50246774-5f02-4033-bdca-f6b103deff8c .centered{text-anchor:middle}#chart-50246774-5f02-4033-bdca-f6b103deff8c .title{text-anchor:middle}#chart-50246774-5f02-4033-bdca-f6b103deff8c .legends .legend text{fill-opacity:1}#chart-50246774-5f02-4033-bdca-f6b103deff8c .axis.x text{text-anchor:middle}#chart-50246774-5f02-4033-bdca-f6b103deff8c .axis.x:not(.web) text[transform]{text-anchor:start}#chart-50246774-5f02-4033-bdca-f6b103deff8c .axis.x:not(.web) text[transform].backwards{text-anchor:end}#chart-50246774-5f02-4033-bdca-f6b103deff8c .axis.y text{text-anchor:end}#chart-50246774-5f02-4033-bdca-f6b103deff8c .axis.y text[transform].backwards{text-anchor:start}#chart-50246774-5f02-4033-bdca-f6b103deff8c .axis.y2 text{text-anchor:start}#chart-50246774-5f02-4033-bdca-f6b103deff8c .axis.y2 text[transform].backwards{text-anchor:end}#chart-50246774-5f02-4033-bdca-f6b103deff8c .axis .guide.line{stroke-dasharray:4,4}#chart-50246774-5f02-4033-bdca-f6b103deff8c .axis .major.guide.line{stroke-dasharray:6,6}#chart-50246774-5f02-4033-bdca-f6b103deff8c .horizontal .axis.y .guide.line,#chart-50246774-5f02-4033-bdca-f6b103deff8c .horizontal .axis.y2 .guide.line,#chart-50246774-5f02-4033-bdca-f6b103deff8c .vertical .axis.x .guide.line{opacity:0}#chart-50246774-5f02-4033-bdca-f6b103deff8c .horizontal .axis.always_show .guide.line,#chart-50246774-5f02-4033-bdca-f6b103deff8c .vertical .axis.always_show .guide.line{opacity:1 !important}#chart-50246774-5f02-4033-bdca-f6b103deff8c .axis.y .guides:hover .guide.line,#chart-50246774-5f02-4033-bdca-f6b103deff8c .axis.y2 .guides:hover .guide.line,#chart-50246774-5f02-4033-bdca-f6b103deff8c .axis.x .guides:hover .guide.line{opacity:1}#chart-50246774-5f02-4033-bdca-f6b103deff8c .axis .guides:hover text{opacity:1}#chart-50246774-5f02-4033-bdca-f6b103deff8c .nofill{fill:none}#chart-50246774-5f02-4033-bdca-f6b103deff8c .subtle-fill{fill-opacity:.2}#chart-50246774-5f02-4033-bdca-f6b103deff8c .dot{stroke-width:1px;fill-opacity:1}#chart-50246774-5f02-4033-bdca-f6b103deff8c .dot.active{stroke-width:5px}#chart-50246774-5f02-4033-bdca-f6b103deff8c .dot.negative{fill:transparent}#chart-50246774-5f02-4033-bdca-f6b103deff8c text,#chart-50246774-5f02-4033-bdca-f6b103deff8c tspan{stroke:none !important}#chart-50246774-5f02-4033-bdca-f6b103deff8c .series text.active{opacity:1}#chart-50246774-5f02-4033-bdca-f6b103deff8c .tooltip rect{fill-opacity:.95;stroke-width:.5}#chart-50246774-5f02-4033-bdca-f6b103deff8c .tooltip text{fill-opacity:1}#chart-50246774-5f02-4033-bdca-f6b103deff8c .showable{visibility:hidden}#chart-50246774-5f02-4033-bdca-f6b103deff8c .showable.shown{visibility:visible}#chart-50246774-5f02-4033-bdca-f6b103deff8c .gauge-background{fill:rgba(229,229,229,1);stroke:none}#chart-50246774-5f02-4033-bdca-f6b103deff8c .bg-lines{stroke:black;stroke-width:2px}</style><script type="text/javascript">window.pygal = window.pygal || {};window.pygal.config = window.pygal.config || {};window.pygal.config['50246774-5f02-4033-bdca-f6b103deff8c'] = {"allow_interruptions": false, "box_mode": "extremes", "classes": ["pygal-chart"], "css": ["file://style.css", "file://graph.css"], "defs": [], "disable_xml_declaration": false, "dots_size": 2.5, "dynamic_print_values": false, "explicit_size": false, "fill": true, "force_uri_protocol": "https", "formatter": null, "half_pie": false, "height": 600, "include_x_axis": true, "inner_radius": 0, "interpolate": null, "interpolation_parameters": {}, "interpolation_precision": 250, "inverse_y_axis": false, "js": ["//kozea.github.io/pygal.js/2.0.x/pygal-tooltips.min.js"], "legend_at_bottom": true, "legend_at_bottom_columns": null, "legend_box_size": 12, "logarithmic": false, "margin": 20, "margin_bottom": null, "margin_left": null, "margin_right": null, "margin_top": null, "max_scale": 16, "min_scale": 4, "missing_value_fill_truncation": "x", "no_data_text": "No data", "no_prefix": false, "order_min": null, "pretty_print": false, "print_labels": false, "print_values": false, "print_values_position": "center", "print_zeroes": true, "range": null, "rounded_bars": null, "secondary_range": null, "show_dots": false, "show_legend": true, "show_minor_x_labels": true, "show_minor_y_labels": true, "show_only_major_dots": false, "show_x_guides": false, "show_x_labels": true, "show_y_guides": true, "show_y_labels": true, "spacing": 10, "stack_from_top": false, "strict": false, "stroke": true, "stroke_style": null, "style": {"background": "black", "ci_colors": [], "colors": ["#ff5995", "#b6e354", "#feed6c", "#8cedff", "#9e6ffe", "#899ca1", "#f8f8f2", "#bf4646", "#516083", "#f92672", "#82b414", "#fd971f", "#56c2d6", "#808384", "#8c54fe", "#465457"], "font_family": "Consolas, \"Liberation Mono\", Menlo, Courier, monospace", "foreground": "#999", "foreground_strong": "#eee", "foreground_subtle": "#555", "guide_stroke_dasharray": "4,4", "label_font_family": "Consolas, \"Liberation Mono\", Menlo, Courier, monospace", "label_font_size": 10, "legend_font_family": "Consolas, \"Liberation Mono\", Menlo, Courier, monospace", "legend_font_size": 14, "major_guide_stroke_dasharray": "6,6", "major_label_font_family": "Consolas, \"Liberation Mono\", Menlo, Courier, monospace", "major_label_font_size": 10, "no_data_font_family": "Consolas, \"Liberation Mono\", Menlo, Courier, monospace", "no_data_font_size": 64, "opacity": ".8", "opacity_hover": ".4", "plot_background": "#111", "stroke_opacity": ".8", "stroke_opacity_hover": ".9", "title_font_family": "Consolas, \"Liberation Mono\", Menlo, Courier, monospace", "title_font_size": 16, "tooltip_font_family": "Consolas, \"Liberation Mono\", Menlo, Courier, monospace", "tooltip_font_size": 14, "transition": "250ms", "value_background": "rgba(229, 229, 229, 1)", "value_colors": [], "value_font_family": "Consolas, \"Liberation Mono\", Menlo, Courier, monospace", "value_font_size": 16, "value_label_font_family": "Consolas, \"Liberation Mono\", Menlo, Courier, monospace", "value_label_font_size": 10}, "title": "Population size over  250 generations.", "tooltip_border_radius": 0, "tooltip_fancy_mode": true, "truncate_label": null, "truncate_legend": null, "width": 800, "x_label_rotation": 0, "x_labels": null, "x_labels_major": null, "x_labels_major_count": null, "x_labels_major_every": null, "x_title": null, "xrange": null, "y_label_rotation": 0, "y_labels": null, "y_labels_major": null, "y_labels_major_count": null, "y_labels_major_every": null, "y_title": null, "zero": 0, "legends": ["Population size"]}</script><script type="text/javascript" xlink:href="https://kozea.github.io/pygal.js/2.0.x/pygal-tooltips.min.js"/></defs><title>Population size over  250 generations.</title><g class="graph xy-graph vertical"><rect class="background" height="600" width="800" x="0" y="0"/><g class="plot" transform="translate(42, 46)"><rect class="background" height="490.0" width="738.0" x="0" y="0"/><g class="axis y always_show"><g class="guides"><path class="axis major line" d="M0.000000 480.576923 h738.000000"/><text class="major" x="-5" y="484.0769230769231">0</text><title>0</title></g><g class="guides"><path class="guide line" d="M0.000000 408.091716 h738.000000"/><text class="" x="-5" y="411.59171597633133">10</text><title>10</title></g><g class="guides"><path class="guide line" d="M0.000000 335.606509 h738.000000"/><text class="" x="-5" y="339.1065088757396">20</text><title>20</title></g><g class="guides"><path class="guide line" d="M0.000000 263.121302 h738.000000"/><text class="" x="-5" y="266.6213017751479">30</text><title>30</title></g><g class="guides"><path class="guide line" d="M0.000000 190.636095 h738.000000"/><text class="" x="-5" y="194.1360946745562">40</text><title>40</title></g><g class="guides"><path class="major guide line" d="M0.000000 118.150888 h738.000000"/><text class="major" x="-5" y="121.65088757396444">50</text><title>50</title></g><g class="guides"><path class="guide line" d="M0.000000 45.665680 h738.000000"/><text class="" x="-5" y="49.16568047337273">60</text><title>60</title></g></g><g class="axis x"><g class="guides"><path class="axis line" d="M14.192308 0.000000 v490.000000"/><text class="" x="14.192307692307692" y="505.0">0</text><title>0</title></g><g class="guides"><path class="guide line" d="M70.961538 0.000000 v490.000000"/><text class="" x="70.96153846153847" y="505.0">20</text><title>20</title></g><g class="guides"><path class="guide line" d="M127.730769 0.000000 v490.000000"/><text class="" x="127.73076923076923" y="505.0">40</text><title>40</title></g><g class="guides"><path class="guide line" d="M184.500000 0.000000 v490.000000"/><text class="" x="184.5" y="505.0">60</text><title>60</title></g><g class="guides"><path class="guide line" d="M241.269231 0.000000 v490.000000"/><text class="" x="241.26923076923077" y="505.0">80</text><title>80</title></g><g class="guides"><path class="guide line" d="M298.038462 0.000000 v490.000000"/><text class="" x="298.03846153846155" y="505.0">100</text><title>100</title></g><g class="guides"><path class="guide line" d="M354.807692 0.000000 v490.000000"/><text class="" x="354.8076923076923" y="505.0">120</text><title>120</title></g><g class="guides"><path class="guide line" d="M411.576923 0.000000 v490.000000"/><text class="" x="411.5769230769231" y="505.0">140</text><title>140</title></g><g class="guides"><path class="guide line" d="M468.346154 0.000000 v490.000000"/><text class="" x="468.34615384615387" y="505.0">160</text><title>160</title></g><g class="guides"><path class="guide line" d="M525.115385 0.000000 v490.000000"/><text class="" x="525.1153846153846" y="505.0">180</text><title>180</title></g><g class="guides"><path class="guide line" d="M581.884615 0.000000 v490.000000"/><text class="" x="581.8846153846154" y="505.0">200</text><title>200</title></g><g class="guides"><path class="guide line" d="M638.653846 0.000000 v490.000000"/><text class="" x="638.6538461538462" y="505.0">220</text><title>220</title></g><g class="guides"><path class="guide line" d="M695.423077 0.000000 v490.000000"/><text class="" x="695.4230769230769" y="505.0">240</text><title>240</title></g></g><g class="series serie-0 color-0"><path class="line reactive" d="M14.192308 480.576923 L14.192308 118.150888 17.030769 103.653846 19.869231 125.399408 22.707692 110.902367 25.546154 96.405325 28.384615 118.150888 31.223077 132.647929 34.061538 132.647929 36.900000 132.647929 39.738462 110.902367 42.576923 139.896450 45.415385 154.393491 48.253846 139.896450 51.092308 139.896450 53.930769 147.144970 56.769231 161.642012 59.607692 168.890533 62.446154 168.890533 65.284615 161.642012 68.123077 161.642012 70.961538 176.139053 73.800000 147.144970 76.638462 147.144970 79.476923 154.393491 82.315385 176.139053 85.153846 176.139053 87.992308 176.139053 90.830769 161.642012 93.669231 154.393491 96.507692 147.144970 99.346154 161.642012 102.184615 161.642012 105.023077 161.642012 107.861538 168.890533 110.700000 168.890533 113.538462 183.387574 116.376923 183.387574 119.215385 183.387574 122.053846 190.636095 124.892308 183.387574 127.730769 197.884615 130.569231 219.630178 133.407692 234.127219 136.246154 219.630178 139.084615 212.381657 141.923077 190.636095 144.761538 176.139053 147.600000 139.896450 150.438462 132.647929 153.276923 103.653846 156.115385 96.405325 158.953846 118.150888 161.792308 125.399408 164.630769 161.642012 167.469231 147.144970 170.307692 147.144970 173.146154 176.139053 175.984615 197.884615 178.823077 212.381657 181.661538 205.133136 184.500000 212.381657 187.338462 219.630178 190.176923 205.133136 193.015385 190.636095 195.853846 168.890533 198.692308 139.896450 201.530769 132.647929 204.369231 96.405325 207.207692 103.653846 210.046154 110.902367 212.884615 132.647929 215.723077 110.902367 218.561538 118.150888 221.400000 110.902367 224.238462 110.902367 227.076923 103.653846 229.915385 103.653846 232.753846 118.150888 235.592308 103.653846 238.430769 81.908284 241.269231 81.908284 244.107692 118.150888 246.946154 125.399408 249.784615 125.399408 252.623077 118.150888 255.461538 132.647929 258.300000 125.399408 261.138462 139.896450 263.976923 139.896450 266.815385 132.647929 269.653846 125.399408 272.492308 118.150888 275.330769 132.647929 278.169231 132.647929 281.007692 125.399408 283.846154 118.150888 286.684615 132.647929 289.523077 139.896450 292.361538 139.896450 295.200000 125.399408 298.038462 125.399408 300.876923 103.653846 303.715385 118.150888 306.553846 103.653846 309.392308 89.156805 312.230769 74.659763 315.069231 67.411243 317.907692 67.411243 320.746154 45.665680 323.584615 52.914201 326.423077 31.168639 329.261538 31.168639 332.100000 31.168639 334.938462 23.920118 337.776923 16.671598 340.615385 9.423077 343.453846 45.665680 346.292308 60.162722 349.130769 60.162722 351.969231 81.908284 354.807692 110.902367 357.646154 118.150888 360.484615 125.399408 363.323077 139.896450 366.161538 132.647929 369.000000 154.393491 371.838462 132.647929 374.676923 132.647929 377.515385 118.150888 380.353846 132.647929 383.192308 132.647929 386.030769 139.896450 388.869231 147.144970 391.707692 139.896450 394.546154 125.399408 397.384615 147.144970 400.223077 147.144970 403.061538 168.890533 405.900000 161.642012 408.738462 132.647929 411.576923 96.405325 414.415385 96.405325 417.253846 74.659763 420.092308 103.653846 422.930769 81.908284 425.769231 103.653846 428.607692 110.902367 431.446154 89.156805 434.284615 74.659763 437.123077 67.411243 439.961538 67.411243 442.800000 52.914201 445.638462 45.665680 448.476923 45.665680 451.315385 60.162722 454.153846 81.908284 456.992308 110.902367 459.830769 96.405325 462.669231 52.914201 465.507692 60.162722 468.346154 52.914201 471.184615 89.156805 474.023077 132.647929 476.861538 125.399408 479.700000 139.896450 482.538462 132.647929 485.376923 132.647929 488.215385 154.393491 491.053846 161.642012 493.892308 190.636095 496.730769 183.387574 499.569231 161.642012 502.407692 154.393491 505.246154 154.393491 508.084615 125.399408 510.923077 110.902367 513.761538 110.902367 516.600000 125.399408 519.438462 161.642012 522.276923 154.393491 525.115385 147.144970 527.953846 147.144970 530.792308 139.896450 533.630769 139.896450 536.469231 139.896450 539.307692 110.902367 542.146154 125.399408 544.984615 176.139053 547.823077 197.884615 550.661538 190.636095 553.500000 190.636095 556.338462 190.636095 559.176923 183.387574 562.015385 183.387574 564.853846 205.133136 567.692308 212.381657 570.530769 212.381657 573.369231 205.133136 576.207692 219.630178 579.046154 212.381657 581.884615 212.381657 584.723077 205.133136 587.561538 212.381657 590.400000 197.884615 593.238462 205.133136 596.076923 190.636095 598.915385 168.890533 601.753846 168.890533 604.592308 176.139053 607.430769 168.890533 610.269231 190.636095 613.107692 197.884615 615.946154 176.139053 618.784615 176.139053 621.623077 176.139053 624.461538 168.890533 627.300000 147.144970 630.138462 139.896450 632.976923 147.144970 635.815385 147.144970 638.653846 139.896450 641.492308 132.647929 644.330769 125.399408 647.169231 110.902367 650.007692 96.405325 652.846154 81.908284 655.684615 89.156805 658.523077 89.156805 661.361538 60.162722 664.200000 67.411243 667.038462 60.162722 669.876923 52.914201 672.715385 23.920118 675.553846 52.914201 678.392308 81.908284 681.230769 110.902367 684.069231 125.399408 686.907692 125.399408 689.746154 125.399408 692.584615 103.653846 695.423077 103.653846 698.261538 110.902367 701.100000 110.902367 703.938462 110.902367 706.776923 118.150888 709.615385 125.399408 712.453846 103.653846 715.292308 89.156805 718.130769 81.908284 720.969231 81.908284 723.807692 81.908284 723.807692 480.576923"/></g></g><g class="titles"><text class="title plot_title" x="400.0" y="26">Population size over  250 generations.</text></g><g class="plot overlay" transform="translate(42, 46)"><g class="series serie-0 color-0"/></g><g class="plot text-overlay" transform="translate(42, 46)"><g class="series serie-0 color-0"/></g><g class="plot tooltip-overlay" transform="translate(42, 46)"><g class="tooltip" style="opacity: 0" transform="translate(0 0)"><rect class="tooltip-box" height="0" rx="0" ry="0" width="0"/><g class="text"/></g></g><g class="legends" transform="translate(52, 566)"><g class="legend reactive activate-serie" id="activate-serie-0"><rect class="color-0 reactive" height="12" width="12" x="0.0" y="1.0"/><text x="17.0" y="11.2">Population size</text></g></g></g></svg>