<?xml version='1.0' encoding='utf-8'?>
<svg xmlns:xlink="http://www.w3.org/1999/xlink" xmlns="http://www.w3.org/2000/svg" id="chart-b8587d5e-c9b8-4cfb-9385-337a3f93fd83" class="pygal-chart" viewBox="0 0 800 600"><!--Generated with pygal 2.4.0 (lxml) ©Kozea 2012-2016 on 2019-01-08--><!--http://pygal.org--><!--http://github.com/Kozea/pygal--><defs><style type="text/css">#chart-b8587d5e-c9b8-4cfb-9385-337a3f93fd83{-webkit-user-select:none;-webkit-font-smoothing:antialiased;font-family:Consolas,"Liberation Mono",Menlo,Courier,monospace}#chart-b8587d5e-c9b8-4cfb-9385-337a3f93fd83 .title{font-family:Consolas,"Liberation Mono",Menlo,Courier,monospace;font-size:16px}#chart-b8587d5e-c9b8-4cfb-9385-337a3f93fd83 .legends .legend text{font-family:Consolas,"Liberation Mono",Menlo,Courier,monospace;font-size:14px}#chart-b8587d5e-c9b8-4cfb-9385-337a3f93fd83 .axis text{font-family:Consolas,"Liberation Mono",Menlo,Courier,monospace;font-size:10px}#chart-b8587d5e-c9b8-4cfb-9385-337a3f93fd83 .axis text.major{font-family:Consolas,"Liberation Mono",Menlo,Courier,monospace;font-size:10px}#chart-b8587d5e-c9b8-4cfb-9385-337a3f93fd83 .text-overlay text.value{font-family:Consolas,"Liberation Mono",Menlo,Courier,monospace;font-size:16px}#chart-b8587d5e-c9b8-4cfb-9385-337a3f93fd83 .text-overlay text.label{font-family:Consolas,"Liberation Mono",Menlo,Courier,monospace;font-size:10px}#chart-b8587d5e-c9b8-4cfb-9385-337a3f93fd83 .tooltip{font-family:Consolas,"Liberation Mono",Menlo,Courier,monospace;font-size:14px}#chart-b8587d5e-c9b8-4cfb-9385-337a3f93fd83 text.no_data{font-family:Consolas,"Liberation Mono",Menlo,Courier,monospace;font-size:64px}
#chart-b8587d5e-c9b8-4cfb-9385-337a3f93fd83{background-color:black}#chart-b8587d5e-c9b8-4cfb-9385-337a3f93fd83 path,#chart-b8587d5e-c9b8-4cfb-9385-337a3f93fd83 line,#chart-b8587d5e-c9b8-4cfb-9385-337a3f93fd83 rect,#chart-b8587d5e-c9b8-4cfb-9385-337a3f93fd83 circle{-webkit-transition:250ms;-moz-transition:250ms;transition:250ms}#chart-b8587d5e-c9b8-4cfb-9385-337a3f93fd83 .graph &gt; .background{fill:black}#chart-b8587d5e-c9b8-4cfb-9385-337a3f93fd83 .plot &gt; .background{fill:#111}#chart-b8587d5e-c9b8-4cfb-9385-337a3f93fd83 .graph{fill:#999}#chart-b8587d5e-c9b8-4cfb-9385-337a3f93fd83 text.no_data{fill:#eee}#chart-b8587d5e-c9b8-4cfb-9385-337a3f93fd83 .title{fill:#eee}#chart-b8587d5e-c9b8-4cfb-9385-337a3f93fd83 .legends .legend text{fill:#999}#chart-b8587d5e-c9b8-4cfb-9385-337a3f93fd83 .legends .legend:hover text{fill:#eee}#chart-b8587d5e-c9b8-4cfb-9385-337a3f93fd83 .axis .line{stroke:#eee}#chart-b8587d5e-c9b8-4cfb-9385-337a3f93fd83 .axis .guide.line{stroke:#555}#chart-b8587d5e-c9b8-4cfb-9385-337a3f93fd83 .axis .major.line{stroke:#999}#chart-b8587d5e-c9b8-4cfb-9385-337a3f93fd83 .axis text.major{fill:#eee}#chart-b8587d5e-c9b8-4cfb-9385-337a3f93fd83 .axis.y .guides:hover .guide.line,#chart-b8587d5e-c9b8-4cfb-9385-337a3f93fd83 .line-graph .axis.x .guides:hover .guide.line,#chart-b8587d5e-c9b8-4cfb-9385-337a3f93fd83 .stackedline-graph .axis.x .guides:hover .guide.line,#chart-b8587d5e-c9b8-4cfb-9385-337a3f93fd83 .xy-graph .axis.x .guides:hover .guide.line{stroke:#eee}#chart-b8587d5e-c9b8-4cfb-9385-337a3f93fd83 .axis .guides:hover text{fill:#eee}#chart-b8587d5e-c9b8-4cfb-9385-337a3f93fd83 .reactive{fill-opacity:.8;stroke-opacity:.8}#chart-b8587d5e-c9b8-4cfb-9385-337a3f93fd83 .ci{stroke:#999}#chart-b8587d5e-c9b8-4cfb-9385-337a3f93fd83 .reactive.active,#chart-b8587d5e-c9b8-4cfb-9385-337a3f93fd83 .active .reactive{fill-opacity:.4;stroke-opacity:.9;stroke-width:4}#chart-b8587d5e-c9b8-4cfb-9385-337a3f93fd83 .ci .reactive.active{stroke-width:1.5}#chart-b8587d5e-c9b8-4cfb-9385-337a3f93fd83 .series text{fill:#eee}#chart-b8587d5e-c9b8-4cfb-9385-337a3f93fd83 .tooltip rect{fill:#111;stroke:#eee;-webkit-transition:opacity 250ms;-moz-transition:opacity 250ms;transition:opacity 250ms}#chart-b8587d5e-c9b8-4cfb-9385-337a3f93fd83 .tooltip .label{fill:#999}#chart-b8587d5e-c9b8-4cfb-9385-337a3f93fd83 .tooltip .label{fill:#999}#chart-b8587d5e-c9b8-4cfb-9385-337a3f93fd83 .tooltip .legend{font-size:.8em;fill:#555}#chart-b8587d5e-c9b8-4cfb-9385-337a3f93fd83 .tooltip .x_label{font-size:.6em;fill:#eee}#chart-b8587d5e-c9b8-4cfb-9385-337a3f93fd83 .tooltip .xlink{font-size:.5em;text-decoration:underline}#chart-b8587d5e-c9b8-4cfb-9385-337a3f93fd83 .tooltip .value{font-size:1.5em}#chart-b8587d5e-c9b8-4cfb-9385-337a3f93fd83 .bound{font-size:.5em}#chart-b8587d5e-c9b8-4cfb-9385-337a3f93fd83 .max-value{font-size:.75em;fill:#555}#chart-b8587d5e-c9b8-4cfb-9385-337a3f93fd83 .map-element{fill:#111;stroke:#555 !important}#chart-b8587d5e-c9b8-4cfb-9385-337a3f93fd83 .map-element .reactive{fill-opacity:inherit;stroke-opacity:inherit}#chart-b8587d5e-c9b8-4cfb-9385-337a3f93fd83 .color-0,#chart-b8587d5e-c9b8-4cfb-9385-337a3f93fd83 .color-0 a:visited{stroke:#ff5995;fill:#ff5995}#chart-b8587d5e-c9b8-4cfb-9385-337a3f93fd83 .text-overlay .color-0 text{fill:black}
#chart-b8587d5e-c9b8-4cfb-9385-337a3f93fd83 text.no_data{text-anchor:middle}#chart-b8587d5e-c9b8-4cfb-9385-337a3f93fd83 .guide.line{fill:none}#chart-b8587d5e-c9b8-4cfb-9385-337a3f93fd83 .centered{text-anchor:middle}#chart-b8587d5e-c9b8-4cfb-9385-337a3f93fd83 .title{text-anchor:middle}#chart-b8587d5e-c9b8-4cfb-9385-337a3f93fd83 .legends .legend text{fill-opacity:1}#chart-b8587d5e-c9b8-4cfb-9385-337a3f93fd83 .axis.x text{text-anchor:middle}#chart-b8587d5e-c9b8-4cfb-9385-337a3f93fd83 .axis.x:not(.web) text[transform]{text-anchor:start}#chart-b8587d5e-c9b8-4cfb-9385-337a3f93fd83 .axis.x:not(.web) text[transform].backwards{text-anchor:end}#chart-b8587d5e-c9b8-4cfb-9385-337a3f93fd83 .axis.y text{text-anchor:end}#chart-b8587d5e-c9b8-4cfb-9385-337a3f93fd83 .axis.y text[transform].backwards{text-anchor:start}#chart-b8587d5e-c9b8-4cfb-9385-337a3f93fd83 .axis.y2 text{text-anchor:start}#chart-b8587d5e-c9b8-4cfb-9385-337a3f93fd83 .axis.y2 text[transform].backwards{text-anchor:end}#chart-b8587d5e-c9b8-4cfb-9385-337a3f93fd83 .axis .guide.line{stroke-dasharray:4,4}#chart-b8587d5e-c9b8-4cfb-9385-337a3f93fd83 .axis .major.guide.line{stroke-dasharray:6,6}#chart-b8587d5e-c9b8-4cfb-9385-337a3f93fd83 .horizontal .axis.y .guide.line,#chart-b8587d5e-c9b8-4cfb-9385-337a3f93fd83 .horizontal .axis.y2 .guide.line,#chart-b8587d5e-c9b8-4cfb-9385-337a3f93fd83 .vertical .axis.x .guide.line{opacity:0}#chart-b8587d5e-c9b8-4cfb-9385-337a3f93fd83 .horizontal .axis.always_show .guide.line,#chart-b8587d5e-c9b8-4cfb-9385-337a3f93fd83 .vertical .axis.always_show .guide.line{opacity:1 !important}#chart-b8587d5e-c9b8-4cfb-9385-337a3f93fd83 .axis.y .guides:hover .guide.line,#chart-b8587d5e-c9b8-4cfb-9385-337a3f93fd83 .axis.y2 .guides:hover .guide.line,#chart-b8587d5e-c9b8-4cfb-9385-337a3f93fd83 .axis.x .guides:hover .guide.line{opacity:1}#chart-b8587d5e-c9b8-4cfb-9385-337a3f93fd83 .axis .guides:hover text{opacity:1}#chart-b8587d5e-c9b8-4cfb-9385-337a3f93fd83 .nofill{fill:none}#chart-b8587d5e-c9b8-4cfb-9385-337a3f93fd83 .subtle-fill{fill-opacity:.2}#chart-b8587d5e-c9b8-4cfb-9385-337a3f93fd83 .dot{stroke-width:1px;fill-opacity:1}#chart-b8587d5e-c9b8-4cfb-9385-337a3f93fd83 .dot.active{stroke-width:5px}#chart-b8587d5e-c9b8-4cfb-9385-337a3f93fd83 .dot.negative{fill:transparent}#chart-b8587d5e-c9b8-4cfb-9385-337a3f93fd83 text,#chart-b8587d5e-c9b8-4cfb-9385-337a3f93fd83 tspan{stroke:none !important}#chart-b8587d5e-c9b8-4cfb-9385-337a3f93fd83 .series text.active{opacity:1}#chart-b8587d5e-c9b8-4cfb-9385-337a3f93fd83 .tooltip rect{fill-opacity:.95;stroke-width:.5}#chart-b8587d5e-c9b8-4cfb-9385-337a3f93fd83 .tooltip text{fill-opacity:1}#chart-b8587d5e-c9b8-4cfb-9385-337a3f93fd83 .showable{visibility:hidden}#chart-b8587d5e-c9b8-4cfb-9385-337a3f93fd83 .showable.shown{visibility:visible}#chart-b8587d5e-c9b8-4cfb-9385-337a3f93fd83 .gauge-background{fill:rgba(229,229,229,1);stroke:none}#chart-b8587d5e-c9b8-4cfb-9385-337a3f93fd83 .bg-lines{stroke:black;stroke-width:2px}</style><script type="text/javascript">window.pygal = window.pygal || {};window.pygal.config = window.pygal.config || {};window.pygal.config['b8587d5e-c9b8-4cfb-9385-337a3f93fd83'] = {"allow_interruptions": false, "box_mode": "extremes", "classes": ["pygal-chart"], "css": ["file://style.css", "file://graph.css"], "defs": [], "disable_xml_declaration": false, "dots_size": 2.5, "dynamic_print_values": false, "explicit_size": false, "fill": true, "force_uri_protocol": "https", "formatter": null, "half_pie": false, "height": 600, "include_x_axis": true, "inner_radius": 0, "interpolate": null, "interpolation_parameters": {}, "interpolation_precision": 250, "inverse_y_axis": false, "js": ["//kozea.github.io/pygal.js/2.0.x/pygal-tooltips.min.js"], "legend_at_bottom": true, "legend_at_bottom_columns": null, "legend_box_size": 12, "logarithmic": false, "margin": 20, "margin_bottom": null, "margin_left": null, "margin_right": null, "margin_top": null, "max_scale": 16, "min_scale": 4, "missing_value_fill_truncation": "x", "no_data_text": "No data", "no_prefix": false, "order_min": null, "pretty_print": false, "print_labels": false, "print_values": false, "print_values_position": "center", "print_zeroes": true, "range": null, "rounded_bars": null, "secondary_range": null, "show_dots": false, "show_legend": true, "show_minor_x_labels": true, "show_minor_y_labels": true, "show_only_major_dots": false, "show_x_guides": false, "show_x_labels": true, "show_y_guides": true, "show_y_labels": true, "spacing": 10, "stack_from_top": false, "strict": false, "stroke": true, "stroke_style": null, "style": {"background": "black", "ci_colors": [], "colors": ["#ff5995", "#b6e354", "#feed6c", "#8cedff", "#9e6ffe", "#899ca1", "#f8f8f2", "#bf4646", "#516083", "#f92672", "#82b414", "#fd971f", "#56c2d6", "#808384", "#8c54fe", "#465457"], "font_family": "Consolas, \"Liberation Mono\", Menlo, Courier, monospace", "foreground": "#999", "foreground_strong": "#eee", "foreground_subtle": "#555", "guide_stroke_dasharray": "4,4", "label_font_family": "Consolas, \"Liberation Mono\", Menlo, Courier, monospace", "label_font_size": 10, "legend_font_family": "Consolas, \"Liberation Mono\", Menlo, Courier, monospace", "legend_font_size": 14, "major_guide_stroke_dasharray": "6,6", "major_label_font_family": "Consolas, \"Liberation Mono\", Menlo, Courier, monospace", "major_label_font_size": 10, "no_data_font_family": "Consolas, \"Liberation Mono\", Menlo, Courier, monospace", "no_data_font_size": 64, "opacity": ".8", "opacity_hover": ".4", "plot_background": "#111", "stroke_opacity": ".8", "stroke_opacity_hover": ".9", "title_font_family": "Consolas, \"Liberation Mono\", Menlo, Courier, monospace", "title_font_size": 16, "tooltip_font_family": "Consolas, \"Liberation Mono\", Menlo, Courier, monospace", "tooltip_font_size": 14, "transition": "250ms", "value_background": "rgba(229, 229, 229, 1)", "value_colors": [], "value_font_family": "Consolas, \"Liberation Mono\", Menlo, Courier, monospace", "value_font_size": 16, "value_label_font_family": "Consolas, \"Liberation Mono\", Menlo, Courier, monospace", "value_label_font_size": 10}, "title": "Population size over  250 generations.", "tooltip_border_radius": 0, "tooltip_fancy_mode": true, "truncate_label": null, "truncate_legend": null, "width": 800, "x_label_rotation": 0, "x_labels": null, "x_labels_major": null, "x_labels_major_count": null, "x_labels_major_every": null, "x_title": null, "xrange": null, "y_label_rotation": 0, "y_labels": null, "y_labels_major": null, "y_labels_major_count": null, "y_labels_major_every": null, "y_title": null, "zero": 0, "legends": ["Population size"]}</script><script type="text/javascript" xlink:href="https://kozea.github.io/pygal.js/2.0.x/pygal-tooltips.min.js"/></defs><title>Population size over  250 generations.</title><g class="graph xy-graph vertical"><rect class="background" height="600" width="800" x="0" y="0"/><g class="plot" transform="translate(42, 46)"><rect class="background" height="490.0" width="738.0" x="0" y="0"/><g class="axis y always_show"><g class="guides"><path class="axis major line" d="M0.000000 480.576923 h738.000000"/><text class="major" x="-5" y="484.0769230769231">0</text><title>0</title></g><g class="guides"><path class="guide line" d="M0.000000 400.720339 h738.000000"/><text class="" x="-5" y="404.22033898305085">10</text><title>10</title></g><g class="guides"><path class="guide line" d="M0.000000 320.863755 h738.000000"/><text class="" x="-5" y="324.3637548891786">20</text><title>20</title></g><g class="guides"><path class="guide line" d="M0.000000 241.007171 h738.000000"/><text class="" x="-5" y="244.50717079530637">30</text><title>30</title></g><g class="guides"><path class="guide line" d="M0.000000 161.150587 h738.000000"/><text class="" x="-5" y="164.65058670143412">40</text><title>40</title></g><g class="guides"><path class="major guide line" d="M0.000000 81.294003 h738.000000"/><text class="major" x="-5" y="84.79400260756194">50</text><title>50</title></g></g><g class="axis x"><g class="guides"><path class="axis line" d="M14.192308 0.000000 v490.000000"/><text class="" x="14.192307692307695" y="505.0">0</text><title>0</title></g><g class="guides"><path class="guide line" d="M71.189527 0.000000 v490.000000"/><text class="" x="71.18952734012976" y="505.0">20</text><title>20</title></g><g class="guides"><path class="guide line" d="M128.186747 0.000000 v490.000000"/><text class="" x="128.18674698795184" y="505.0">40</text><title>40</title></g><g class="guides"><path class="guide line" d="M185.183967 0.000000 v490.000000"/><text class="" x="185.1839666357739" y="505.0">60</text><title>60</title></g><g class="guides"><path class="guide line" d="M242.181186 0.000000 v490.000000"/><text class="" x="242.18118628359596" y="505.0">80</text><title>80</title></g><g class="guides"><path class="guide line" d="M299.178406 0.000000 v490.000000"/><text class="" x="299.178405931418" y="505.0">100</text><title>100</title></g><g class="guides"><path class="guide line" d="M356.175626 0.000000 v490.000000"/><text class="" x="356.1756255792401" y="505.0">120</text><title>120</title></g><g class="guides"><path class="guide line" d="M413.172845 0.000000 v490.000000"/><text class="" x="413.1728452270621" y="505.0">140</text><title>140</title></g><g class="guides"><path class="guide line" d="M470.170065 0.000000 v490.000000"/><text class="" x="470.17006487488413" y="505.0">160</text><title>160</title></g><g class="guides"><path class="guide line" d="M527.167285 0.000000 v490.000000"/><text class="" x="527.1672845227063" y="505.0">180</text><title>180</title></g><g class="guides"><path class="guide line" d="M584.164504 0.000000 v490.000000"/><text class="" x="584.1645041705283" y="505.0">200</text><title>200</title></g><g class="guides"><path class="guide line" d="M641.161724 0.000000 v490.000000"/><text class="" x="641.1617238183503" y="505.0">220</text><title>220</title></g><g class="guides"><path class="guide line" d="M698.158943 0.000000 v490.000000"/><text class="" x="698.1589434661724" y="505.0">240</text><title>240</title></g></g><g class="series serie-0 color-0"><path class="line reactive" d="M14.192308 480.576923 L14.192308 81.294003 17.042169 65.322686 19.892030 49.351369 22.741891 81.294003 25.591752 105.250978 28.441613 137.193611 31.291474 153.164928 34.141335 161.150587 36.991196 169.136245 39.841057 193.093220 42.690918 177.121904 45.540778 169.136245 48.390639 161.150587 51.240500 153.164928 54.090361 153.164928 56.940222 137.193611 59.790083 145.179270 62.639944 137.193611 65.489805 145.179270 68.339666 161.150587 71.189527 161.150587 74.039388 161.150587 76.889249 153.164928 79.739110 153.164928 82.588971 145.179270 85.438832 153.164928 88.288693 153.164928 91.138554 153.164928 93.988415 153.164928 96.838276 161.150587 99.688137 161.150587 102.537998 129.207953 105.387859 129.207953 108.237720 137.193611 111.087581 137.193611 113.937442 129.207953 116.787303 145.179270 119.637164 153.164928 122.487025 177.121904 125.336886 153.164928 128.186747 177.121904 131.036608 193.093220 133.886469 177.121904 136.736330 185.107562 139.586191 185.107562 142.436052 169.136245 145.285913 169.136245 148.135774 161.150587 150.985635 177.121904 153.835496 185.107562 156.685357 201.078879 159.535218 217.050196 162.385079 209.064537 165.234940 185.107562 168.084801 217.050196 170.934662 209.064537 173.784523 217.050196 176.634384 217.050196 179.484245 209.064537 182.334106 233.021512 185.183967 225.035854 188.033828 241.007171 190.883689 233.021512 193.733550 233.021512 196.583411 209.064537 199.433272 201.078879 202.283133 193.093220 205.132994 169.136245 207.982854 161.150587 210.832715 161.150587 213.682576 161.150587 216.532437 153.164928 219.382298 177.121904 222.232159 161.150587 225.082020 161.150587 227.931881 153.164928 230.781742 177.121904 233.631603 177.121904 236.481464 169.136245 239.331325 161.150587 242.181186 145.179270 245.031047 169.136245 247.880908 153.164928 250.730769 145.179270 253.580630 137.193611 256.430491 145.179270 259.280352 137.193611 262.130213 145.179270 264.980074 137.193611 267.829935 137.193611 270.679796 137.193611 273.529657 169.136245 276.379518 161.150587 279.229379 153.164928 282.079240 161.150587 284.929101 137.193611 287.778962 145.179270 290.628823 145.179270 293.478684 113.236636 296.328545 137.193611 299.178406 105.250978 302.028267 121.222295 304.878128 129.207953 307.727989 113.236636 310.577850 105.250978 313.427711 145.179270 316.277572 153.164928 319.127433 137.193611 321.977294 129.207953 324.827155 137.193611 327.677016 129.207953 330.526877 121.222295 333.376738 145.179270 336.226599 169.136245 339.076460 161.150587 341.926321 145.179270 344.776182 137.193611 347.626043 121.222295 350.475904 113.236636 353.325765 105.250978 356.175626 105.250978 359.025487 97.265319 361.875348 97.265319 364.725209 105.250978 367.575070 97.265319 370.424930 121.222295 373.274791 129.207953 376.124652 105.250978 378.974513 113.236636 381.824374 145.179270 384.674235 161.150587 387.524096 161.150587 390.373957 169.136245 393.223818 161.150587 396.073679 169.136245 398.923540 161.150587 401.773401 177.121904 404.623262 161.150587 407.473123 161.150587 410.322984 169.136245 413.172845 153.164928 416.022706 137.193611 418.872567 129.207953 421.722428 137.193611 424.572289 137.193611 427.422150 129.207953 430.272011 129.207953 433.121872 153.164928 435.971733 169.136245 438.821594 153.164928 441.671455 161.150587 444.521316 177.121904 447.371177 169.136245 450.221038 145.179270 453.070899 121.222295 455.920760 105.250978 458.770621 89.279661 461.620482 73.308344 464.470343 97.265319 467.320204 57.337027 470.170065 49.351369 473.019926 57.337027 475.869787 65.322686 478.719648 65.322686 481.569509 89.279661 484.419370 105.250978 487.269231 89.279661 490.119092 73.308344 492.968953 81.294003 495.818814 57.337027 498.668675 33.380052 501.518536 57.337027 504.368397 49.351369 507.218258 9.423077 510.068119 25.394394 512.917980 49.351369 515.767841 49.351369 518.617702 73.308344 521.467563 97.265319 524.317424 73.308344 527.167285 57.337027 530.017146 33.380052 532.867006 25.394394 535.716867 41.365711 538.566728 65.322686 541.416589 65.322686 544.266450 81.294003 547.116311 73.308344 549.966172 73.308344 552.816033 49.351369 555.665894 57.337027 558.515755 97.265319 561.365616 105.250978 564.215477 97.265319 567.065338 121.222295 569.915199 145.179270 572.765060 129.207953 575.614921 129.207953 578.464782 145.179270 581.314643 137.193611 584.164504 153.164928 587.014365 169.136245 589.864226 153.164928 592.714087 153.164928 595.563948 153.164928 598.413809 153.164928 601.263670 137.193611 604.113531 129.207953 606.963392 145.179270 609.813253 129.207953 612.663114 97.265319 615.512975 89.279661 618.362836 89.279661 621.212697 73.308344 624.062558 73.308344 626.912419 49.351369 629.762280 65.322686 632.612141 73.308344 635.462002 89.279661 638.311863 105.250978 641.161724 113.236636 644.011585 105.250978 646.861446 73.308344 649.711307 113.236636 652.561168 121.222295 655.411029 97.265319 658.260890 89.279661 661.110751 81.294003 663.960612 73.308344 666.810473 65.322686 669.660334 57.337027 672.510195 73.308344 675.360056 113.236636 678.209917 113.236636 681.059778 121.222295 683.909639 97.265319 686.759500 97.265319 689.609361 113.236636 692.459222 145.179270 695.309082 161.150587 698.158943 153.164928 701.008804 169.136245 703.858665 185.107562 706.708526 185.107562 709.558387 169.136245 712.408248 185.107562 715.258109 193.093220 718.107970 185.107562 720.957831 201.078879 723.807692 193.093220 723.807692 480.576923"/></g></g><g class="titles"><text class="title plot_title" x="400.0" y="26">Population size over  250 generations.</text></g><g class="plot overlay" transform="translate(42, 46)"><g class="series serie-0 color-0"/></g><g class="plot text-overlay" transform="translate(42, 46)"><g class="series serie-0 color-0"/></g><g class="plot tooltip-overlay" transform="translate(42, 46)"><g class="tooltip" style="opacity: 0" transform="translate(0 0)"><rect class="tooltip-box" height="0" rx="0" ry="0" width="0"/><g class="text"/></g></g><g class="legends" transform="translate(52, 566)"><g class="legend reactive activate-serie" id="activate-serie-0"><rect class="color-0 reactive" height="12" width="12" x="0.0" y="1.0"/><text x="17.0" y="11.2">Population size</text></g></g></g></svg>