<?xml version='1.0' encoding='utf-8'?>
<svg xmlns:xlink="http://www.w3.org/1999/xlink" xmlns="http://www.w3.org/2000/svg" id="chart-7763e45c-611a-4f68-a07d-4b01dc2688a7" class="pygal-chart" viewBox="0 0 800 600"><!--Generated with pygal 2.4.0 (lxml) ©Kozea 2012-2016 on 2019-01-08--><!--http://pygal.org--><!--http://github.com/Kozea/pygal--><defs><style type="text/css">#chart-7763e45c-611a-4f68-a07d-4b01dc2688a7{-webkit-user-select:none;-webkit-font-smoothing:antialiased;font-family:Consolas,"Liberation Mono",Menlo,Courier,monospace}#chart-7763e45c-611a-4f68-a07d-4b01dc2688a7 .title{font-family:Consolas,"Liberation Mono",Menlo,Courier,monospace;font-size:16px}#chart-7763e45c-611a-4f68-a07d-4b01dc2688a7 .legends .legend text{font-family:Consolas,"Liberation Mono",Menlo,Courier,monospace;font-size:14px}#chart-7763e45c-611a-4f68-a07d-4b01dc2688a7 .axis text{font-family:Consolas,"Liberation Mono",Menlo,Courier,monospace;font-size:10px}#chart-7763e45c-611a-4f68-a07d-4b01dc2688a7 .axis text.major{font-family:Consolas,"Liberation Mono",Menlo,Courier,monospace;font-size:10px}#chart-7763e45c-611a-4f68-a07d-4b01dc2688a7 .text-overlay text.value{font-family:Consolas,"Liberation Mono",Menlo,Courier,monospace;font-size:16px}#chart-7763e45c-611a-4f68-a07d-4b01dc2688a7 .text-overlay text.label{font-family:Consolas,"Liberation Mono",Menlo,Courier,monospace;font-size:10px}#chart-7763e45c-611a-4f68-a07d-4b01dc2688a7 .tooltip{font-family:Consolas,"Liberation Mono",Menlo,Courier,monospace;font-size:14px}#chart-7763e45c-611a-4f68-a07d-4b01dc2688a7 text.no_data{font-family:Consolas,"Liberation Mono",Menlo,Courier,monospace;font-size:64px}
#chart-7763e45c-611a-4f68-a07d-4b01dc2688a7{background-color:black}#chart-7763e45c-611a-4f68-a07d-4b01dc2688a7 path,#chart-7763e45c-611a-4f68-a07d-4b01dc2688a7 line,#chart-7763e45c-611a-4f68-a07d-4b01dc2688a7 rect,#chart-7763e45c-611a-4f68-a07d-4b01dc2688a7 circle{-webkit-transition:250ms;-moz-transition:250ms;transition:250ms}#chart-7763e45c-611a-4f68-a07d-4b01dc2688a7 .graph &gt; .background{fill:black}#chart-7763e45c-611a-4f68-a07d-4b01dc2688a7 .plot &gt; .background{fill:#111}#chart-7763e45c-611a-4f68-a07d-4b01dc2688a7 .graph{fill:#999}#chart-7763e45c-611a-4f68-a07d-4b01dc2688a7 text.no_data{fill:#eee}#chart-7763e45c-611a-4f68-a07d-4b01dc2688a7 .title{fill:#eee}#chart-7763e45c-611a-4f68-a07d-4b01dc2688a7 .legends .legend text{fill:#999}#chart-7763e45c-611a-4f68-a07d-4b01dc2688a7 .legends .legend:hover text{fill:#eee}#chart-7763e45c-611a-4f68-a07d-4b01dc2688a7 .axis .line{stroke:#eee}#chart-7763e45c-611a-4f68-a07d-4b01dc2688a7 .axis .guide.line{stroke:#555}#chart-7763e45c-611a-4f68-a07d-4b01dc2688a7 .axis .major.line{stroke:#999}#chart-7763e45c-611a-4f68-a07d-4b01dc2688a7 .axis text.major{fill:#eee}#chart-7763e45c-611a-4f68-a07d-4b01dc2688a7 .axis.y .guides:hover .guide.line,#chart-7763e45c-611a-4f68-a07d-4b01dc2688a7 .line-graph .axis.x .guides:hover .guide.line,#chart-7763e45c-611a-4f68-a07d-4b01dc2688a7 .stackedline-graph .axis.x .guides:hover .guide.line,#chart-7763e45c-611a-4f68-a07d-4b01dc2688a7 .xy-graph .axis.x .guides:hover .guide.line{stroke:#eee}#chart-7763e45c-611a-4f68-a07d-4b01dc2688a7 .axis .guides:hover text{fill:#eee}#chart-7763e45c-611a-4f68-a07d-4b01dc2688a7 .reactive{fill-opacity:.8;stroke-opacity:.8}#chart-7763e45c-611a-4f68-a07d-4b01dc2688a7 .ci{stroke:#999}#chart-7763e45c-611a-4f68-a07d-4b01dc2688a7 .reactive.active,#chart-7763e45c-611a-4f68-a07d-4b01dc2688a7 .active .reactive{fill-opacity:.4;stroke-opacity:.9;stroke-width:4}#chart-7763e45c-611a-4f68-a07d-4b01dc2688a7 .ci .reactive.active{stroke-width:1.5}#chart-7763e45c-611a-4f68-a07d-4b01dc2688a7 .series text{fill:#eee}#chart-7763e45c-611a-4f68-a07d-4b01dc2688a7 .tooltip rect{fill:#111;stroke:#eee;-webkit-transition:opacity 250ms;-moz-transition:opacity 250ms;transition:opacity 250ms}#chart-7763e45c-611a-4f68-a07d-4b01dc2688a7 .tooltip .label{fill:#999}#chart-7763e45c-611a-4f68-a07d-4b01dc2688a7 .tooltip .label{fill:#999}#chart-7763e45c-611a-4f68-a07d-4b01dc2688a7 .tooltip .legend{font-size:.8em;fill:#555}#chart-7763e45c-611a-4f68-a07d-4b01dc2688a7 .tooltip .x_label{font-size:.6em;fill:#eee}#chart-7763e45c-611a-4f68-a07d-4b01dc2688a7 .tooltip .xlink{font-size:.5em;text-decoration:underline}#chart-7763e45c-611a-4f68-a07d-4b01dc2688a7 .tooltip .value{font-size:1.5em}#chart-7763e45c-611a-4f68-a07d-4b01dc2688a7 .bound{font-size:.5em}#chart-7763e45c-611a-4f68-a07d-4b01dc2688a7 .max-value{font-size:.75em;fill:#555}#chart-7763e45c-611a-4f68-a07d-4b01dc2688a7 .map-element{fill:#111;stroke:#555 !important}#chart-7763e45c-611a-4f68-a07d-4b01dc2688a7 .map-element .reactive{fill-opacity:inherit;stroke-opacity:inherit}#chart-7763e45c-611a-4f68-a07d-4b01dc2688a7 .color-0,#chart-7763e45c-611a-4f68-a07d-4b01dc2688a7 .color-0 a:visited{stroke:#ff5995;fill:#ff5995}#chart-7763e45c-611a-4f68-a07d-4b01dc2688a7 .text-overlay .color-0 text{fill:black}
#chart-7763e45c-611a-4f68-a07d-4b01dc2688a7 text.no_data{text-anchor:middle}#chart-7763e45c-611a-4f68-a07d-4b01dc2688a7 .guide.line{fill:none}#chart-7763e45c-611a-4f68-a07d-4b01dc2688a7 .centered{text-anchor:middle}#chart-7763e45c-611a-4f68-a07d-4b01dc2688a7 .title{text-anchor:middle}#chart-7763e45c-611a-4f68-a07d-4b01dc2688a7 .legends .legend text{fill-opacity:1}#chart-7763e45c-611a-4f68-a07d-4b01dc2688a7 .axis.x text{text-anchor:middle}#chart-7763e45c-611a-4f68-a07d-4b01dc2688a7 .axis.x:not(.web) text[transform]{text-anchor:start}#chart-7763e45c-611a-4f68-a07d-4b01dc2688a7 .axis.x:not(.web) text[transform].backwards{text-anchor:end}#chart-7763e45c-611a-4f68-a07d-4b01dc2688a7 .axis.y text{text-anchor:end}#chart-7763e45c-611a-4f68-a07d-4b01dc2688a7 .axis.y text[transform].backwards{text-anchor:start}#chart-7763e45c-611a-4f68-a07d-4b01dc2688a7 .axis.y2 text{text-anchor:start}#chart-7763e45c-611a-4f68-a07d-4b01dc2688a7 .axis.y2 text[transform].backwards{text-anchor:end}#chart-7763e45c-611a-4f68-a07d-4b01dc2688a7 .axis .guide.line{stroke-dasharray:4,4}#chart-7763e45c-611a-4f68-a07d-4b01dc2688a7 .axis .major.guide.line{stroke-dasharray:6,6}#chart-7763e45c-611a-4f68-a07d-4b01dc2688a7 .horizontal .axis.y .guide.line,#chart-7763e45c-611a-4f68-a07d-4b01dc2688a7 .horizontal .axis.y2 .guide.line,#chart-7763e45c-611a-4f68-a07d-4b01dc2688a7 .vertical .axis.x .guide.line{opacity:0}#chart-7763e45c-611a-4f68-a07d-4b01dc2688a7 .horizontal .axis.always_show .guide.line,#chart-7763e45c-611a-4f68-a07d-4b01dc2688a7 .vertical .axis.always_show .guide.line{opacity:1 !important}#chart-7763e45c-611a-4f68-a07d-4b01dc2688a7 .axis.y .guides:hover .guide.line,#chart-7763e45c-611a-4f68-a07d-4b01dc2688a7 .axis.y2 .guides:hover .guide.line,#chart-7763e45c-611a-4f68-a07d-4b01dc2688a7 .axis.x .guides:hover .guide.line{opacity:1}#chart-7763e45c-611a-4f68-a07d-4b01dc2688a7 .axis .guides:hover text{opacity:1}#chart-7763e45c-611a-4f68-a07d-4b01dc2688a7 .nofill{fill:none}#chart-7763e45c-611a-4f68-a07d-4b01dc2688a7 .subtle-fill{fill-opacity:.2}#chart-7763e45c-611a-4f68-a07d-4b01dc2688a7 .dot{stroke-width:1px;fill-opacity:1}#chart-7763e45c-611a-4f68-a07d-4b01dc2688a7 .dot.active{stroke-width:5px}#chart-7763e45c-611a-4f68-a07d-4b01dc2688a7 .dot.negative{fill:transparent}#chart-7763e45c-611a-4f68-a07d-4b01dc2688a7 text,#chart-7763e45c-611a-4f68-a07d-4b01dc2688a7 tspan{stroke:none !important}#chart-7763e45c-611a-4f68-a07d-4b01dc2688a7 .series text.active{opacity:1}#chart-7763e45c-611a-4f68-a07d-4b01dc2688a7 .tooltip rect{fill-opacity:.95;stroke-width:.5}#chart-7763e45c-611a-4f68-a07d-4b01dc2688a7 .tooltip text{fill-opacity:1}#chart-7763e45c-611a-4f68-a07d-4b01dc2688a7 .showable{visibility:hidden}#chart-7763e45c-611a-4f68-a07d-4b01dc2688a7 .showable.shown{visibility:visible}#chart-7763e45c-611a-4f68-a07d-4b01dc2688a7 .gauge-background{fill:rgba(229,229,229,1);stroke:none}#chart-7763e45c-611a-4f68-a07d-4b01dc2688a7 .bg-lines{stroke:black;stroke-width:2px}</style><script type="text/javascript">window.pygal = window.pygal || {};window.pygal.config = window.pygal.config || {};window.pygal.config['7763e45c-611a-4f68-a07d-4b01dc2688a7'] = {"allow_interruptions": false, "box_mode": "extremes", "classes": ["pygal-chart"], "css": ["file://style.css", "file://graph.css"], "defs": [], "disable_xml_declaration": false, "dots_size": 2.5, "dynamic_print_values": false, "explicit_size": false, "fill": true, "force_uri_protocol": "https", "formatter": null, "half_pie": false, "height": 600, "include_x_axis": true, "inner_radius": 0, "interpolate": null, "interpolation_parameters": {}, "interpolation_precision": 250, "inverse_y_axis": false, "js": ["//kozea.github.io/pygal.js/2.0.x/pygal-tooltips.min.js"], "legend_at_bottom": true, "legend_at_bottom_columns": null, "legend_box_size": 12, "logarithmic": false, "margin": 20, "margin_bottom": null, "margin_left": null, "margin_right": null, "margin_top": null, "max_scale": 16, "min_scale": 4, "missing_value_fill_truncation": "x", "no_data_text": "No data", "no_prefix": false, "order_min": null, "pretty_print": false, "print_labels": false, "print_values": false, "print_values_position": "center", "print_zeroes": true, "range": null, "rounded_bars": null, "secondary_range": null, "show_dots": false, "show_legend": true, "show_minor_x_labels": true, "show_minor_y_labels": true, "show_only_major_dots": false, "show_x_guides": false, "show_x_labels": true, "show_y_guides": true, "show_y_labels": true, "spacing": 10, "stack_from_top": false, "strict": false, "stroke": true, "stroke_style": null, "style": {"background": "black", "ci_colors": [], "colors": ["#ff5995", "#b6e354", "#feed6c", "#8cedff", "#9e6ffe", "#899ca1", "#f8f8f2", "#bf4646", "#516083", "#f92672", "#82b414", "#fd971f", "#56c2d6", "#808384", "#8c54fe", "#465457"], "font_family": "Consolas, \"Liberation Mono\", Menlo, Courier, monospace", "foreground": "#999", "foreground_strong": "#eee", "foreground_subtle": "#555", "guide_stroke_dasharray": "4,4", "label_font_family": "Consolas, \"Liberation Mono\", Menlo, Courier, monospace", "label_font_size": 10, "legend_font_family": "Consolas, \"Liberation Mono\", Menlo, Courier, monospace", "legend_font_size": 14, "major_guide_stroke_dasharray": "6,6", "major_label_font_family": "Consolas, \"Liberation Mono\", Menlo, Courier, monospace", "major_label_font_size": 10, "no_data_font_family": "Consolas, \"Liberation Mono\", Menlo, Courier, monospace", "no_data_font_size": 64, "opacity": ".8", "opacity_hover": ".4", "plot_background": "#111", "stroke_opacity": ".8", "stroke_opacity_hover": ".9", "title_font_family": "Consolas, \"Liberation Mono\", Menlo, Courier, monospace", "title_font_size": 16, "tooltip_font_family": "Consolas, \"Liberation Mono\", Menlo, Courier, monospace", "tooltip_font_size": 14, "transition": "250ms", "value_background": "rgba(229, 229, 229, 1)", "value_colors": [], "value_font_family": "Consolas, \"Liberation Mono\", Menlo, Courier, monospace", "value_font_size": 16, "value_label_font_family": "Consolas, \"Liberation Mono\", Menlo, Courier, monospace", "value_label_font_size": 10}, "title": "Population size over  250 generations.", "tooltip_border_radius": 0, "tooltip_fancy_mode": true, "truncate_label": null, "truncate_legend": null, "width": 800, "x_label_rotation": 0, "x_labels": null, "x_labels_major": null, "x_labels_major_count": null, "x_labels_major_every": null, "x_title": null, "xrange": null, "y_label_rotation": 0, "y_labels": null, "y_labels_major": null, "y_labels_major_count": null, "y_labels_major_every": null, "y_title": null, "zero": 0, "legends": ["Population size"]}</script><script type="text/javascript" xlink:href="https://kozea.github.io/pygal.js/2.0.x/pygal-tooltips.min.js"/></defs><title>Population size over  250 generations.</title><g class="graph xy-graph vertical"><rect class="background" height="600" width="800" x="0" y="0"/><g class="plot" transform="translate(42, 46)"><rect class="background" height="490.0" width="738.0" x="0" y="0"/><g class="axis y always_show"><g class="guides"><path class="axis major line" d="M0.000000 480.576923 h738.000000"/><text class="major" x="-5" y="484.0769230769231">0</text><title>0</title></g><g class="guides"><path class="guide line" d="M0.000000 399.343501 h738.000000"/><text class="" x="-5" y="402.8435013262599">10</text><title>10</title></g><g class="guides"><path class="guide line" d="M0.000000 318.110080 h738.000000"/><text class="" x="-5" y="321.61007957559684">20</text><title>20</title></g><g class="guides"><path class="guide line" d="M0.000000 236.876658 h738.000000"/><text class="" x="-5" y="240.37665782493366">30</text><title>30</title></g><g class="guides"><path class="guide line" d="M0.000000 155.643236 h738.000000"/><text class="" x="-5" y="159.14323607427053">40</text><title>40</title></g><g class="guides"><path class="major guide line" d="M0.000000 74.409814 h738.000000"/><text class="major" x="-5" y="77.9098143236074">50</text><title>50</title></g></g><g class="axis x"><g class="guides"><path class="axis line" d="M14.192308 0.000000 v490.000000"/><text class="" x="14.192307692307695" y="505.0">0</text><title>0</title></g><g class="guides"><path class="guide line" d="M71.189527 0.000000 v490.000000"/><text class="" x="71.18952734012976" y="505.0">20</text><title>20</title></g><g class="guides"><path class="guide line" d="M128.186747 0.000000 v490.000000"/><text class="" x="128.18674698795184" y="505.0">40</text><title>40</title></g><g class="guides"><path class="guide line" d="M185.183967 0.000000 v490.000000"/><text class="" x="185.1839666357739" y="505.0">60</text><title>60</title></g><g class="guides"><path class="guide line" d="M242.181186 0.000000 v490.000000"/><text class="" x="242.18118628359596" y="505.0">80</text><title>80</title></g><g class="guides"><path class="guide line" d="M299.178406 0.000000 v490.000000"/><text class="" x="299.178405931418" y="505.0">100</text><title>100</title></g><g class="guides"><path class="guide line" d="M356.175626 0.000000 v490.000000"/><text class="" x="356.1756255792401" y="505.0">120</text><title>120</title></g><g class="guides"><path class="guide line" d="M413.172845 0.000000 v490.000000"/><text class="" x="413.1728452270621" y="505.0">140</text><title>140</title></g><g class="guides"><path class="guide line" d="M470.170065 0.000000 v490.000000"/><text class="" x="470.17006487488413" y="505.0">160</text><title>160</title></g><g class="guides"><path class="guide line" d="M527.167285 0.000000 v490.000000"/><text class="" x="527.1672845227063" y="505.0">180</text><title>180</title></g><g class="guides"><path class="guide line" d="M584.164504 0.000000 v490.000000"/><text class="" x="584.1645041705283" y="505.0">200</text><title>200</title></g><g class="guides"><path class="guide line" d="M641.161724 0.000000 v490.000000"/><text class="" x="641.1617238183503" y="505.0">220</text><title>220</title></g><g class="guides"><path class="guide line" d="M698.158943 0.000000 v490.000000"/><text class="" x="698.1589434661724" y="505.0">240</text><title>240</title></g></g><g class="series serie-0 color-0"><path class="line reactive" d="M14.192308 480.576923 L14.192308 74.409814 17.042169 50.039788 19.892030 98.779841 22.741891 90.656499 25.591752 106.903183 28.441613 98.779841 31.291474 106.903183 34.141335 123.149867 36.991196 115.026525 39.841057 123.149867 42.690918 123.149867 45.540778 131.273210 48.390639 139.396552 51.240500 115.026525 54.090361 106.903183 56.940222 90.656499 59.790083 74.409814 62.639944 66.286472 65.489805 82.533156 68.339666 66.286472 71.189527 66.286472 74.039388 90.656499 76.889249 82.533156 79.739110 50.039788 82.588971 66.286472 85.438832 98.779841 88.288693 131.273210 91.138554 155.643236 93.988415 139.396552 96.838276 131.273210 99.688137 131.273210 102.537998 123.149867 105.387859 131.273210 108.237720 123.149867 111.087581 163.766578 113.937442 180.013263 116.787303 188.136605 119.637164 212.506631 122.487025 204.383289 125.336886 188.136605 128.186747 180.013263 131.036608 188.136605 133.886469 196.259947 136.736330 196.259947 139.586191 204.383289 142.436052 196.259947 145.285913 180.013263 148.135774 188.136605 150.985635 188.136605 153.835496 188.136605 156.685357 163.766578 159.535218 171.889920 162.385079 180.013263 165.234940 163.766578 168.084801 155.643236 170.934662 147.519894 173.784523 171.889920 176.634384 163.766578 179.484245 171.889920 182.334106 188.136605 185.183967 163.766578 188.033828 163.766578 190.883689 155.643236 193.733550 147.519894 196.583411 123.149867 199.433272 123.149867 202.283133 106.903183 205.132994 106.903183 207.982854 123.149867 210.832715 98.779841 213.682576 98.779841 216.532437 90.656499 219.382298 74.409814 222.232159 74.409814 225.082020 66.286472 227.931881 58.163130 230.781742 50.039788 233.631603 50.039788 236.481464 58.163130 239.331325 90.656499 242.181186 90.656499 245.031047 82.533156 247.880908 41.916446 250.730769 33.793103 253.580630 50.039788 256.430491 74.409814 259.280352 90.656499 262.130213 82.533156 264.980074 66.286472 267.829935 50.039788 270.679796 74.409814 273.529657 82.533156 276.379518 90.656499 279.229379 82.533156 282.079240 106.903183 284.929101 115.026525 287.778962 98.779841 290.628823 106.903183 293.478684 155.643236 296.328545 163.766578 299.178406 171.889920 302.028267 171.889920 304.878128 163.766578 307.727989 155.643236 310.577850 155.643236 313.427711 163.766578 316.277572 155.643236 319.127433 171.889920 321.977294 180.013263 324.827155 171.889920 327.677016 155.643236 330.526877 163.766578 333.376738 188.136605 336.226599 180.013263 339.076460 171.889920 341.926321 155.643236 344.776182 131.273210 347.626043 106.903183 350.475904 106.903183 353.325765 98.779841 356.175626 98.779841 359.025487 123.149867 361.875348 147.519894 364.725209 171.889920 367.575070 163.766578 370.424930 163.766578 373.274791 171.889920 376.124652 180.013263 378.974513 180.013263 381.824374 180.013263 384.674235 180.013263 387.524096 180.013263 390.373957 188.136605 393.223818 196.259947 396.073679 196.259947 398.923540 196.259947 401.773401 236.876658 404.623262 245.000000 407.473123 245.000000 410.322984 253.123342 413.172845 269.370027 416.022706 261.246684 418.872567 269.370027 421.722428 277.493369 424.572289 277.493369 427.422150 253.123342 430.272011 269.370027 433.121872 261.246684 435.971733 253.123342 438.821594 236.876658 441.671455 220.629973 444.521316 204.383289 447.371177 196.259947 450.221038 196.259947 453.070899 204.383289 455.920760 180.013263 458.770621 180.013263 461.620482 163.766578 464.470343 180.013263 467.320204 188.136605 470.170065 196.259947 473.019926 188.136605 475.869787 171.889920 478.719648 171.889920 481.569509 171.889920 484.419370 155.643236 487.269231 123.149867 490.119092 139.396552 492.968953 139.396552 495.818814 147.519894 498.668675 123.149867 501.518536 123.149867 504.368397 147.519894 507.218258 155.643236 510.068119 131.273210 512.917980 131.273210 515.767841 115.026525 518.617702 90.656499 521.467563 90.656499 524.317424 90.656499 527.167285 66.286472 530.017146 66.286472 532.867006 82.533156 535.716867 66.286472 538.566728 41.916446 541.416589 33.793103 544.266450 98.779841 547.116311 98.779841 549.966172 82.533156 552.816033 66.286472 555.665894 50.039788 558.515755 41.916446 561.365616 33.793103 564.215477 9.423077 567.065338 17.546419 569.915199 17.546419 572.765060 17.546419 575.614921 33.793103 578.464782 66.286472 581.314643 50.039788 584.164504 90.656499 587.014365 66.286472 589.864226 90.656499 592.714087 74.409814 595.563948 33.793103 598.413809 58.163130 601.263670 41.916446 604.113531 58.163130 606.963392 58.163130 609.813253 82.533156 612.663114 98.779841 615.512975 98.779841 618.362836 147.519894 621.212697 163.766578 624.062558 155.643236 626.912419 163.766578 629.762280 171.889920 632.612141 171.889920 635.462002 163.766578 638.311863 171.889920 641.161724 180.013263 644.011585 163.766578 646.861446 171.889920 649.711307 196.259947 652.561168 188.136605 655.411029 155.643236 658.260890 147.519894 661.110751 163.766578 663.960612 163.766578 666.810473 180.013263 669.660334 180.013263 672.510195 171.889920 675.360056 163.766578 678.209917 155.643236 681.059778 163.766578 683.909639 139.396552 686.759500 131.273210 689.609361 131.273210 692.459222 115.026525 695.309082 123.149867 698.158943 147.519894 701.008804 155.643236 703.858665 155.643236 706.708526 147.519894 709.558387 147.519894 712.408248 180.013263 715.258109 180.013263 718.107970 180.013263 720.957831 147.519894 723.807692 123.149867 723.807692 480.576923"/></g></g><g class="titles"><text class="title plot_title" x="400.0" y="26">Population size over  250 generations.</text></g><g class="plot overlay" transform="translate(42, 46)"><g class="series serie-0 color-0"/></g><g class="plot text-overlay" transform="translate(42, 46)"><g class="series serie-0 color-0"/></g><g class="plot tooltip-overlay" transform="translate(42, 46)"><g class="tooltip" style="opacity: 0" transform="translate(0 0)"><rect class="tooltip-box" height="0" rx="0" ry="0" width="0"/><g class="text"/></g></g><g class="legends" transform="translate(52, 566)"><g class="legend reactive activate-serie" id="activate-serie-0"><rect class="color-0 reactive" height="12" width="12" x="0.0" y="1.0"/><text x="17.0" y="11.2">Population size</text></g></g></g></svg>