<?xml version='1.0' encoding='utf-8'?>
<svg xmlns:xlink="http://www.w3.org/1999/xlink" xmlns="http://www.w3.org/2000/svg" id="chart-96d915ff-0295-4690-ad43-1d29e5d2bd1d" class="pygal-chart" viewBox="0 0 800 600"><!--Generated with pygal 2.4.0 (lxml) ©Kozea 2012-2016 on 2019-01-08--><!--http://pygal.org--><!--http://github.com/Kozea/pygal--><defs><style type="text/css">#chart-96d915ff-0295-4690-ad43-1d29e5d2bd1d{-webkit-user-select:none;-webkit-font-smoothing:antialiased;font-family:Consolas,"Liberation Mono",Menlo,Courier,monospace}#chart-96d915ff-0295-4690-ad43-1d29e5d2bd1d .title{font-family:Consolas,"Liberation Mono",Menlo,Courier,monospace;font-size:16px}#chart-96d915ff-0295-4690-ad43-1d29e5d2bd1d .legends .legend text{font-family:Consolas,"Liberation Mono",Menlo,Courier,monospace;font-size:14px}#chart-96d915ff-0295-4690-ad43-1d29e5d2bd1d .axis text{font-family:Consolas,"Liberation Mono",Menlo,Courier,monospace;font-size:10px}#chart-96d915ff-0295-4690-ad43-1d29e5d2bd1d .axis text.major{font-family:Consolas,"Liberation Mono",Menlo,Courier,monospace;font-size:10px}#chart-96d915ff-0295-4690-ad43-1d29e5d2bd1d .text-overlay text.value{font-family:Consolas,"Liberation Mono",Menlo,Courier,monospace;font-size:16px}#chart-96d915ff-0295-4690-ad43-1d29e5d2bd1d .text-overlay text.label{font-family:Consolas,"Liberation Mono",Menlo,Courier,monospace;font-size:10px}#chart-96d915ff-0295-4690-ad43-1d29e5d2bd1d .tooltip{font-family:Consolas,"Liberation Mono",Menlo,Courier,monospace;font-size:14px}#chart-96d915ff-0295-4690-ad43-1d29e5d2bd1d text.no_data{font-family:Consolas,"Liberation Mono",Menlo,Courier,monospace;font-size:64px}
#chart-96d915ff-0295-4690-ad43-1d29e5d2bd1d{background-color:black}#chart-96d915ff-0295-4690-ad43-1d29e5d2bd1d path,#chart-96d915ff-0295-4690-ad43-1d29e5d2bd1d line,#chart-96d915ff-0295-4690-ad43-1d29e5d2bd1d rect,#chart-96d915ff-0295-4690-ad43-1d29e5d2bd1d circle{-webkit-transition:250ms;-moz-transition:250ms;transition:250ms}#chart-96d915ff-0295-4690-ad43-1d29e5d2bd1d .graph &gt; .background{fill:black}#chart-96d915ff-0295-4690-ad43-1d29e5d2bd1d .plot &gt; .background{fill:#111}#chart-96d915ff-0295-4690-ad43-1d29e5d2bd1d .graph{fill:#999}#chart-96d915ff-0295-4690-ad43-1d29e5d2bd1d text.no_data{fill:#eee}#chart-96d915ff-0295-4690-ad43-1d29e5d2bd1d .title{fill:#eee}#chart-96d915ff-0295-4690-ad43-1d29e5d2bd1d .legends .legend text{fill:#999}#chart-96d915ff-0295-4690-ad43-1d29e5d2bd1d .legends .legend:hover text{fill:#eee}#chart-96d915ff-0295-4690-ad43-1d29e5d2bd1d .axis .line{stroke:#eee}#chart-96d915ff-0295-4690-ad43-1d29e5d2bd1d .axis .guide.line{stroke:#555}#chart-96d915ff-0295-4690-ad43-1d29e5d2bd1d .axis .major.line{stroke:#999}#chart-96d915ff-0295-4690-ad43-1d29e5d2bd1d .axis text.major{fill:#eee}#chart-96d915ff-0295-4690-ad43-1d29e5d2bd1d .axis.y .guides:hover .guide.line,#chart-96d915ff-0295-4690-ad43-1d29e5d2bd1d .line-graph .axis.x .guides:hover .guide.line,#chart-96d915ff-0295-4690-ad43-1d29e5d2bd1d .stackedline-graph .axis.x .guides:hover .guide.line,#chart-96d915ff-0295-4690-ad43-1d29e5d2bd1d .xy-graph .axis.x .guides:hover .guide.line{stroke:#eee}#chart-96d915ff-0295-4690-ad43-1d29e5d2bd1d .axis .guides:hover text{fill:#eee}#chart-96d915ff-0295-4690-ad43-1d29e5d2bd1d .reactive{fill-opacity:.8;stroke-opacity:.8}#chart-96d915ff-0295-4690-ad43-1d29e5d2bd1d .ci{stroke:#999}#chart-96d915ff-0295-4690-ad43-1d29e5d2bd1d .reactive.active,#chart-96d915ff-0295-4690-ad43-1d29e5d2bd1d .active .reactive{fill-opacity:.4;stroke-opacity:.9;stroke-width:4}#chart-96d915ff-0295-4690-ad43-1d29e5d2bd1d .ci .reactive.active{stroke-width:1.5}#chart-96d915ff-0295-4690-ad43-1d29e5d2bd1d .series text{fill:#eee}#chart-96d915ff-0295-4690-ad43-1d29e5d2bd1d .tooltip rect{fill:#111;stroke:#eee;-webkit-transition:opacity 250ms;-moz-transition:opacity 250ms;transition:opacity 250ms}#chart-96d915ff-0295-4690-ad43-1d29e5d2bd1d .tooltip .label{fill:#999}#chart-96d915ff-0295-4690-ad43-1d29e5d2bd1d .tooltip .label{fill:#999}#chart-96d915ff-0295-4690-ad43-1d29e5d2bd1d .tooltip .legend{font-size:.8em;fill:#555}#chart-96d915ff-0295-4690-ad43-1d29e5d2bd1d .tooltip .x_label{font-size:.6em;fill:#eee}#chart-96d915ff-0295-4690-ad43-1d29e5d2bd1d .tooltip .xlink{font-size:.5em;text-decoration:underline}#chart-96d915ff-0295-4690-ad43-1d29e5d2bd1d .tooltip .value{font-size:1.5em}#chart-96d915ff-0295-4690-ad43-1d29e5d2bd1d .bound{font-size:.5em}#chart-96d915ff-0295-4690-ad43-1d29e5d2bd1d .max-value{font-size:.75em;fill:#555}#chart-96d915ff-0295-4690-ad43-1d29e5d2bd1d .map-element{fill:#111;stroke:#555 !important}#chart-96d915ff-0295-4690-ad43-1d29e5d2bd1d .map-element .reactive{fill-opacity:inherit;stroke-opacity:inherit}#chart-96d915ff-0295-4690-ad43-1d29e5d2bd1d .color-0,#chart-96d915ff-0295-4690-ad43-1d29e5d2bd1d .color-0 a:visited{stroke:#ff5995;fill:#ff5995}#chart-96d915ff-0295-4690-ad43-1d29e5d2bd1d .text-overlay .color-0 text{fill:black}
#chart-96d915ff-0295-4690-ad43-1d29e5d2bd1d text.no_data{text-anchor:middle}#chart-96d915ff-0295-4690-ad43-1d29e5d2bd1d .guide.line{fill:none}#chart-96d915ff-0295-4690-ad43-1d29e5d2bd1d .centered{text-anchor:middle}#chart-96d915ff-0295-4690-ad43-1d29e5d2bd1d .title{text-anchor:middle}#chart-96d915ff-0295-4690-ad43-1d29e5d2bd1d .legends .legend text{fill-opacity:1}#chart-96d915ff-0295-4690-ad43-1d29e5d2bd1d .axis.x text{text-anchor:middle}#chart-96d915ff-0295-4690-ad43-1d29e5d2bd1d .axis.x:not(.web) text[transform]{text-anchor:start}#chart-96d915ff-0295-4690-ad43-1d29e5d2bd1d .axis.x:not(.web) text[transform].backwards{text-anchor:end}#chart-96d915ff-0295-4690-ad43-1d29e5d2bd1d .axis.y text{text-anchor:end}#chart-96d915ff-0295-4690-ad43-1d29e5d2bd1d .axis.y text[transform].backwards{text-anchor:start}#chart-96d915ff-0295-4690-ad43-1d29e5d2bd1d .axis.y2 text{text-anchor:start}#chart-96d915ff-0295-4690-ad43-1d29e5d2bd1d .axis.y2 text[transform].backwards{text-anchor:end}#chart-96d915ff-0295-4690-ad43-1d29e5d2bd1d .axis .guide.line{stroke-dasharray:4,4}#chart-96d915ff-0295-4690-ad43-1d29e5d2bd1d .axis .major.guide.line{stroke-dasharray:6,6}#chart-96d915ff-0295-4690-ad43-1d29e5d2bd1d .horizontal .axis.y .guide.line,#chart-96d915ff-0295-4690-ad43-1d29e5d2bd1d .horizontal .axis.y2 .guide.line,#chart-96d915ff-0295-4690-ad43-1d29e5d2bd1d .vertical .axis.x .guide.line{opacity:0}#chart-96d915ff-0295-4690-ad43-1d29e5d2bd1d .horizontal .axis.always_show .guide.line,#chart-96d915ff-0295-4690-ad43-1d29e5d2bd1d .vertical .axis.always_show .guide.line{opacity:1 !important}#chart-96d915ff-0295-4690-ad43-1d29e5d2bd1d .axis.y .guides:hover .guide.line,#chart-96d915ff-0295-4690-ad43-1d29e5d2bd1d .axis.y2 .guides:hover .guide.line,#chart-96d915ff-0295-4690-ad43-1d29e5d2bd1d .axis.x .guides:hover .guide.line{opacity:1}#chart-96d915ff-0295-4690-ad43-1d29e5d2bd1d .axis .guides:hover text{opacity:1}#chart-96d915ff-0295-4690-ad43-1d29e5d2bd1d .nofill{fill:none}#chart-96d915ff-0295-4690-ad43-1d29e5d2bd1d .subtle-fill{fill-opacity:.2}#chart-96d915ff-0295-4690-ad43-1d29e5d2bd1d .dot{stroke-width:1px;fill-opacity:1}#chart-96d915ff-0295-4690-ad43-1d29e5d2bd1d .dot.active{stroke-width:5px}#chart-96d915ff-0295-4690-ad43-1d29e5d2bd1d .dot.negative{fill:transparent}#chart-96d915ff-0295-4690-ad43-1d29e5d2bd1d text,#chart-96d915ff-0295-4690-ad43-1d29e5d2bd1d tspan{stroke:none !important}#chart-96d915ff-0295-4690-ad43-1d29e5d2bd1d .series text.active{opacity:1}#chart-96d915ff-0295-4690-ad43-1d29e5d2bd1d .tooltip rect{fill-opacity:.95;stroke-width:.5}#chart-96d915ff-0295-4690-ad43-1d29e5d2bd1d .tooltip text{fill-opacity:1}#chart-96d915ff-0295-4690-ad43-1d29e5d2bd1d .showable{visibility:hidden}#chart-96d915ff-0295-4690-ad43-1d29e5d2bd1d .showable.shown{visibility:visible}#chart-96d915ff-0295-4690-ad43-1d29e5d2bd1d .gauge-background{fill:rgba(229,229,229,1);stroke:none}#chart-96d915ff-0295-4690-ad43-1d29e5d2bd1d .bg-lines{stroke:black;stroke-width:2px}</style><script type="text/javascript">window.pygal = window.pygal || {};window.pygal.config = window.pygal.config || {};window.pygal.config['96d915ff-0295-4690-ad43-1d29e5d2bd1d'] = {"allow_interruptions": false, "box_mode": "extremes", "classes": ["pygal-chart"], "css": ["file://style.css", "file://graph.css"], "defs": [], "disable_xml_declaration": false, "dots_size": 2.5, "dynamic_print_values": false, "explicit_size": false, "fill": true, "force_uri_protocol": "https", "formatter": null, "half_pie": false, "height": 600, "include_x_axis": true, "inner_radius": 0, "interpolate": null, "interpolation_parameters": {}, "interpolation_precision": 250, "inverse_y_axis": false, "js": ["//kozea.github.io/pygal.js/2.0.x/pygal-tooltips.min.js"], "legend_at_bottom": true, "legend_at_bottom_columns": null, "legend_box_size": 12, "logarithmic": false, "margin": 20, "margin_bottom": null, "margin_left": null, "margin_right": null, "margin_top": null, "max_scale": 16, "min_scale": 4, "missing_value_fill_truncation": "x", "no_data_text": "No data", "no_prefix": false, "order_min": null, "pretty_print": false, "print_labels": false, "print_values": false, "print_values_position": "center", "print_zeroes": true, "range": null, "rounded_bars": null, "secondary_range": null, "show_dots": false, "show_legend": true, "show_minor_x_labels": true, "show_minor_y_labels": true, "show_only_major_dots": false, "show_x_guides": false, "show_x_labels": true, "show_y_guides": true, "show_y_labels": true, "spacing": 10, "stack_from_top": false, "strict": false, "stroke": true, "stroke_style": null, "style": {"background": "black", "ci_colors": [], "colors": ["#ff5995", "#b6e354", "#feed6c", "#8cedff", "#9e6ffe", "#899ca1", "#f8f8f2", "#bf4646", "#516083", "#f92672", "#82b414", "#fd971f", "#56c2d6", "#808384", "#8c54fe", "#465457"], "font_family": "Consolas, \"Liberation Mono\", Menlo, Courier, monospace", "foreground": "#999", "foreground_strong": "#eee", "foreground_subtle": "#555", "guide_stroke_dasharray": "4,4", "label_font_family": "Consolas, \"Liberation Mono\", Menlo, Courier, monospace", "label_font_size": 10, "legend_font_family": "Consolas, \"Liberation Mono\", Menlo, Courier, monospace", "legend_font_size": 14, "major_guide_stroke_dasharray": "6,6", "major_label_font_family": "Consolas, \"Liberation Mono\", Menlo, Courier, monospace", "major_label_font_size": 10, "no_data_font_family": "Consolas, \"Liberation Mono\", Menlo, Courier, monospace", "no_data_font_size": 64, "opacity": ".8", "opacity_hover": ".4", "plot_background": "#111", "stroke_opacity": ".8", "stroke_opacity_hover": ".9", "title_font_family": "Consolas, \"Liberation Mono\", Menlo, Courier, monospace", "title_font_size": 16, "tooltip_font_family": "Consolas, \"Liberation Mono\", Menlo, Courier, monospace", "tooltip_font_size": 14, "transition": "250ms", "value_background": "rgba(229, 229, 229, 1)", "value_colors": [], "value_font_family": "Consolas, \"Liberation Mono\", Menlo, Courier, monospace", "value_font_size": 16, "value_label_font_family": "Consolas, \"Liberation Mono\", Menlo, Courier, monospace", "value_label_font_size": 10}, "title": "Population size over  250 generations.", "tooltip_border_radius": 0, "tooltip_fancy_mode": true, "truncate_label": null, "truncate_legend": null, "width": 800, "x_label_rotation": 0, "x_labels": null, "x_labels_major": null, "x_labels_major_count": null, "x_labels_major_every": null, "x_title": null, "xrange": null, "y_label_rotation": 0, "y_labels": null, "y_labels_major": null, "y_labels_major_count": null, "y_labels_major_every": null, "y_title": null, "zero": 0, "legends": ["Population size"]}</script><script type="text/javascript" xlink:href="https://kozea.github.io/pygal.js/2.0.x/pygal-tooltips.min.js"/></defs><title>Population size over  250 generations.</title><g class="graph xy-graph vertical"><rect class="background" height="600" width="800" x="0" y="0"/><g class="plot" transform="translate(42, 46)"><rect class="background" height="490.0" width="738.0" x="0" y="0"/><g class="axis y always_show"><g class="guides"><path class="axis major line" d="M0.000000 480.576923 h738.000000"/><text class="major" x="-5" y="484.0769230769231">0</text><title>0</title></g><g class="guides"><path class="guide line" d="M0.000000 402.051282 h738.000000"/><text class="" x="-5" y="405.55128205128204">10</text><title>10</title></g><g class="guides"><path class="guide line" d="M0.000000 323.525641 h738.000000"/><text class="" x="-5" y="327.02564102564105">20</text><title>20</title></g><g class="guides"><path class="guide line" d="M0.000000 245.000000 h738.000000"/><text class="" x="-5" y="248.50000000000003">30</text><title>30</title></g><g class="guides"><path class="guide line" d="M0.000000 166.474359 h738.000000"/><text class="" x="-5" y="169.974358974359">40</text><title>40</title></g><g class="guides"><path class="major guide line" d="M0.000000 87.948718 h738.000000"/><text class="major" x="-5" y="91.44871794871801">50</text><title>50</title></g><g class="guides"><path class="guide line" d="M0.000000 9.423077 h738.000000"/><text class="" x="-5" y="12.923076923076962">60</text><title>60</title></g></g><g class="axis x"><g class="guides"><path class="axis line" d="M14.192308 0.000000 v490.000000"/><text class="" x="14.192307692307695" y="505.0">0</text><title>0</title></g><g class="guides"><path class="guide line" d="M71.189527 0.000000 v490.000000"/><text class="" x="71.18952734012976" y="505.0">20</text><title>20</title></g><g class="guides"><path class="guide line" d="M128.186747 0.000000 v490.000000"/><text class="" x="128.18674698795184" y="505.0">40</text><title>40</title></g><g class="guides"><path class="guide line" d="M185.183967 0.000000 v490.000000"/><text class="" x="185.1839666357739" y="505.0">60</text><title>60</title></g><g class="guides"><path class="guide line" d="M242.181186 0.000000 v490.000000"/><text class="" x="242.18118628359596" y="505.0">80</text><title>80</title></g><g class="guides"><path class="guide line" d="M299.178406 0.000000 v490.000000"/><text class="" x="299.178405931418" y="505.0">100</text><title>100</title></g><g class="guides"><path class="guide line" d="M356.175626 0.000000 v490.000000"/><text class="" x="356.1756255792401" y="505.0">120</text><title>120</title></g><g class="guides"><path class="guide line" d="M413.172845 0.000000 v490.000000"/><text class="" x="413.1728452270621" y="505.0">140</text><title>140</title></g><g class="guides"><path class="guide line" d="M470.170065 0.000000 v490.000000"/><text class="" x="470.17006487488413" y="505.0">160</text><title>160</title></g><g class="guides"><path class="guide line" d="M527.167285 0.000000 v490.000000"/><text class="" x="527.1672845227063" y="505.0">180</text><title>180</title></g><g class="guides"><path class="guide line" d="M584.164504 0.000000 v490.000000"/><text class="" x="584.1645041705283" y="505.0">200</text><title>200</title></g><g class="guides"><path class="guide line" d="M641.161724 0.000000 v490.000000"/><text class="" x="641.1617238183503" y="505.0">220</text><title>220</title></g><g class="guides"><path class="guide line" d="M698.158943 0.000000 v490.000000"/><text class="" x="698.1589434661724" y="505.0">240</text><title>240</title></g></g><g class="series serie-0 color-0"><path class="line reactive" d="M14.192308 480.576923 L14.192308 87.948718 17.042169 111.506410 19.892030 95.801282 22.741891 80.096154 25.591752 95.801282 28.441613 119.358974 31.291474 119.358974 34.141335 119.358974 36.991196 119.358974 39.841057 135.064103 42.690918 158.621795 45.540778 142.916667 48.390639 111.506410 51.240500 95.801282 54.090361 95.801282 56.940222 95.801282 59.790083 95.801282 62.639944 111.506410 65.489805 103.653846 68.339666 111.506410 71.189527 95.801282 74.039388 103.653846 76.889249 111.506410 79.739110 103.653846 82.588971 95.801282 85.438832 119.358974 88.288693 127.211538 91.138554 135.064103 93.988415 142.916667 96.838276 135.064103 99.688137 158.621795 102.537998 166.474359 105.387859 158.621795 108.237720 142.916667 111.087581 150.769231 113.937442 150.769231 116.787303 103.653846 119.637164 135.064103 122.487025 150.769231 125.336886 150.769231 128.186747 142.916667 131.036608 127.211538 133.886469 87.948718 136.736330 72.243590 139.586191 72.243590 142.436052 72.243590 145.285913 72.243590 148.135774 80.096154 150.985635 87.948718 153.835496 103.653846 156.685357 87.948718 159.535218 95.801282 162.385079 87.948718 165.234940 64.391026 168.084801 17.275641 170.934662 32.980769 173.784523 32.980769 176.634384 48.685897 179.484245 40.833333 182.334106 9.423077 185.183967 48.685897 188.033828 40.833333 190.883689 48.685897 193.733550 48.685897 196.583411 64.391026 199.433272 56.538462 202.283133 48.685897 205.132994 87.948718 207.982854 87.948718 210.832715 95.801282 213.682576 103.653846 216.532437 103.653846 219.382298 111.506410 222.232159 103.653846 225.082020 103.653846 227.931881 127.211538 230.781742 127.211538 233.631603 135.064103 236.481464 135.064103 239.331325 127.211538 242.181186 142.916667 245.031047 135.064103 247.880908 158.621795 250.730769 166.474359 253.580630 174.326923 256.430491 158.621795 259.280352 166.474359 262.130213 174.326923 264.980074 174.326923 267.829935 166.474359 270.679796 166.474359 273.529657 166.474359 276.379518 174.326923 279.229379 166.474359 282.079240 166.474359 284.929101 174.326923 287.778962 182.179487 290.628823 182.179487 293.478684 190.032051 296.328545 182.179487 299.178406 197.884615 302.028267 229.294872 304.878128 221.442308 307.727989 213.589744 310.577850 229.294872 313.427711 229.294872 316.277572 229.294872 319.127433 221.442308 321.977294 237.147436 324.827155 237.147436 327.677016 229.294872 330.526877 221.442308 333.376738 237.147436 336.226599 229.294872 339.076460 213.589744 341.926321 221.442308 344.776182 205.737179 347.626043 221.442308 350.475904 213.589744 353.325765 197.884615 356.175626 213.589744 359.025487 205.737179 361.875348 182.179487 364.725209 182.179487 367.575070 213.589744 370.424930 221.442308 373.274791 221.442308 376.124652 237.147436 378.974513 237.147436 381.824374 260.705128 384.674235 237.147436 387.524096 229.294872 390.373957 213.589744 393.223818 197.884615 396.073679 221.442308 398.923540 221.442308 401.773401 221.442308 404.623262 205.737179 407.473123 197.884615 410.322984 190.032051 413.172845 205.737179 416.022706 197.884615 418.872567 213.589744 421.722428 190.032051 424.572289 182.179487 427.422150 158.621795 430.272011 135.064103 433.121872 142.916667 435.971733 135.064103 438.821594 119.358974 441.671455 87.948718 444.521316 95.801282 447.371177 111.506410 450.221038 119.358974 453.070899 127.211538 455.920760 135.064103 458.770621 127.211538 461.620482 119.358974 464.470343 127.211538 467.320204 150.769231 470.170065 135.064103 473.019926 127.211538 475.869787 119.358974 478.719648 135.064103 481.569509 142.916667 484.419370 142.916667 487.269231 158.621795 490.119092 182.179487 492.968953 174.326923 495.818814 174.326923 498.668675 158.621795 501.518536 135.064103 504.368397 111.506410 507.218258 127.211538 510.068119 111.506410 512.917980 95.801282 515.767841 150.769231 518.617702 127.211538 521.467563 135.064103 524.317424 142.916667 527.167285 158.621795 530.017146 166.474359 532.867006 150.769231 535.716867 135.064103 538.566728 150.769231 541.416589 158.621795 544.266450 158.621795 547.116311 150.769231 549.966172 135.064103 552.816033 135.064103 555.665894 103.653846 558.515755 64.391026 561.365616 48.685897 564.215477 72.243590 567.065338 25.128205 569.915199 17.275641 572.765060 9.423077 575.614921 56.538462 578.464782 48.685897 581.314643 64.391026 584.164504 80.096154 587.014365 111.506410 589.864226 103.653846 592.714087 127.211538 595.563948 150.769231 598.413809 150.769231 601.263670 135.064103 604.113531 119.358974 606.963392 142.916667 609.813253 127.211538 612.663114 111.506410 615.512975 127.211538 618.362836 111.506410 621.212697 87.948718 624.062558 87.948718 626.912419 80.096154 629.762280 64.391026 632.612141 72.243590 635.462002 95.801282 638.311863 119.358974 641.161724 150.769231 644.011585 150.769231 646.861446 142.916667 649.711307 150.769231 652.561168 174.326923 655.411029 142.916667 658.260890 127.211538 661.110751 142.916667 663.960612 166.474359 666.810473 166.474359 669.660334 135.064103 672.510195 142.916667 675.360056 150.769231 678.209917 142.916667 681.059778 127.211538 683.909639 127.211538 686.759500 127.211538 689.609361 119.358974 692.459222 119.358974 695.309082 111.506410 698.158943 111.506410 701.008804 135.064103 703.858665 111.506410 706.708526 119.358974 709.558387 119.358974 712.408248 127.211538 715.258109 150.769231 718.107970 158.621795 720.957831 166.474359 723.807692 135.064103 723.807692 480.576923"/></g></g><g class="titles"><text class="title plot_title" x="400.0" y="26">Population size over  250 generations.</text></g><g class="plot overlay" transform="translate(42, 46)"><g class="series serie-0 color-0"/></g><g class="plot text-overlay" transform="translate(42, 46)"><g class="series serie-0 color-0"/></g><g class="plot tooltip-overlay" transform="translate(42, 46)"><g class="tooltip" style="opacity: 0" transform="translate(0 0)"><rect class="tooltip-box" height="0" rx="0" ry="0" width="0"/><g class="text"/></g></g><g class="legends" transform="translate(52, 566)"><g class="legend reactive activate-serie" id="activate-serie-0"><rect class="color-0 reactive" height="12" width="12" x="0.0" y="1.0"/><text x="17.0" y="11.2">Population size</text></g></g></g></svg>