<?xml version='1.0' encoding='utf-8'?>
<svg xmlns:xlink="http://www.w3.org/1999/xlink" xmlns="http://www.w3.org/2000/svg" id="chart-19a62404-b2cb-465e-aeb0-ddc06c5d296a" class="pygal-chart" viewBox="0 0 800 600"><!--Generated with pygal 2.4.0 (lxml) ©Kozea 2012-2016 on 2019-01-08--><!--http://pygal.org--><!--http://github.com/Kozea/pygal--><defs><style type="text/css">#chart-19a62404-b2cb-465e-aeb0-ddc06c5d296a{-webkit-user-select:none;-webkit-font-smoothing:antialiased;font-family:Consolas,"Liberation Mono",Menlo,Courier,monospace}#chart-19a62404-b2cb-465e-aeb0-ddc06c5d296a .title{font-family:Consolas,"Liberation Mono",Menlo,Courier,monospace;font-size:16px}#chart-19a62404-b2cb-465e-aeb0-ddc06c5d296a .legends .legend text{font-family:Consolas,"Liberation Mono",Menlo,Courier,monospace;font-size:14px}#chart-19a62404-b2cb-465e-aeb0-ddc06c5d296a .axis text{font-family:Consolas,"Liberation Mono",Menlo,Courier,monospace;font-size:10px}#chart-19a62404-b2cb-465e-aeb0-ddc06c5d296a .axis text.major{font-family:Consolas,"Liberation Mono",Menlo,Courier,monospace;font-size:10px}#chart-19a62404-b2cb-465e-aeb0-ddc06c5d296a .text-overlay text.value{font-family:Consolas,"Liberation Mono",Menlo,Courier,monospace;font-size:16px}#chart-19a62404-b2cb-465e-aeb0-ddc06c5d296a .text-overlay text.label{font-family:Consolas,"Liberation Mono",Menlo,Courier,monospace;font-size:10px}#chart-19a62404-b2cb-465e-aeb0-ddc06c5d296a .tooltip{font-family:Consolas,"Liberation Mono",Menlo,Courier,monospace;font-size:14px}#chart-19a62404-b2cb-465e-aeb0-ddc06c5d296a text.no_data{font-family:Consolas,"Liberation Mono",Menlo,Courier,monospace;font-size:64px}
#chart-19a62404-b2cb-465e-aeb0-ddc06c5d296a{background-color:black}#chart-19a62404-b2cb-465e-aeb0-ddc06c5d296a path,#chart-19a62404-b2cb-465e-aeb0-ddc06c5d296a line,#chart-19a62404-b2cb-465e-aeb0-ddc06c5d296a rect,#chart-19a62404-b2cb-465e-aeb0-ddc06c5d296a circle{-webkit-transition:250ms;-moz-transition:250ms;transition:250ms}#chart-19a62404-b2cb-465e-aeb0-ddc06c5d296a .graph &gt; .background{fill:black}#chart-19a62404-b2cb-465e-aeb0-ddc06c5d296a .plot &gt; .background{fill:#111}#chart-19a62404-b2cb-465e-aeb0-ddc06c5d296a .graph{fill:#999}#chart-19a62404-b2cb-465e-aeb0-ddc06c5d296a text.no_data{fill:#eee}#chart-19a62404-b2cb-465e-aeb0-ddc06c5d296a .title{fill:#eee}#chart-19a62404-b2cb-465e-aeb0-ddc06c5d296a .legends .legend text{fill:#999}#chart-19a62404-b2cb-465e-aeb0-ddc06c5d296a .legends .legend:hover text{fill:#eee}#chart-19a62404-b2cb-465e-aeb0-ddc06c5d296a .axis .line{stroke:#eee}#chart-19a62404-b2cb-465e-aeb0-ddc06c5d296a .axis .guide.line{stroke:#555}#chart-19a62404-b2cb-465e-aeb0-ddc06c5d296a .axis .major.line{stroke:#999}#chart-19a62404-b2cb-465e-aeb0-ddc06c5d296a .axis text.major{fill:#eee}#chart-19a62404-b2cb-465e-aeb0-ddc06c5d296a .axis.y .guides:hover .guide.line,#chart-19a62404-b2cb-465e-aeb0-ddc06c5d296a .line-graph .axis.x .guides:hover .guide.line,#chart-19a62404-b2cb-465e-aeb0-ddc06c5d296a .stackedline-graph .axis.x .guides:hover .guide.line,#chart-19a62404-b2cb-465e-aeb0-ddc06c5d296a .xy-graph .axis.x .guides:hover .guide.line{stroke:#eee}#chart-19a62404-b2cb-465e-aeb0-ddc06c5d296a .axis .guides:hover text{fill:#eee}#chart-19a62404-b2cb-465e-aeb0-ddc06c5d296a .reactive{fill-opacity:.8;stroke-opacity:.8}#chart-19a62404-b2cb-465e-aeb0-ddc06c5d296a .ci{stroke:#999}#chart-19a62404-b2cb-465e-aeb0-ddc06c5d296a .reactive.active,#chart-19a62404-b2cb-465e-aeb0-ddc06c5d296a .active .reactive{fill-opacity:.4;stroke-opacity:.9;stroke-width:4}#chart-19a62404-b2cb-465e-aeb0-ddc06c5d296a .ci .reactive.active{stroke-width:1.5}#chart-19a62404-b2cb-465e-aeb0-ddc06c5d296a .series text{fill:#eee}#chart-19a62404-b2cb-465e-aeb0-ddc06c5d296a .tooltip rect{fill:#111;stroke:#eee;-webkit-transition:opacity 250ms;-moz-transition:opacity 250ms;transition:opacity 250ms}#chart-19a62404-b2cb-465e-aeb0-ddc06c5d296a .tooltip .label{fill:#999}#chart-19a62404-b2cb-465e-aeb0-ddc06c5d296a .tooltip .label{fill:#999}#chart-19a62404-b2cb-465e-aeb0-ddc06c5d296a .tooltip .legend{font-size:.8em;fill:#555}#chart-19a62404-b2cb-465e-aeb0-ddc06c5d296a .tooltip .x_label{font-size:.6em;fill:#eee}#chart-19a62404-b2cb-465e-aeb0-ddc06c5d296a .tooltip .xlink{font-size:.5em;text-decoration:underline}#chart-19a62404-b2cb-465e-aeb0-ddc06c5d296a .tooltip .value{font-size:1.5em}#chart-19a62404-b2cb-465e-aeb0-ddc06c5d296a .bound{font-size:.5em}#chart-19a62404-b2cb-465e-aeb0-ddc06c5d296a .max-value{font-size:.75em;fill:#555}#chart-19a62404-b2cb-465e-aeb0-ddc06c5d296a .map-element{fill:#111;stroke:#555 !important}#chart-19a62404-b2cb-465e-aeb0-ddc06c5d296a .map-element .reactive{fill-opacity:inherit;stroke-opacity:inherit}#chart-19a62404-b2cb-465e-aeb0-ddc06c5d296a .color-0,#chart-19a62404-b2cb-465e-aeb0-ddc06c5d296a .color-0 a:visited{stroke:#ff5995;fill:#ff5995}#chart-19a62404-b2cb-465e-aeb0-ddc06c5d296a .text-overlay .color-0 text{fill:black}
#chart-19a62404-b2cb-465e-aeb0-ddc06c5d296a text.no_data{text-anchor:middle}#chart-19a62404-b2cb-465e-aeb0-ddc06c5d296a .guide.line{fill:none}#chart-19a62404-b2cb-465e-aeb0-ddc06c5d296a .centered{text-anchor:middle}#chart-19a62404-b2cb-465e-aeb0-ddc06c5d296a .title{text-anchor:middle}#chart-19a62404-b2cb-465e-aeb0-ddc06c5d296a .legends .legend text{fill-opacity:1}#chart-19a62404-b2cb-465e-aeb0-ddc06c5d296a .axis.x text{text-anchor:middle}#chart-19a62404-b2cb-465e-aeb0-ddc06c5d296a .axis.x:not(.web) text[transform]{text-anchor:start}#chart-19a62404-b2cb-465e-aeb0-ddc06c5d296a .axis.x:not(.web) text[transform].backwards{text-anchor:end}#chart-19a62404-b2cb-465e-aeb0-ddc06c5d296a .axis.y text{text-anchor:end}#chart-19a62404-b2cb-465e-aeb0-ddc06c5d296a .axis.y text[transform].backwards{text-anchor:start}#chart-19a62404-b2cb-465e-aeb0-ddc06c5d296a .axis.y2 text{text-anchor:start}#chart-19a62404-b2cb-465e-aeb0-ddc06c5d296a .axis.y2 text[transform].backwards{text-anchor:end}#chart-19a62404-b2cb-465e-aeb0-ddc06c5d296a .axis .guide.line{stroke-dasharray:4,4}#chart-19a62404-b2cb-465e-aeb0-ddc06c5d296a .axis .major.guide.line{stroke-dasharray:6,6}#chart-19a62404-b2cb-465e-aeb0-ddc06c5d296a .horizontal .axis.y .guide.line,#chart-19a62404-b2cb-465e-aeb0-ddc06c5d296a .horizontal .axis.y2 .guide.line,#chart-19a62404-b2cb-465e-aeb0-ddc06c5d296a .vertical .axis.x .guide.line{opacity:0}#chart-19a62404-b2cb-465e-aeb0-ddc06c5d296a .horizontal .axis.always_show .guide.line,#chart-19a62404-b2cb-465e-aeb0-ddc06c5d296a .vertical .axis.always_show .guide.line{opacity:1 !important}#chart-19a62404-b2cb-465e-aeb0-ddc06c5d296a .axis.y .guides:hover .guide.line,#chart-19a62404-b2cb-465e-aeb0-ddc06c5d296a .axis.y2 .guides:hover .guide.line,#chart-19a62404-b2cb-465e-aeb0-ddc06c5d296a .axis.x .guides:hover .guide.line{opacity:1}#chart-19a62404-b2cb-465e-aeb0-ddc06c5d296a .axis .guides:hover text{opacity:1}#chart-19a62404-b2cb-465e-aeb0-ddc06c5d296a .nofill{fill:none}#chart-19a62404-b2cb-465e-aeb0-ddc06c5d296a .subtle-fill{fill-opacity:.2}#chart-19a62404-b2cb-465e-aeb0-ddc06c5d296a .dot{stroke-width:1px;fill-opacity:1}#chart-19a62404-b2cb-465e-aeb0-ddc06c5d296a .dot.active{stroke-width:5px}#chart-19a62404-b2cb-465e-aeb0-ddc06c5d296a .dot.negative{fill:transparent}#chart-19a62404-b2cb-465e-aeb0-ddc06c5d296a text,#chart-19a62404-b2cb-465e-aeb0-ddc06c5d296a tspan{stroke:none !important}#chart-19a62404-b2cb-465e-aeb0-ddc06c5d296a .series text.active{opacity:1}#chart-19a62404-b2cb-465e-aeb0-ddc06c5d296a .tooltip rect{fill-opacity:.95;stroke-width:.5}#chart-19a62404-b2cb-465e-aeb0-ddc06c5d296a .tooltip text{fill-opacity:1}#chart-19a62404-b2cb-465e-aeb0-ddc06c5d296a .showable{visibility:hidden}#chart-19a62404-b2cb-465e-aeb0-ddc06c5d296a .showable.shown{visibility:visible}#chart-19a62404-b2cb-465e-aeb0-ddc06c5d296a .gauge-background{fill:rgba(229,229,229,1);stroke:none}#chart-19a62404-b2cb-465e-aeb0-ddc06c5d296a .bg-lines{stroke:black;stroke-width:2px}</style><script type="text/javascript">window.pygal = window.pygal || {};window.pygal.config = window.pygal.config || {};window.pygal.config['19a62404-b2cb-465e-aeb0-ddc06c5d296a'] = {"allow_interruptions": false, "box_mode": "extremes", "classes": ["pygal-chart"], "css": ["file://style.css", "file://graph.css"], "defs": [], "disable_xml_declaration": false, "dots_size": 2.5, "dynamic_print_values": false, "explicit_size": false, "fill": true, "force_uri_protocol": "https", "formatter": null, "half_pie": false, "height": 600, "include_x_axis": true, "inner_radius": 0, "interpolate": null, "interpolation_parameters": {}, "interpolation_precision": 250, "inverse_y_axis": false, "js": ["//kozea.github.io/pygal.js/2.0.x/pygal-tooltips.min.js"], "legend_at_bottom": true, "legend_at_bottom_columns": null, "legend_box_size": 12, "logarithmic": false, "margin": 20, "margin_bottom": null, "margin_left": null, "margin_right": null, "margin_top": null, "max_scale": 16, "min_scale": 4, "missing_value_fill_truncation": "x", "no_data_text": "No data", "no_prefix": false, "order_min": null, "pretty_print": false, "print_labels": false, "print_values": false, "print_values_position": "center", "print_zeroes": true, "range": null, "rounded_bars": null, "secondary_range": null, "show_dots": false, "show_legend": true, "show_minor_x_labels": true, "show_minor_y_labels": true, "show_only_major_dots": false, "show_x_guides": false, "show_x_labels": true, "show_y_guides": true, "show_y_labels": true, "spacing": 10, "stack_from_top": false, "strict": false, "stroke": true, "stroke_style": null, "style": {"background": "black", "ci_colors": [], "colors": ["#ff5995", "#b6e354", "#feed6c", "#8cedff", "#9e6ffe", "#899ca1", "#f8f8f2", "#bf4646", "#516083", "#f92672", "#82b414", "#fd971f", "#56c2d6", "#808384", "#8c54fe", "#465457"], "font_family": "Consolas, \"Liberation Mono\", Menlo, Courier, monospace", "foreground": "#999", "foreground_strong": "#eee", "foreground_subtle": "#555", "guide_stroke_dasharray": "4,4", "label_font_family": "Consolas, \"Liberation Mono\", Menlo, Courier, monospace", "label_font_size": 10, "legend_font_family": "Consolas, \"Liberation Mono\", Menlo, Courier, monospace", "legend_font_size": 14, "major_guide_stroke_dasharray": "6,6", "major_label_font_family": "Consolas, \"Liberation Mono\", Menlo, Courier, monospace", "major_label_font_size": 10, "no_data_font_family": "Consolas, \"Liberation Mono\", Menlo, Courier, monospace", "no_data_font_size": 64, "opacity": ".8", "opacity_hover": ".4", "plot_background": "#111", "stroke_opacity": ".8", "stroke_opacity_hover": ".9", "title_font_family": "Consolas, \"Liberation Mono\", Menlo, Courier, monospace", "title_font_size": 16, "tooltip_font_family": "Consolas, \"Liberation Mono\", Menlo, Courier, monospace", "tooltip_font_size": 14, "transition": "250ms", "value_background": "rgba(229, 229, 229, 1)", "value_colors": [], "value_font_family": "Consolas, \"Liberation Mono\", Menlo, Courier, monospace", "value_font_size": 16, "value_label_font_family": "Consolas, \"Liberation Mono\", Menlo, Courier, monospace", "value_label_font_size": 10}, "title": "Population size over  250 generations.", "tooltip_border_radius": 0, "tooltip_fancy_mode": true, "truncate_label": null, "truncate_legend": null, "width": 800, "x_label_rotation": 0, "x_labels": null, "x_labels_major": null, "x_labels_major_count": null, "x_labels_major_every": null, "x_title": null, "xrange": null, "y_label_rotation": 0, "y_labels": null, "y_labels_major": null, "y_labels_major_count": null, "y_labels_major_every": null, "y_title": null, "zero": 0, "legends": ["Population size"]}</script><script type="text/javascript" xlink:href="https://kozea.github.io/pygal.js/2.0.x/pygal-tooltips.min.js"/></defs><title>Population size over  250 generations.</title><g class="graph xy-graph vertical"><rect class="background" height="600" width="800" x="0" y="0"/><g class="plot" transform="translate(42, 46)"><rect class="background" height="490.0" width="738.0" x="0" y="0"/><g class="axis y always_show"><g class="guides"><path class="axis major line" d="M0.000000 480.576923 h738.000000"/><text class="major" x="-5" y="484.0769230769231">0</text><title>0</title></g><g class="guides"><path class="guide line" d="M0.000000 409.189977 h738.000000"/><text class="" x="-5" y="412.6899766899767">10</text><title>10</title></g><g class="guides"><path class="guide line" d="M0.000000 337.803030 h738.000000"/><text class="" x="-5" y="341.30303030303025">20</text><title>20</title></g><g class="guides"><path class="guide line" d="M0.000000 266.416084 h738.000000"/><text class="" x="-5" y="269.9160839160839">30</text><title>30</title></g><g class="guides"><path class="guide line" d="M0.000000 195.029138 h738.000000"/><text class="" x="-5" y="198.52913752913747">40</text><title>40</title></g><g class="guides"><path class="major guide line" d="M0.000000 123.642191 h738.000000"/><text class="major" x="-5" y="127.14219114219105">50</text><title>50</title></g><g class="guides"><path class="guide line" d="M0.000000 52.255245 h738.000000"/><text class="" x="-5" y="55.75524475524469">60</text><title>60</title></g></g><g class="axis x"><g class="guides"><path class="axis line" d="M14.192308 0.000000 v490.000000"/><text class="" x="14.192307692307695" y="505.0">0</text><title>0</title></g><g class="guides"><path class="guide line" d="M71.189527 0.000000 v490.000000"/><text class="" x="71.18952734012976" y="505.0">20</text><title>20</title></g><g class="guides"><path class="guide line" d="M128.186747 0.000000 v490.000000"/><text class="" x="128.18674698795184" y="505.0">40</text><title>40</title></g><g class="guides"><path class="guide line" d="M185.183967 0.000000 v490.000000"/><text class="" x="185.1839666357739" y="505.0">60</text><title>60</title></g><g class="guides"><path class="guide line" d="M242.181186 0.000000 v490.000000"/><text class="" x="242.18118628359596" y="505.0">80</text><title>80</title></g><g class="guides"><path class="guide line" d="M299.178406 0.000000 v490.000000"/><text class="" x="299.178405931418" y="505.0">100</text><title>100</title></g><g class="guides"><path class="guide line" d="M356.175626 0.000000 v490.000000"/><text class="" x="356.1756255792401" y="505.0">120</text><title>120</title></g><g class="guides"><path class="guide line" d="M413.172845 0.000000 v490.000000"/><text class="" x="413.1728452270621" y="505.0">140</text><title>140</title></g><g class="guides"><path class="guide line" d="M470.170065 0.000000 v490.000000"/><text class="" x="470.17006487488413" y="505.0">160</text><title>160</title></g><g class="guides"><path class="guide line" d="M527.167285 0.000000 v490.000000"/><text class="" x="527.1672845227063" y="505.0">180</text><title>180</title></g><g class="guides"><path class="guide line" d="M584.164504 0.000000 v490.000000"/><text class="" x="584.1645041705283" y="505.0">200</text><title>200</title></g><g class="guides"><path class="guide line" d="M641.161724 0.000000 v490.000000"/><text class="" x="641.1617238183503" y="505.0">220</text><title>220</title></g><g class="guides"><path class="guide line" d="M698.158943 0.000000 v490.000000"/><text class="" x="698.1589434661724" y="505.0">240</text><title>240</title></g></g><g class="series serie-0 color-0"><path class="line reactive" d="M14.192308 480.576923 L14.192308 123.642191 17.042169 116.503497 19.892030 95.087413 22.741891 116.503497 25.591752 109.364802 28.441613 123.642191 31.291474 109.364802 34.141335 116.503497 36.991196 109.364802 39.841057 116.503497 42.690918 109.364802 45.540778 102.226107 48.390639 95.087413 51.240500 102.226107 54.090361 109.364802 56.940222 95.087413 59.790083 95.087413 62.639944 87.948718 65.489805 95.087413 68.339666 87.948718 71.189527 95.087413 74.039388 80.810023 76.889249 80.810023 79.739110 59.393939 82.588971 59.393939 85.438832 73.671329 88.288693 73.671329 91.138554 80.810023 93.988415 66.532634 96.838276 80.810023 99.688137 59.393939 102.537998 45.116550 105.387859 66.532634 108.237720 87.948718 111.087581 73.671329 113.937442 95.087413 116.787303 66.532634 119.637164 52.255245 122.487025 30.839161 125.336886 66.532634 128.186747 80.810023 131.036608 109.364802 133.886469 80.810023 136.736330 80.810023 139.586191 66.532634 142.436052 66.532634 145.285913 23.700466 148.135774 59.393939 150.985635 59.393939 153.835496 37.977855 156.685357 73.671329 159.535218 52.255245 162.385079 45.116550 165.234940 80.810023 168.084801 87.948718 170.934662 66.532634 173.784523 73.671329 176.634384 52.255245 179.484245 87.948718 182.334106 80.810023 185.183967 66.532634 188.033828 87.948718 190.883689 66.532634 193.733550 87.948718 196.583411 66.532634 199.433272 80.810023 202.283133 109.364802 205.132994 95.087413 207.982854 116.503497 210.832715 102.226107 213.682576 102.226107 216.532437 80.810023 219.382298 73.671329 222.232159 73.671329 225.082020 59.393939 227.931881 95.087413 230.781742 87.948718 233.631603 109.364802 236.481464 109.364802 239.331325 95.087413 242.181186 109.364802 245.031047 87.948718 247.880908 80.810023 250.730769 87.948718 253.580630 73.671329 256.430491 66.532634 259.280352 66.532634 262.130213 73.671329 264.980074 59.393939 267.829935 87.948718 270.679796 95.087413 273.529657 95.087413 276.379518 95.087413 279.229379 87.948718 282.079240 73.671329 284.929101 66.532634 287.778962 66.532634 290.628823 52.255245 293.478684 45.116550 296.328545 52.255245 299.178406 73.671329 302.028267 45.116550 304.878128 16.561772 307.727989 30.839161 310.577850 37.977855 313.427711 45.116550 316.277572 59.393939 319.127433 45.116550 321.977294 23.700466 324.827155 52.255245 327.677016 37.977855 330.526877 37.977855 333.376738 9.423077 336.226599 30.839161 339.076460 30.839161 341.926321 45.116550 344.776182 23.700466 347.626043 45.116550 350.475904 66.532634 353.325765 59.393939 356.175626 37.977855 359.025487 45.116550 361.875348 59.393939 364.725209 73.671329 367.575070 116.503497 370.424930 130.780886 373.274791 109.364802 376.124652 95.087413 378.974513 102.226107 381.824374 116.503497 384.674235 116.503497 387.524096 123.642191 390.373957 102.226107 393.223818 109.364802 396.073679 130.780886 398.923540 130.780886 401.773401 145.058275 404.623262 130.780886 407.473123 130.780886 410.322984 116.503497 413.172845 109.364802 416.022706 123.642191 418.872567 130.780886 421.722428 137.919580 424.572289 159.335664 427.422150 159.335664 430.272011 159.335664 433.121872 145.058275 435.971733 166.474359 438.821594 145.058275 441.671455 137.919580 444.521316 159.335664 447.371177 152.196970 450.221038 152.196970 453.070899 145.058275 455.920760 130.780886 458.770621 145.058275 461.620482 152.196970 464.470343 180.751748 467.320204 180.751748 470.170065 166.474359 473.019926 173.613054 475.869787 159.335664 478.719648 159.335664 481.569509 166.474359 484.419370 145.058275 487.269231 130.780886 490.119092 145.058275 492.968953 130.780886 495.818814 123.642191 498.668675 123.642191 501.518536 109.364802 504.368397 95.087413 507.218258 87.948718 510.068119 102.226107 512.917980 66.532634 515.767841 80.810023 518.617702 87.948718 521.467563 73.671329 524.317424 73.671329 527.167285 73.671329 530.017146 45.116550 532.867006 52.255245 535.716867 59.393939 538.566728 73.671329 541.416589 73.671329 544.266450 73.671329 547.116311 73.671329 549.966172 95.087413 552.816033 95.087413 555.665894 102.226107 558.515755 87.948718 561.365616 87.948718 564.215477 95.087413 567.065338 109.364802 569.915199 109.364802 572.765060 102.226107 575.614921 130.780886 578.464782 152.196970 581.314643 137.919580 584.164504 145.058275 587.014365 152.196970 589.864226 180.751748 592.714087 159.335664 595.563948 173.613054 598.413809 166.474359 601.263670 152.196970 604.113531 137.919580 606.963392 137.919580 609.813253 152.196970 612.663114 159.335664 615.512975 159.335664 618.362836 180.751748 621.212697 187.890443 624.062558 209.306527 626.912419 202.167832 629.762280 187.890443 632.612141 173.613054 635.462002 173.613054 638.311863 173.613054 641.161724 187.890443 644.011585 187.890443 646.861446 180.751748 649.711307 166.474359 652.561168 166.474359 655.411029 166.474359 658.260890 166.474359 661.110751 159.335664 663.960612 180.751748 666.810473 173.613054 669.660334 187.890443 672.510195 166.474359 675.360056 159.335664 678.209917 145.058275 681.059778 145.058275 683.909639 145.058275 686.759500 109.364802 689.609361 95.087413 692.459222 95.087413 695.309082 102.226107 698.158943 102.226107 701.008804 95.087413 703.858665 59.393939 706.708526 66.532634 709.558387 30.839161 712.408248 59.393939 715.258109 45.116550 718.107970 45.116550 720.957831 73.671329 723.807692 52.255245 723.807692 480.576923"/></g></g><g class="titles"><text class="title plot_title" x="400.0" y="26">Population size over  250 generations.</text></g><g class="plot overlay" transform="translate(42, 46)"><g class="series serie-0 color-0"/></g><g class="plot text-overlay" transform="translate(42, 46)"><g class="series serie-0 color-0"/></g><g class="plot tooltip-overlay" transform="translate(42, 46)"><g class="tooltip" style="opacity: 0" transform="translate(0 0)"><rect class="tooltip-box" height="0" rx="0" ry="0" width="0"/><g class="text"/></g></g><g class="legends" transform="translate(52, 566)"><g class="legend reactive activate-serie" id="activate-serie-0"><rect class="color-0 reactive" height="12" width="12" x="0.0" y="1.0"/><text x="17.0" y="11.2">Population size</text></g></g></g></svg>