<?xml version='1.0' encoding='utf-8'?>
<svg xmlns:xlink="http://www.w3.org/1999/xlink" xmlns="http://www.w3.org/2000/svg" id="chart-4c72f46d-04b7-4330-a9dd-05c54a17ee90" class="pygal-chart" viewBox="0 0 800 600"><!--Generated with pygal 2.4.0 (lxml) ©Kozea 2012-2016 on 2019-01-09--><!--http://pygal.org--><!--http://github.com/Kozea/pygal--><defs><style type="text/css">#chart-4c72f46d-04b7-4330-a9dd-05c54a17ee90{-webkit-user-select:none;-webkit-font-smoothing:antialiased;font-family:Consolas,"Liberation Mono",Menlo,Courier,monospace}#chart-4c72f46d-04b7-4330-a9dd-05c54a17ee90 .title{font-family:Consolas,"Liberation Mono",Menlo,Courier,monospace;font-size:16px}#chart-4c72f46d-04b7-4330-a9dd-05c54a17ee90 .legends .legend text{font-family:Consolas,"Liberation Mono",Menlo,Courier,monospace;font-size:14px}#chart-4c72f46d-04b7-4330-a9dd-05c54a17ee90 .axis text{font-family:Consolas,"Liberation Mono",Menlo,Courier,monospace;font-size:10px}#chart-4c72f46d-04b7-4330-a9dd-05c54a17ee90 .axis text.major{font-family:Consolas,"Liberation Mono",Menlo,Courier,monospace;font-size:10px}#chart-4c72f46d-04b7-4330-a9dd-05c54a17ee90 .text-overlay text.value{font-family:Consolas,"Liberation Mono",Menlo,Courier,monospace;font-size:16px}#chart-4c72f46d-04b7-4330-a9dd-05c54a17ee90 .text-overlay text.label{font-family:Consolas,"Liberation Mono",Menlo,Courier,monospace;font-size:10px}#chart-4c72f46d-04b7-4330-a9dd-05c54a17ee90 .tooltip{font-family:Consolas,"Liberation Mono",Menlo,Courier,monospace;font-size:14px}#chart-4c72f46d-04b7-4330-a9dd-05c54a17ee90 text.no_data{font-family:Consolas,"Liberation Mono",Menlo,Courier,monospace;font-size:64px}
#chart-4c72f46d-04b7-4330-a9dd-05c54a17ee90{background-color:black}#chart-4c72f46d-04b7-4330-a9dd-05c54a17ee90 path,#chart-4c72f46d-04b7-4330-a9dd-05c54a17ee90 line,#chart-4c72f46d-04b7-4330-a9dd-05c54a17ee90 rect,#chart-4c72f46d-04b7-4330-a9dd-05c54a17ee90 circle{-webkit-transition:250ms;-moz-transition:250ms;transition:250ms}#chart-4c72f46d-04b7-4330-a9dd-05c54a17ee90 .graph &gt; .background{fill:black}#chart-4c72f46d-04b7-4330-a9dd-05c54a17ee90 .plot &gt; .background{fill:#111}#chart-4c72f46d-04b7-4330-a9dd-05c54a17ee90 .graph{fill:#999}#chart-4c72f46d-04b7-4330-a9dd-05c54a17ee90 text.no_data{fill:#eee}#chart-4c72f46d-04b7-4330-a9dd-05c54a17ee90 .title{fill:#eee}#chart-4c72f46d-04b7-4330-a9dd-05c54a17ee90 .legends .legend text{fill:#999}#chart-4c72f46d-04b7-4330-a9dd-05c54a17ee90 .legends .legend:hover text{fill:#eee}#chart-4c72f46d-04b7-4330-a9dd-05c54a17ee90 .axis .line{stroke:#eee}#chart-4c72f46d-04b7-4330-a9dd-05c54a17ee90 .axis .guide.line{stroke:#555}#chart-4c72f46d-04b7-4330-a9dd-05c54a17ee90 .axis .major.line{stroke:#999}#chart-4c72f46d-04b7-4330-a9dd-05c54a17ee90 .axis text.major{fill:#eee}#chart-4c72f46d-04b7-4330-a9dd-05c54a17ee90 .axis.y .guides:hover .guide.line,#chart-4c72f46d-04b7-4330-a9dd-05c54a17ee90 .line-graph .axis.x .guides:hover .guide.line,#chart-4c72f46d-04b7-4330-a9dd-05c54a17ee90 .stackedline-graph .axis.x .guides:hover .guide.line,#chart-4c72f46d-04b7-4330-a9dd-05c54a17ee90 .xy-graph .axis.x .guides:hover .guide.line{stroke:#eee}#chart-4c72f46d-04b7-4330-a9dd-05c54a17ee90 .axis .guides:hover text{fill:#eee}#chart-4c72f46d-04b7-4330-a9dd-05c54a17ee90 .reactive{fill-opacity:.8;stroke-opacity:.8}#chart-4c72f46d-04b7-4330-a9dd-05c54a17ee90 .ci{stroke:#999}#chart-4c72f46d-04b7-4330-a9dd-05c54a17ee90 .reactive.active,#chart-4c72f46d-04b7-4330-a9dd-05c54a17ee90 .active .reactive{fill-opacity:.4;stroke-opacity:.9;stroke-width:4}#chart-4c72f46d-04b7-4330-a9dd-05c54a17ee90 .ci .reactive.active{stroke-width:1.5}#chart-4c72f46d-04b7-4330-a9dd-05c54a17ee90 .series text{fill:#eee}#chart-4c72f46d-04b7-4330-a9dd-05c54a17ee90 .tooltip rect{fill:#111;stroke:#eee;-webkit-transition:opacity 250ms;-moz-transition:opacity 250ms;transition:opacity 250ms}#chart-4c72f46d-04b7-4330-a9dd-05c54a17ee90 .tooltip .label{fill:#999}#chart-4c72f46d-04b7-4330-a9dd-05c54a17ee90 .tooltip .label{fill:#999}#chart-4c72f46d-04b7-4330-a9dd-05c54a17ee90 .tooltip .legend{font-size:.8em;fill:#555}#chart-4c72f46d-04b7-4330-a9dd-05c54a17ee90 .tooltip .x_label{font-size:.6em;fill:#eee}#chart-4c72f46d-04b7-4330-a9dd-05c54a17ee90 .tooltip .xlink{font-size:.5em;text-decoration:underline}#chart-4c72f46d-04b7-4330-a9dd-05c54a17ee90 .tooltip .value{font-size:1.5em}#chart-4c72f46d-04b7-4330-a9dd-05c54a17ee90 .bound{font-size:.5em}#chart-4c72f46d-04b7-4330-a9dd-05c54a17ee90 .max-value{font-size:.75em;fill:#555}#chart-4c72f46d-04b7-4330-a9dd-05c54a17ee90 .map-element{fill:#111;stroke:#555 !important}#chart-4c72f46d-04b7-4330-a9dd-05c54a17ee90 .map-element .reactive{fill-opacity:inherit;stroke-opacity:inherit}#chart-4c72f46d-04b7-4330-a9dd-05c54a17ee90 .color-0,#chart-4c72f46d-04b7-4330-a9dd-05c54a17ee90 .color-0 a:visited{stroke:#ff5995;fill:#ff5995}#chart-4c72f46d-04b7-4330-a9dd-05c54a17ee90 .text-overlay .color-0 text{fill:black}
#chart-4c72f46d-04b7-4330-a9dd-05c54a17ee90 text.no_data{text-anchor:middle}#chart-4c72f46d-04b7-4330-a9dd-05c54a17ee90 .guide.line{fill:none}#chart-4c72f46d-04b7-4330-a9dd-05c54a17ee90 .centered{text-anchor:middle}#chart-4c72f46d-04b7-4330-a9dd-05c54a17ee90 .title{text-anchor:middle}#chart-4c72f46d-04b7-4330-a9dd-05c54a17ee90 .legends .legend text{fill-opacity:1}#chart-4c72f46d-04b7-4330-a9dd-05c54a17ee90 .axis.x text{text-anchor:middle}#chart-4c72f46d-04b7-4330-a9dd-05c54a17ee90 .axis.x:not(.web) text[transform]{text-anchor:start}#chart-4c72f46d-04b7-4330-a9dd-05c54a17ee90 .axis.x:not(.web) text[transform].backwards{text-anchor:end}#chart-4c72f46d-04b7-4330-a9dd-05c54a17ee90 .axis.y text{text-anchor:end}#chart-4c72f46d-04b7-4330-a9dd-05c54a17ee90 .axis.y text[transform].backwards{text-anchor:start}#chart-4c72f46d-04b7-4330-a9dd-05c54a17ee90 .axis.y2 text{text-anchor:start}#chart-4c72f46d-04b7-4330-a9dd-05c54a17ee90 .axis.y2 text[transform].backwards{text-anchor:end}#chart-4c72f46d-04b7-4330-a9dd-05c54a17ee90 .axis .guide.line{stroke-dasharray:4,4}#chart-4c72f46d-04b7-4330-a9dd-05c54a17ee90 .axis .major.guide.line{stroke-dasharray:6,6}#chart-4c72f46d-04b7-4330-a9dd-05c54a17ee90 .horizontal .axis.y .guide.line,#chart-4c72f46d-04b7-4330-a9dd-05c54a17ee90 .horizontal .axis.y2 .guide.line,#chart-4c72f46d-04b7-4330-a9dd-05c54a17ee90 .vertical .axis.x .guide.line{opacity:0}#chart-4c72f46d-04b7-4330-a9dd-05c54a17ee90 .horizontal .axis.always_show .guide.line,#chart-4c72f46d-04b7-4330-a9dd-05c54a17ee90 .vertical .axis.always_show .guide.line{opacity:1 !important}#chart-4c72f46d-04b7-4330-a9dd-05c54a17ee90 .axis.y .guides:hover .guide.line,#chart-4c72f46d-04b7-4330-a9dd-05c54a17ee90 .axis.y2 .guides:hover .guide.line,#chart-4c72f46d-04b7-4330-a9dd-05c54a17ee90 .axis.x .guides:hover .guide.line{opacity:1}#chart-4c72f46d-04b7-4330-a9dd-05c54a17ee90 .axis .guides:hover text{opacity:1}#chart-4c72f46d-04b7-4330-a9dd-05c54a17ee90 .nofill{fill:none}#chart-4c72f46d-04b7-4330-a9dd-05c54a17ee90 .subtle-fill{fill-opacity:.2}#chart-4c72f46d-04b7-4330-a9dd-05c54a17ee90 .dot{stroke-width:1px;fill-opacity:1}#chart-4c72f46d-04b7-4330-a9dd-05c54a17ee90 .dot.active{stroke-width:5px}#chart-4c72f46d-04b7-4330-a9dd-05c54a17ee90 .dot.negative{fill:transparent}#chart-4c72f46d-04b7-4330-a9dd-05c54a17ee90 text,#chart-4c72f46d-04b7-4330-a9dd-05c54a17ee90 tspan{stroke:none !important}#chart-4c72f46d-04b7-4330-a9dd-05c54a17ee90 .series text.active{opacity:1}#chart-4c72f46d-04b7-4330-a9dd-05c54a17ee90 .tooltip rect{fill-opacity:.95;stroke-width:.5}#chart-4c72f46d-04b7-4330-a9dd-05c54a17ee90 .tooltip text{fill-opacity:1}#chart-4c72f46d-04b7-4330-a9dd-05c54a17ee90 .showable{visibility:hidden}#chart-4c72f46d-04b7-4330-a9dd-05c54a17ee90 .showable.shown{visibility:visible}#chart-4c72f46d-04b7-4330-a9dd-05c54a17ee90 .gauge-background{fill:rgba(229,229,229,1);stroke:none}#chart-4c72f46d-04b7-4330-a9dd-05c54a17ee90 .bg-lines{stroke:black;stroke-width:2px}</style><script type="text/javascript">window.pygal = window.pygal || {};window.pygal.config = window.pygal.config || {};window.pygal.config['4c72f46d-04b7-4330-a9dd-05c54a17ee90'] = {"allow_interruptions": false, "box_mode": "extremes", "classes": ["pygal-chart"], "css": ["file://style.css", "file://graph.css"], "defs": [], "disable_xml_declaration": false, "dots_size": 2.5, "dynamic_print_values": false, "explicit_size": false, "fill": true, "force_uri_protocol": "https", "formatter": null, "half_pie": false, "height": 600, "include_x_axis": true, "inner_radius": 0, "interpolate": null, "interpolation_parameters": {}, "interpolation_precision": 250, "inverse_y_axis": false, "js": ["//kozea.github.io/pygal.js/2.0.x/pygal-tooltips.min.js"], "legend_at_bottom": true, "legend_at_bottom_columns": null, "legend_box_size": 12, "logarithmic": false, "margin": 20, "margin_bottom": null, "margin_left": null, "margin_right": null, "margin_top": null, "max_scale": 16, "min_scale": 4, "missing_value_fill_truncation": "x", "no_data_text": "No data", "no_prefix": false, "order_min": null, "pretty_print": false, "print_labels": false, "print_values": false, "print_values_position": "center", "print_zeroes": true, "range": null, "rounded_bars": null, "secondary_range": null, "show_dots": false, "show_legend": true, "show_minor_x_labels": true, "show_minor_y_labels": true, "show_only_major_dots": false, "show_x_guides": false, "show_x_labels": true, "show_y_guides": true, "show_y_labels": true, "spacing": 10, "stack_from_top": false, "strict": false, "stroke": true, "stroke_style": null, "style": {"background": "black", "ci_colors": [], "colors": ["#ff5995", "#b6e354", "#feed6c", "#8cedff", "#9e6ffe", "#899ca1", "#f8f8f2", "#bf4646", "#516083", "#f92672", "#82b414", "#fd971f", "#56c2d6", "#808384", "#8c54fe", "#465457"], "font_family": "Consolas, \"Liberation Mono\", Menlo, Courier, monospace", "foreground": "#999", "foreground_strong": "#eee", "foreground_subtle": "#555", "guide_stroke_dasharray": "4,4", "label_font_family": "Consolas, \"Liberation Mono\", Menlo, Courier, monospace", "label_font_size": 10, "legend_font_family": "Consolas, \"Liberation Mono\", Menlo, Courier, monospace", "legend_font_size": 14, "major_guide_stroke_dasharray": "6,6", "major_label_font_family": "Consolas, \"Liberation Mono\", Menlo, Courier, monospace", "major_label_font_size": 10, "no_data_font_family": "Consolas, \"Liberation Mono\", Menlo, Courier, monospace", "no_data_font_size": 64, "opacity": ".8", "opacity_hover": ".4", "plot_background": "#111", "stroke_opacity": ".8", "stroke_opacity_hover": ".9", "title_font_family": "Consolas, \"Liberation Mono\", Menlo, Courier, monospace", "title_font_size": 16, "tooltip_font_family": "Consolas, \"Liberation Mono\", Menlo, Courier, monospace", "tooltip_font_size": 14, "transition": "250ms", "value_background": "rgba(229, 229, 229, 1)", "value_colors": [], "value_font_family": "Consolas, \"Liberation Mono\", Menlo, Courier, monospace", "value_font_size": 16, "value_label_font_family": "Consolas, \"Liberation Mono\", Menlo, Courier, monospace", "value_label_font_size": 10}, "title": "Population size over  250 generations.", "tooltip_border_radius": 0, "tooltip_fancy_mode": true, "truncate_label": null, "truncate_legend": null, "width": 800, "x_label_rotation": 0, "x_labels": null, "x_labels_major": null, "x_labels_major_count": null, "x_labels_major_every": null, "x_title": null, "xrange": null, "y_label_rotation": 0, "y_labels": null, "y_labels_major": null, "y_labels_major_count": null, "y_labels_major_every": null, "y_title": null, "zero": 0, "legends": ["Population size"]}</script><script type="text/javascript" xlink:href="https://kozea.github.io/pygal.js/2.0.x/pygal-tooltips.min.js"/></defs><title>Population size over  250 generations.</title><g class="graph xy-graph vertical"><rect class="background" height="600" width="800" x="0" y="0"/><g class="plot" transform="translate(42, 46)"><rect class="background" height="490.0" width="738.0" x="0" y="0"/><g class="axis y always_show"><g class="guides"><path class="axis major line" d="M0.000000 480.576923 h738.000000"/><text class="major" x="-5" y="484.0769230769231">0</text><title>0</title></g><g class="guides"><path class="guide line" d="M0.000000 425.147059 h738.000000"/><text class="" x="-5" y="428.6470588235294">2</text><title>2</title></g><g class="guides"><path class="guide line" d="M0.000000 369.717195 h738.000000"/><text class="" x="-5" y="373.21719457013575">4</text><title>4</title></g><g class="guides"><path class="guide line" d="M0.000000 314.287330 h738.000000"/><text class="" x="-5" y="317.7873303167421">6</text><title>6</title></g><g class="guides"><path class="guide line" d="M0.000000 258.857466 h738.000000"/><text class="" x="-5" y="262.3574660633484">8</text><title>8</title></g><g class="guides"><path class="major guide line" d="M0.000000 203.427602 h738.000000"/><text class="major" x="-5" y="206.92760180995475">10</text><title>10</title></g><g class="guides"><path class="guide line" d="M0.000000 147.997738 h738.000000"/><text class="" x="-5" y="151.49773755656105">12</text><title>12</title></g><g class="guides"><path class="guide line" d="M0.000000 92.567873 h738.000000"/><text class="" x="-5" y="96.0678733031674">14</text><title>14</title></g><g class="guides"><path class="guide line" d="M0.000000 37.138009 h738.000000"/><text class="" x="-5" y="40.6380090497737">16</text><title>16</title></g></g><g class="axis x"><g class="guides"><path class="axis line" d="M14.192308 0.000000 v490.000000"/><text class="" x="14.192307692307695" y="505.0">0</text><title>0</title></g><g class="guides"><path class="guide line" d="M71.189527 0.000000 v490.000000"/><text class="" x="71.18952734012976" y="505.0">20</text><title>20</title></g><g class="guides"><path class="guide line" d="M128.186747 0.000000 v490.000000"/><text class="" x="128.18674698795184" y="505.0">40</text><title>40</title></g><g class="guides"><path class="guide line" d="M185.183967 0.000000 v490.000000"/><text class="" x="185.1839666357739" y="505.0">60</text><title>60</title></g><g class="guides"><path class="guide line" d="M242.181186 0.000000 v490.000000"/><text class="" x="242.18118628359596" y="505.0">80</text><title>80</title></g><g class="guides"><path class="guide line" d="M299.178406 0.000000 v490.000000"/><text class="" x="299.178405931418" y="505.0">100</text><title>100</title></g><g class="guides"><path class="guide line" d="M356.175626 0.000000 v490.000000"/><text class="" x="356.1756255792401" y="505.0">120</text><title>120</title></g><g class="guides"><path class="guide line" d="M413.172845 0.000000 v490.000000"/><text class="" x="413.1728452270621" y="505.0">140</text><title>140</title></g><g class="guides"><path class="guide line" d="M470.170065 0.000000 v490.000000"/><text class="" x="470.17006487488413" y="505.0">160</text><title>160</title></g><g class="guides"><path class="guide line" d="M527.167285 0.000000 v490.000000"/><text class="" x="527.1672845227063" y="505.0">180</text><title>180</title></g><g class="guides"><path class="guide line" d="M584.164504 0.000000 v490.000000"/><text class="" x="584.1645041705283" y="505.0">200</text><title>200</title></g><g class="guides"><path class="guide line" d="M641.161724 0.000000 v490.000000"/><text class="" x="641.1617238183503" y="505.0">220</text><title>220</title></g><g class="guides"><path class="guide line" d="M698.158943 0.000000 v490.000000"/><text class="" x="698.1589434661724" y="505.0">240</text><title>240</title></g></g><g class="series serie-0 color-0"><path class="line reactive" d="M14.192308 480.576923 L14.192308 203.427602 17.042169 203.427602 19.892030 203.427602 22.741891 231.142534 25.591752 175.712670 28.441613 147.997738 31.291474 175.712670 34.141335 175.712670 36.991196 203.427602 39.841057 203.427602 42.690918 231.142534 45.540778 203.427602 48.390639 231.142534 51.240500 231.142534 54.090361 286.572398 56.940222 258.857466 59.790083 314.287330 62.639944 314.287330 65.489805 314.287330 68.339666 342.002262 71.189527 342.002262 74.039388 342.002262 76.889249 314.287330 79.739110 314.287330 82.588971 314.287330 85.438832 286.572398 88.288693 286.572398 91.138554 314.287330 93.988415 286.572398 96.838276 231.142534 99.688137 231.142534 102.537998 231.142534 105.387859 231.142534 108.237720 231.142534 111.087581 203.427602 113.937442 203.427602 116.787303 175.712670 119.637164 147.997738 122.487025 147.997738 125.336886 203.427602 128.186747 203.427602 131.036608 231.142534 133.886469 231.142534 136.736330 231.142534 139.586191 286.572398 142.436052 286.572398 145.285913 286.572398 148.135774 203.427602 150.985635 203.427602 153.835496 203.427602 156.685357 175.712670 159.535218 147.997738 162.385079 92.567873 165.234940 64.852941 168.084801 64.852941 170.934662 9.423077 173.784523 9.423077 176.634384 37.138009 179.484245 37.138009 182.334106 92.567873 185.183967 92.567873 188.033828 92.567873 190.883689 147.997738 193.733550 147.997738 196.583411 120.282805 199.433272 147.997738 202.283133 147.997738 205.132994 147.997738 207.982854 175.712670 210.832715 175.712670 213.682576 231.142534 216.532437 203.427602 219.382298 258.857466 222.232159 286.572398 225.082020 231.142534 227.931881 258.857466 230.781742 258.857466 233.631603 231.142534 236.481464 203.427602 239.331325 175.712670 242.181186 175.712670 245.031047 147.997738 247.880908 147.997738 250.730769 120.282805 253.580630 147.997738 256.430491 120.282805 259.280352 92.567873 262.130213 64.852941 264.980074 64.852941 267.829935 64.852941 270.679796 64.852941 273.529657 147.997738 276.379518 147.997738 279.229379 120.282805 282.079240 92.567873 284.929101 92.567873 287.778962 92.567873 290.628823 92.567873 293.478684 92.567873 296.328545 92.567873 299.178406 64.852941 302.028267 64.852941 304.878128 92.567873 307.727989 147.997738 310.577850 147.997738 313.427711 175.712670 316.277572 203.427602 319.127433 175.712670 321.977294 175.712670 324.827155 175.712670 327.677016 175.712670 330.526877 203.427602 333.376738 231.142534 336.226599 231.142534 339.076460 231.142534 341.926321 231.142534 344.776182 231.142534 347.626043 203.427602 350.475904 203.427602 353.325765 231.142534 356.175626 203.427602 359.025487 231.142534 361.875348 231.142534 364.725209 314.287330 367.575070 342.002262 370.424930 369.717195 373.274791 369.717195 376.124652 369.717195 378.974513 369.717195 381.824374 342.002262 384.674235 342.002262 387.524096 342.002262 390.373957 342.002262 393.223818 342.002262 396.073679 342.002262 398.923540 342.002262 401.773401 397.432127 404.623262 397.432127 407.473123 397.432127 410.322984 397.432127 413.172845 397.432127 416.022706 397.432127 418.872567 397.432127 421.722428 397.432127 424.572289 397.432127 427.422150 397.432127 430.272011 397.432127 433.121872 369.717195 435.971733 369.717195 438.821594 369.717195 441.671455 397.432127 444.521316 397.432127 447.371177 397.432127 450.221038 397.432127 453.070899 397.432127 455.920760 397.432127 458.770621 397.432127 461.620482 397.432127 464.470343 397.432127 467.320204 397.432127 470.170065 369.717195 473.019926 369.717195 475.869787 369.717195 478.719648 342.002262 481.569509 314.287330 484.419370 314.287330 487.269231 314.287330 490.119092 314.287330 492.968953 314.287330 495.818814 286.572398 498.668675 286.572398 501.518536 286.572398 504.368397 258.857466 507.218258 258.857466 510.068119 231.142534 512.917980 258.857466 515.767841 258.857466 518.617702 258.857466 521.467563 258.857466 524.317424 231.142534 527.167285 231.142534 530.017146 231.142534 532.867006 231.142534 535.716867 231.142534 538.566728 231.142534 541.416589 286.572398 544.266450 286.572398 547.116311 258.857466 549.966172 231.142534 552.816033 203.427602 555.665894 203.427602 558.515755 231.142534 561.365616 231.142534 564.215477 258.857466 567.065338 258.857466 569.915199 258.857466 572.765060 231.142534 575.614921 231.142534 578.464782 203.427602 581.314643 203.427602 584.164504 203.427602 587.014365 203.427602 589.864226 175.712670 592.714087 175.712670 595.563948 147.997738 598.413809 147.997738 601.263670 175.712670 604.113531 147.997738 606.963392 147.997738 609.813253 147.997738 612.663114 175.712670 615.512975 203.427602 618.362836 258.857466 621.212697 258.857466 624.062558 258.857466 626.912419 231.142534 629.762280 231.142534 632.612141 258.857466 635.462002 231.142534 638.311863 258.857466 641.161724 231.142534 644.011585 231.142534 646.861446 231.142534 649.711307 258.857466 652.561168 231.142534 655.411029 231.142534 658.260890 203.427602 661.110751 203.427602 663.960612 203.427602 666.810473 258.857466 669.660334 286.572398 672.510195 286.572398 675.360056 286.572398 678.209917 286.572398 681.059778 258.857466 683.909639 286.572398 686.759500 314.287330 689.609361 286.572398 692.459222 286.572398 695.309082 286.572398 698.158943 286.572398 701.008804 314.287330 703.858665 314.287330 706.708526 342.002262 709.558387 314.287330 712.408248 314.287330 715.258109 314.287330 718.107970 314.287330 720.957831 314.287330 723.807692 286.572398 723.807692 480.576923"/></g></g><g class="titles"><text class="title plot_title" x="400.0" y="26">Population size over  250 generations.</text></g><g class="plot overlay" transform="translate(42, 46)"><g class="series serie-0 color-0"/></g><g class="plot text-overlay" transform="translate(42, 46)"><g class="series serie-0 color-0"/></g><g class="plot tooltip-overlay" transform="translate(42, 46)"><g class="tooltip" style="opacity: 0" transform="translate(0 0)"><rect class="tooltip-box" height="0" rx="0" ry="0" width="0"/><g class="text"/></g></g><g class="legends" transform="translate(52, 566)"><g class="legend reactive activate-serie" id="activate-serie-0"><rect class="color-0 reactive" height="12" width="12" x="0.0" y="1.0"/><text x="17.0" y="11.2">Population size</text></g></g></g></svg>